<?xml version="1.0" encoding="utf-8"?>
<!-- Generator: Adobe Illustrator 23.0.4, SVG Export Plug-In . SVG Version: 6.00 Build 0)  -->
<svg version="1.1" id="Layer_1" xmlns="http://www.w3.org/2000/svg" xmlns:xlink="http://www.w3.org/1999/xlink" x="0px" y="0px"
	 viewBox="0 0 272 123.3" style="enable-background:new 0 0 272 123.3;" xml:space="preserve">
<style type="text/css">
	.st0{fill:#808184;}
	.st1{fill:#54B848;}
	.st2{fill:#00703C;}
	.st3{fill:#58595B;}
	.st4{fill:#5F6062;}
	.st5{fill:none;}
</style>
<g>
	<path class="st0" d="M165.1,73.5c0.8,0,1.2-0.2,1.5-0.4c0.2-0.1,0.2-0.1,0.3-0.1c0.1,0,0.2,0.2,0.1,0.5c-0.2,0.7-0.3,1.4-0.5,2.5
		c0,0.2-0.2,0.4-0.4,0.4c-0.2,0-0.2-0.2-0.3-0.7c-0.1-1.1-0.4-1.2-1.8-1.3c-0.4,0-2.8,0-3.1,0c-0.1,0-0.2,0.2-0.2,0.3
		c0,1,0,3.5,0,5.4c0,2.5,0,4.6,0.1,5.4c0.1,1,0.2,1.3,1.6,1.6c0.3,0.1,0.6,0.2,0.6,0.4c0,0.2-0.4,0.3-0.6,0.3
		c-0.2,0-1.5-0.1-2.5-0.1c-1.1,0-2.2,0.2-2.5,0.2c-0.4,0-0.7-0.1-0.7-0.3c0-0.2,0.2-0.3,0.4-0.4c1.5-0.4,1.6-0.7,1.6-2.4
		c0-1.3,0.2-5.8,0.2-7.5c0-1.2,0-1.7,0-2.6c0-0.2-0.1-0.3-0.2-0.3c-0.4-0.1-2.4-0.1-2.7-0.1c-0.8,0-1.3,0.1-1.6,0.5
		c-0.1,0.1-0.4,0.4-0.7,1.1c-0.2,0.5-0.3,0.4-0.4,0.4c-0.1,0-0.2-0.3-0.2-0.5c0-0.4,0.4-1.6,0.4-2.9c0-0.2,0.2-0.4,0.3-0.4
		c0.1,0,0.1,0.2,0.3,0.4c0.1,0.1,0.4,0.4,0.7,0.4c0.6,0.1,2.3,0.1,5.1,0.1C161.2,73.5,164.2,73.5,165.1,73.5L165.1,73.5z"/>
	<path class="st0" d="M165.8,79.5c0.7-0.2,1.4-0.6,1.6-0.7c0.3-0.2,0.4-0.3,0.4-0.3c0.1,0,0.2,0.2,0.2,0.3c0,0.4,0,0.8,0,1.2
		c0,0.1,0.1,0.1,0.2,0.1c0.9-0.8,1.8-1.4,2.5-1.4c0.9,0,1.1,0.5,1.1,0.7c0,0-0.1,0.2-0.1,0.3c-0.2,0.3-0.8,0.9-0.9,1
		c0,0-0.2,0-0.3-0.1c-0.2-0.2-0.8-0.5-1.2-0.5c-0.4,0-0.7,0.1-1,0.3c-0.2,0.2-0.2,0.4-0.2,0.5c0,0.4,0.1,4.4,0.1,4.7
		c0,0.6,0.2,1,0.6,1.1c0.3,0.1,0.7,0.2,1,0.3c0.4,0.1,0.4,0.3,0.4,0.4c0,0.1-0.2,0.2-0.5,0.2c-0.5,0-1.3-0.1-2.6-0.1
		c-0.7,0-0.9,0.1-1.4,0.1c-0.2,0-0.5-0.1-0.5-0.3c0-0.1,0.3-0.2,0.4-0.3c0.9-0.3,0.9-0.5,0.9-1.8c0-0.5,0-2.7,0-4.2
		c0-0.2,0-0.5-0.2-0.7c-0.5-0.4-0.7-0.5-0.7-0.6C165.5,79.8,165.5,79.6,165.8,79.5L165.8,79.5z"/>
	<path class="st0" d="M178.9,79.6c0.5,0.5,0.8,1.1,0.8,1.8c0,0.1-0.2,0.4-0.4,0.4c-0.2,0-4,0-5,0c-0.1,0-0.2,0.1-0.2,0.2
		c-0.1,0.2-0.1,0.5-0.1,0.8c0,0.9,0.4,1.9,0.8,2.5c0.5,0.7,1.4,1.2,2.5,1.2c1,0,1.6-0.2,2-0.8c0.1-0.1,0.2-0.3,0.3-0.3
		c0.1,0,0.2,0.2,0.2,0.3c0,0.2-0.1,0.4-0.2,0.5c-0.8,1.1-1.9,1.6-3.2,1.6c-2.4,0-3.9-1.8-3.9-4.4c0-1.8,0.9-3.5,2.6-4.3
		c0.6-0.3,1.3-0.4,1.7-0.4C177.5,78.7,178.3,79,178.9,79.6L178.9,79.6z M174.3,80.9c0,0.1,0,0.2,0.1,0.2c0.6,0,1.7,0,2.8,0
		c0.5,0,0.7-0.1,0.7-0.5c0-0.6-0.7-1.3-1.4-1.3C175.5,79.3,174.7,79.9,174.3,80.9L174.3,80.9z"/>
	<path class="st0" d="M186.7,79.8c0.3,0.5,0.4,0.9,0.4,1.8c0,0.9-0.1,3.6-0.1,3.9c0,1,0.7,1.1,0.9,1.1c0.1,0,0.6-0.2,0.8-0.3
		c0.1,0,0.1,0,0.1,0.1c0.1,0.1,0.1,0.2,0.1,0.2c0,0.4-1,1.4-2,1.4c-0.5,0-1.1-0.3-1.4-1.1c0,0-0.1-0.1-0.1-0.1c-0.8,0.6-1.8,0.9-2,1
		c-0.2,0.1-0.8,0.1-0.9,0.1c-0.8,0-1.5-0.9-1.5-2c0-0.4,0.2-0.8,0.4-1.1c0.2-0.3,0.5-0.4,0.9-0.5c0.3-0.1,2.1-0.6,2.6-0.8
		c0.5-0.2,0.6-0.3,0.6-0.4c0-0.2,0-1.5,0-1.8c0-0.5-0.6-1.5-1.7-1.5c-0.5,0-0.7,0.1-0.9,0.2c-0.1,0.1-0.2,0.5-0.2,0.9
		c0,0.1-0.1,0.2-0.1,0.2c-0.2,0.2-1.3,0.7-1.4,0.7c-0.1,0-0.3-0.2-0.3-0.3c0-0.6,0.6-1.3,1.6-1.9c0.6-0.5,1.6-0.8,2-0.8
		C185.8,78.7,186.4,79.3,186.7,79.8L186.7,79.8z M185.3,86.3c0.1-0.1,0.3-0.5,0.3-0.5c0-0.5,0-1.3,0-1.7c0-0.1-0.1-0.2-0.2-0.2
		c-0.6,0-1.7,0.4-2.3,0.7c-0.2,0.2-0.4,0.3-0.4,0.8c0,1,0.9,1.3,1.4,1.3C184.4,86.7,184.9,86.5,185.3,86.3L185.3,86.3z"/>
	<path class="st0" d="M195.1,78.9c0,0,0.2,0.1,0.2,0.2c0-0.1,0.1,0.5,0.1,0.8c0,0.2-0.4,0.2-0.6,0.2c-0.1,0-2.1,0-2.4,0
		c-0.1,0-0.2,0.1-0.2,0.2c0,0.4,0,3.7,0,4.7c0,0.5,0.1,0.8,0.4,1.1c0.4,0.4,0.9,0.4,1.3,0.4c0.3,0,0.7-0.1,1.1-0.3
		c0.2-0.1,0.2-0.1,0.3-0.1c0,0,0.1,0,0.1,0.2c0,0.2-0.2,0.4-0.3,0.5c-0.6,0.6-1.4,1-2.3,1c-0.9,0-1.7-0.5-1.9-1
		c-0.2-0.4-0.3-0.8-0.3-1.4c0-0.8,0.1-4.1,0.1-4.9c0-0.2-0.4-0.3-0.8-0.4c-0.2-0.1-0.3-0.2-0.3-0.2c0-0.1,0.1-0.2,0.1-0.2
		c0.8-0.6,1.4-1.1,1.8-1.5c0.3-0.3,0.4-0.5,0.5-0.5c0.1,0,0.3,0.2,0.3,0.2c0,0.1,0,0.4,0,1c0,0.1,0.1,0.2,0.2,0.2
		C192.9,79,195,78.9,195.1,78.9L195.1,78.9z"/>
	<path class="st0" d="M203,79.6c0.5,0.5,0.8,1.1,0.8,1.8c0,0.1-0.2,0.4-0.4,0.4c-0.2,0-4,0-5,0c-0.1,0-0.2,0.1-0.2,0.2
		c-0.1,0.2-0.1,0.5-0.1,0.8c0,0.9,0.3,1.9,0.8,2.5c0.5,0.7,1.4,1.2,2.5,1.2c1,0,1.6-0.2,2-0.8c0.1-0.1,0.2-0.3,0.3-0.3
		c0.1,0,0.2,0.2,0.2,0.3c0,0.2-0.1,0.4-0.2,0.5c-0.8,1.1-1.9,1.6-3.2,1.6c-2.4,0-3.9-1.8-3.9-4.4c0-1.8,0.9-3.5,2.6-4.3
		c0.6-0.3,1.3-0.4,1.7-0.4C201.6,78.7,202.5,79,203,79.6L203,79.6z M198.4,80.9c0,0.1,0,0.2,0.1,0.2c0.6,0,1.7,0,2.8,0
		c0.5,0,0.7-0.1,0.7-0.5c0-0.6-0.7-1.3-1.4-1.3C199.6,79.3,198.8,79.9,198.4,80.9L198.4,80.9z"/>
	<path class="st0" d="M211.9,78.8c0.1,0,0.2-0.1,0.2-0.2c0.1-0.6,0-3.9,0-4.5c0-0.1,0-0.4-1-0.9c-0.2-0.1-0.2-0.2-0.2-0.2
		c0-0.1,0.2-0.3,0.4-0.4c0.5-0.1,1.7-0.4,2.2-0.6c0.1,0,0.2-0.1,0.3-0.1c0.1,0,0.2,0.2,0.2,0.4c-0.1,1.2-0.2,2-0.2,8.7
		c0,4.4,0,4.6,0.1,5c0,0.8,0.2,0.9,0.3,0.9c0.2,0,1-0.2,1.2-0.2c0.1,0,0.1,0.1,0.1,0.1c0,0.2-0.3,0.5-0.4,0.5
		c-0.4,0.1-1.6,0.3-2,0.4c-0.5,0.2-0.7,0.2-0.8,0.2c-0.1,0-0.2-0.2-0.2-0.3c0-0.2,0-0.6,0-0.9c0-0.1-0.1-0.1-0.1-0.1
		c-1,0.9-2.1,1.1-2.9,1.1c-1.1,0-2.1-0.5-2.7-1.2c-0.7-0.8-1.1-1.9-1.1-3c0-2.1,1.2-3.4,2.3-4c1-0.6,2.3-0.8,2.9-0.8
		C211.3,78.7,211.6,78.8,211.9,78.8L211.9,78.8z M208,80.2c-0.4,0.4-0.9,1.5-0.9,2.8c0,1.8,1.2,3.8,3.1,3.8c0.7,0,1.2-0.2,1.6-0.5
		c0,0,0.3-0.7,0.4-1.4c0-1.4,0-2.6-0.1-3.6c0-0.2-0.2-0.6-0.5-0.8c-0.6-0.6-1.4-0.9-1.9-0.9C209,79.4,208.4,79.8,208,80.2L208,80.2z
		"/>
	<path class="st0" d="M226.6,73.5c1.3,0,3.3-0.1,3.5-0.1c0.1,0,0.3,0.1,0.3,0.2c0,0.6,0,1.4,0.1,2.1c0,0.3-0.1,0.6-0.3,0.6
		c-0.2,0-0.4-0.2-0.5-0.7c-0.4-1.1-0.6-1.3-1.3-1.4c-0.7-0.1-2.9-0.1-3.4,0c-0.2,0-0.3,0.2-0.3,0.3c0,0.5-0.1,3.4-0.1,4.8
		c0,0.6,0.1,0.8,0.2,0.8c0.9,0,2.6,0,3.2,0c0.7-0.1,0.9-0.3,1.2-1c0.1-0.3,0.2-0.5,0.4-0.5c0.2,0,0.2,0.2,0.2,0.5
		c0,0.3-0.1,1-0.1,1.4c0,1.1,0,1.3,0,1.7c0,0.2-0.1,0.5-0.3,0.5c-0.1,0-0.2-0.2-0.3-0.5c-0.2-0.8-0.5-0.9-0.9-1.1
		c-0.2,0-1-0.1-1.5-0.1c-0.4,0-1.5,0-1.9,0.1c-0.1,0-0.2,0.2-0.2,0.3c0,0.4,0.1,3.5,0.1,4.1c0,0.7,0.1,1.1,1.5,1.4
		c0.3,0.1,0.5,0.2,0.5,0.4c0,0.1-0.2,0.3-0.6,0.3c-0.6,0-1.3-0.1-2.1-0.1c-0.9,0-2.1,0.1-2.6,0.1c-0.4,0-0.6-0.1-0.6-0.2
		c0-0.2,0.2-0.4,0.6-0.4c1.2-0.3,1.2-0.8,1.3-1.1c0.1-0.7,0.2-2.3,0.2-6.6c0-2.1,0-3.4,0-3.9c0-0.7-0.4-1.1-1.4-1.4
		c-0.4-0.1-0.5-0.2-0.5-0.4c0-0.2,0.3-0.3,0.6-0.3c1,0,1.8,0.1,2.4,0.1H226.6L226.6,73.5z"/>
	<path class="st0" d="M237.1,79.8c0.3,0.5,0.4,0.9,0.4,1.8c0,0.9-0.1,3.6-0.1,3.9c0,1,0.7,1.1,0.9,1.1c0.1,0,0.6-0.2,0.8-0.3
		c0.1,0,0.1,0,0.1,0.1c0.1,0.1,0.1,0.2,0.1,0.2c0,0.4-1,1.4-2,1.4c-0.5,0-1.1-0.3-1.4-1.1c0,0-0.1-0.1-0.1-0.1c-0.8,0.6-1.8,0.9-2,1
		c-0.2,0.1-0.8,0.1-0.9,0.1c-0.8,0-1.5-0.9-1.5-2c0-0.4,0.2-0.8,0.4-1.1c0.2-0.3,0.5-0.4,0.9-0.5c0.3-0.1,2.1-0.6,2.6-0.8
		c0.5-0.2,0.6-0.3,0.6-0.4c0-0.2,0-1.5,0-1.8c0-0.5-0.6-1.5-1.7-1.5c-0.5,0-0.7,0.1-0.9,0.2c-0.1,0.1-0.2,0.5-0.2,0.9
		c0,0.1-0.1,0.2-0.1,0.2c-0.2,0.2-1.3,0.7-1.4,0.7c-0.1,0-0.3-0.2-0.3-0.3c0-0.6,0.6-1.3,1.6-1.9c0.6-0.5,1.6-0.8,2-0.8
		C236.3,78.7,236.8,79.3,237.1,79.8L237.1,79.8z M235.7,86.3c0.1-0.1,0.3-0.5,0.3-0.5c0-0.5,0-1.3,0-1.7c0-0.1-0.1-0.2-0.2-0.2
		c-0.6,0-1.7,0.4-2.3,0.7c-0.2,0.2-0.4,0.3-0.4,0.8c0,1,0.9,1.3,1.4,1.3C234.8,86.7,235.3,86.5,235.7,86.3L235.7,86.3z"/>
	<path class="st0" d="M240.9,79.4c0.8-0.2,1.8-0.7,2.2-0.7c0.1,0,0.2,0.2,0.2,0.2c0,0.2-0.1,3.1-0.1,4.3c0,1.2,0,2.1,0,2.9
		c0,0.7,0.5,0.7,1.1,0.9c0.4,0.1,0.5,0.2,0.5,0.4c0,0.1-0.3,0.2-0.5,0.2c-0.2,0-1.2-0.1-1.7-0.1c-0.7,0-1.5,0.1-1.9,0.1
		c-0.4,0-0.6-0.1-0.6-0.2c0-0.1,0.2-0.2,0.5-0.4c0.5-0.1,0.8-0.4,0.9-0.6c0.1-0.3,0.1-1.6,0.1-2.3c0,0,0-3.2,0-3.4
		c0-0.2-0.3-0.3-0.9-0.8c-0.1-0.1-0.2-0.2-0.2-0.2C240.5,79.6,240.7,79.4,240.9,79.4L240.9,79.4z M243.4,75.3c0,0.6-0.6,1.1-1.1,1.1
		c-0.2,0-0.5-0.1-0.7-0.3c-0.2-0.2-0.3-0.4-0.3-0.8c0-0.2,0.1-0.5,0.3-0.8c0.2-0.2,0.5-0.3,0.9-0.3C243.1,74.3,243.4,75,243.4,75.3
		L243.4,75.3z"/>
	<path class="st0" d="M246.4,79.5c0.7-0.2,1.4-0.6,1.6-0.7c0.3-0.2,0.4-0.3,0.4-0.3c0.1,0,0.2,0.2,0.2,0.3c0,0.4,0,0.8,0,1.2
		c0,0.1,0.1,0.1,0.2,0.1c0.9-0.8,1.8-1.4,2.5-1.4c0.9,0,1.1,0.5,1.1,0.7c0,0-0.1,0.2-0.1,0.3c-0.2,0.3-0.8,0.9-0.9,1
		c0,0-0.2,0-0.3-0.1c-0.2-0.2-0.8-0.5-1.2-0.5c-0.4,0-0.7,0.1-1,0.3c-0.2,0.2-0.2,0.4-0.2,0.5c0,0.4,0.1,4.4,0.1,4.7
		c0,0.6,0.2,1,0.6,1.1c0.3,0.1,0.7,0.2,1,0.3c0.4,0.1,0.4,0.3,0.4,0.4c0,0.1-0.2,0.2-0.5,0.2c-0.5,0-1.3-0.1-2.6-0.1
		c-0.7,0-0.9,0.1-1.4,0.1c-0.2,0-0.5-0.1-0.5-0.3c0-0.1,0.3-0.2,0.4-0.3c0.9-0.3,0.9-0.5,0.9-1.8c0-0.5,0-2.7,0-4.2
		c0-0.2,0-0.5-0.2-0.7c-0.5-0.4-0.7-0.5-0.7-0.6C246.1,79.8,246.1,79.6,246.4,79.5L246.4,79.5z"/>
	<path class="st0" d="M253.6,72.8c1-0.4,1.7-0.5,2.3-0.9c0.1,0,0.2,0.1,0.2,0.2c-0.1,0.5-0.2,3-0.2,6c0,3.2,0,7.4,0.1,8
		c0.1,0.4,0.2,0.7,1.1,1c0.3,0.1,0.5,0.2,0.5,0.3c0,0.2-0.3,0.2-0.6,0.2c-0.5,0-1.5-0.1-1.9-0.1c-0.5,0-1.5,0.1-1.9,0.1
		c-0.4,0-0.6-0.1-0.6-0.2c0-0.2,0.2-0.3,0.5-0.3c1-0.2,1.1-0.6,1.1-1.7c0-0.8,0.2-3.2,0.2-6.7c0-1.6-0.1-3.9-0.1-4.6
		c0-0.2,0-0.3-0.5-0.6c-0.4-0.3-0.4-0.3-0.4-0.4C253.3,73,253.4,72.9,253.6,72.8L253.6,72.8z"/>
	<path class="st0" d="M258.1,79c0.5,0,1.1,0.1,1.7,0.1c0.6,0,1.3,0,1.5,0c0.2,0,0.5,0.1,0.5,0.2c0,0.2-0.2,0.3-0.5,0.4
		c-0.6,0.2-0.7,0.3-0.5,0.9c0.3,1.1,1.7,4.5,1.9,4.7c0,0,0.1,0,0.2-0.1c0.3-0.6,1.6-4.1,1.7-4.5c0.2-0.6,0-0.9-0.8-1.1
		c-0.3-0.1-0.5-0.2-0.5-0.3c0-0.2,0.3-0.3,0.6-0.3c0.4,0,1,0,1.3,0c0.3,0,0.8-0.1,1.4-0.1c0.3,0,0.4,0,0.4,0.2
		c0,0.2-0.2,0.3-0.5,0.4c-0.5,0.2-0.7,0.4-1.1,1.1c-0.7,1.6-1.9,4.6-2.4,5.8c-0.8,2-1.6,4.3-2.3,6.1c-0.1,0.3-0.5,0.6-1.1,0.6
		c-0.7,0-1-0.6-1-1.1c0-0.4,0.4-1,1-1c0.1,0,0.6,0,0.8,0c0.2,0,0.2-0.2,0.3-0.4c0.2-0.4,0.9-2.3,1.1-2.8c0.1-0.3,0.2-0.6,0.1-0.8
		c-0.1-0.2-0.2-0.7-0.3-0.9c-0.5-1.3-1.8-4.5-2.5-5.9c-0.2-0.4-0.3-0.6-1-0.9c-0.3-0.1-0.4-0.2-0.4-0.3
		C257.5,79.1,257.6,79,258.1,79L258.1,79z"/>
</g>
<g>
	<path class="st1" d="M17.3,5.1c17.9,3.7,22.9,13.2,22.9,13.2L58.9,59c0,0-3.8-7.9-19.1-8.1L17.3,5.1L17.3,5.1z"/>
	<path class="st2" d="M59.8,62.4c-0.1-1.4-0.5-2.6-1.1-3.7l0.1,0.3c0,0-3.8-7.9-19.1-8.1l-9.1-18.6C18.8,40,4.1,42.5,4.1,42.5
		l15.8,45C38.7,84.8,61.1,75.5,59.8,62.4L59.8,62.4z"/>
</g>
<path class="st3" d="M75.1,58.4c-6-3.4-12.4-12.1-12.4-23.8c0-4.9,1.3-12.5,7.8-19.9C78,6.1,86.3,4.5,93.4,4.5
	c5.3,0,12.2,1,18.9,6.3c6.1,5,11.5,12.9,11.5,24c0,5.8-1.9,11.9-6.3,17.5c-5.1,6.5-12.6,11.3-24.3,11.3
	C89.1,63.6,81.8,62.3,75.1,58.4z M115.6,35.4c0-17.5-13.1-27.9-22.5-27.9c-1.3,0-7-1-13.3,4.7c-5.6,5.1-8.4,13.2-8.4,19.8
	c0,21.1,15.4,28.5,22.6,28.5C112.5,60.5,115.6,42.5,115.6,35.4z"/>
<path class="st3" d="M144.5,61.9c-5.7-2.2-8.7-5.7-10-10.7c-1-3.6-1.3-9-1.3-19.5V12.6c0-2.8-0.6-4.1-3.2-4.1h-4
	c-0.5,0-0.6-0.2-0.6-0.7V6.1c0-0.5,0.1-0.6,0.8-0.6c0.8,0,5,0.2,11.5,0.2c6.6,0,10.6-0.2,11.5-0.2c0.7,0,0.8,0.2,0.8,0.5V8
	c0,0.4-0.1,0.6-0.7,0.6h-4.2c-2.4,0-3.9,1.5-4,3.3c-0.1,0.7-0.2,6.3-0.2,10.4v5.3c0,4.2,0.3,14.4,0.4,17c0.1,3.7,0.8,7.5,2.7,10.2
	c3.1,4.3,8.5,5.8,13.4,5.8c4.8,0,9.7-1.5,12.6-4.4c3.3-3.4,4.4-8.2,4.4-14.1V24.8c0-6.1-0.2-10.7-0.4-12.7c-0.3-2.1-1.6-3.5-3.8-3.5
	h-3.7c-0.5,0-0.6-0.2-0.6-0.6V6c0-0.4,0.1-0.6,0.6-0.6c0.8,0,4.7,0.2,10.4,0.2c5.8,0,8.5-0.2,9.3-0.2s0.8,0.3,0.8,0.6v1.8
	c0,0.5-0.1,0.8-0.5,0.8H183c-3.1,0-3.4,2.2-3.6,3.2c-0.2,0.8-0.2,12.2-0.2,13.3c0,1.1-0.2,15.1-0.4,18.3c-0.5,6.6-2.4,11.6-7.1,15.5
	c-3.4,3-8.5,4.8-15.8,4.8C151.5,63.6,147.3,63,144.5,61.9z"/>
<path class="st3" d="M228.6,49.6c1.2-1.2,9.6-20.3,10.3-21.4c0.6-1.1,9.8-19.9,10-21.5c0.2-0.9,1.1-1,1.9-1c11.2,0,14.1-0.2,15-0.2
	c0.4,0,0.5,0.2,0.5,0.6v1.8c0,0.5-0.1,0.7-0.7,0.7h-3.7c-2.5,0-2.8,1.4-2.8,3.3c0,2.3-0.3,13.8-0.3,19.1v5.6c0,4,0.3,17,0.3,18.6
	c0,3,0.8,4.3,2.9,4.3h5c0.5,0,0.6,0.2,0.6,0.6v1.8c0,0.5-0.1,0.7-0.8,0.7c-1,0-2.5-0.2-11.8-0.2c-7.8,0-11,0.2-12.1,0.2
	c-0.6,0-0.7-0.2-0.7-0.7v-1.8c0-0.4,0.1-0.6,0.7-0.6h5.7c1.4,0,2.2-0.5,2.4-2.9c0.1-1,0.2-14.9,0.2-20.8v-5.1c0-5.3,0-19.5-0.3-20.3
	h-0.2c-0.8,1-12.8,26.3-13.2,27.1c-0.5,1-9.9,21.4-10.2,22.1c-0.3,0.7-1,1.9-1.7,1.9c-0.5,0-0.9-0.6-1.3-1.4
	c-0.3-0.6-11-25.9-11.5-26.8c-1.6-3.7-9.3-21.6-10.4-22.6c-0.3,1.1-0.5,21.4-0.5,22.4c0,1-0.1,17.9,0.2,20.7
	c0.4,4.6,1.2,5.8,3.9,5.8h4.2c0.5,0,0.6,0.2,0.6,0.6v2c0,0.3-0.1,0.6-0.8,0.6c-0.9,0-3.2-0.2-10.2-0.2c-7.2,0-10.1,0.2-10.9,0.2
	c-0.7,0-0.8-0.1-0.8-0.7V60c0-0.2,0.1-0.5,0.5-0.5h4.5c3.2,0,4-2.1,4.5-4.8c1-5.7,1.3-26.2,1.3-27.6c0-1.1,0-13.2-0.1-15.5
	c-0.1-1.8,0-3-3.5-3h-5.1c-0.5,0-0.6-0.2-0.6-0.6V5.9c0-0.2,0.1-0.5,0.6-0.5c0.8,0,3.1,0.2,10.3,0.2c4,0,6.1-0.2,7.2-0.2
	c1.3,0,1.8,0.3,2.2,1.4L228.6,49.6z"/>
<g>
	<path class="st4" d="M72.9,110.1c-0.8,0-1,0.2-1.1,0.7c-0.1,0.4-0.3,1.1-0.5,2.2l-0.2,0.9c-0.3,1.3-0.6,2.4-1.5,3.2
		c-0.6,0.6-1.4,0.8-2.1,0.8c-0.7,0-1.4-0.2-1.9-0.7c-0.6-0.5-0.8-1.4-0.6-3l0.6-3.1c0.2-0.9,0.1-1-0.8-1.1l0.1-0.3h3l-0.1,0.3
		c-0.9,0.1-1,0.1-1.2,1.1l-0.6,3c-0.4,2.2,0.5,3.1,1.7,3.1c1.5,0,2.3-1.1,2.8-3.4l0.2-0.8c0.2-1.2,0.3-1.8,0.3-2.2
		c0-0.5-0.2-0.6-1.1-0.7l0.1-0.3H73L72.9,110.1z"/>
	<path class="st4" d="M77.8,116.7c-0.7,0.8-1.4,1.2-1.7,1.2c-0.3,0-0.4-0.3-0.2-1.3c0.2-0.9,0.4-1.8,0.7-2.7
		c0.2-0.7,0.1-0.9-0.1-0.9c-0.5,0-2,1.5-2.6,2.6c-0.1,0.6-0.3,1.3-0.5,2.1c-0.3,0.1-0.6,0.2-0.9,0.2l-0.1-0.1c0.3-1.3,0.7-2.8,1-4.2
		c0.1-0.4,0.1-0.5,0-0.5c-0.1,0-0.5,0.3-0.8,0.6l-0.2-0.3c0.7-0.7,1.4-1.2,1.7-1.2c0.3,0,0.3,0.4,0.1,1.4l-0.3,1.1h0
		c0.8-1.1,1.7-1.9,2.3-2.2c0.3-0.2,0.6-0.3,0.8-0.3c0.3,0,0.6,0.2,0.3,1.8c-0.2,0.8-0.4,1.7-0.6,2.5c-0.1,0.3-0.1,0.4,0,0.4
		c0.1,0,0.4-0.2,0.8-0.6L77.8,116.7z"/>
	<path class="st4" d="M84.1,116.6c-0.6,0.8-1.5,1.2-1.8,1.2c-0.2,0-0.4-0.2-0.2-1.1l0.2-1l0,0c-0.6,0.7-1.2,1.3-1.6,1.6
		c-0.5,0.4-0.8,0.6-1.2,0.6c-0.4,0-0.8-0.5-0.8-1.5c0-1.2,0.5-2.5,1.4-3.2c0.6-0.5,1.6-0.9,2.2-0.9c0.2,0,0.4,0,0.7,0.1l0.4-2
		c0.1-0.6,0.1-0.6-0.5-0.6h-0.4l0-0.3c1-0.1,1.7-0.4,1.9-0.4c0.1,0,0.1,0.1,0.1,0.3c-0.6,2.5-1.1,4.8-1.5,7.2c-0.1,0.3,0,0.4,0,0.4
		c0.1,0,0.5-0.3,0.9-0.6L84.1,116.6z M82.4,114.8l0.4-1.8c-0.2-0.2-0.6-0.3-1-0.3c-0.4,0-0.6,0.1-0.9,0.3c-0.8,0.6-1.3,2.1-1.3,3.2
		c0,0.6,0.2,0.9,0.4,0.9C80.6,117.1,82,115.6,82.4,114.8z"/>
	<path class="st4" d="M88.8,116.5c-1.1,1.2-2,1.4-2.6,1.4c-0.6,0-1.3-0.3-1.3-1.8c0-1.2,0.5-2.4,1.5-3.2c0.5-0.4,1.2-0.7,1.7-0.7
		c0.6,0,1.1,0.5,1.1,1c0,1.2-2.1,1.9-3.2,2.2c0,0.1,0,0.3,0,0.4c0,0.7,0.2,1.4,1,1.4c0.5,0,1.2-0.3,1.8-0.9L88.8,116.5z M87,112.9
		c-0.3,0.2-0.9,0.7-1.2,2.1c1.8-0.5,2.3-1,2.3-1.6c0-0.4-0.3-0.7-0.6-0.7C87.4,112.7,87.2,112.8,87,112.9z"/>
	<path class="st4" d="M89.8,113.4c0.6-0.7,1.4-1.2,1.7-1.2c0.3,0,0.3,0.6,0.1,1.4l-0.1,0.6h0c0.6-1.2,1.3-2,1.8-2
		c0.2,0,0.4,0.1,0.5,0.3c0.1,0.2,0.1,0.4,0,0.5c-0.1,0.1-0.2,0.3-0.3,0.4c-0.1,0.1-0.2,0.1-0.3,0c-0.1-0.1-0.3-0.2-0.4-0.2
		c-0.1,0-0.3,0.1-0.6,0.5c-0.3,0.4-0.6,1-0.9,1.5c-0.2,0.8-0.3,1.6-0.5,2.4c-0.3,0-0.6,0.1-0.9,0.2l-0.1-0.1
		c0.3-1.3,0.7-2.8,0.9-4.1c0.1-0.4,0.1-0.5,0-0.5c-0.1,0-0.5,0.2-0.9,0.6L89.8,113.4z"/>
	<path class="st4" d="M99.5,116.6c0.5-0.7,1.7-2.4,1.7-3.2c0-0.3-0.1-0.4-0.1-0.6c0-0.1,0-0.2,0-0.3c0.1-0.2,0.3-0.4,0.5-0.4
		c0.3,0,0.5,0.3,0.5,0.7c0,0.4-0.2,0.8-0.5,1.3c-0.4,0.7-1.9,2.7-2.6,3.7h-0.3c-0.1-1.3-0.2-2.6-0.3-3.8h0c-0.8,1.3-1.7,2.7-2.3,3.8
		h-0.3c0-1.2-0.1-2.8-0.1-3.9c0-0.6-0.1-0.8-0.2-0.8c-0.1,0-0.3,0.1-0.7,0.6l-0.2-0.2c0.5-0.7,1.2-1.3,1.6-1.3
		c0.3,0,0.4,0.4,0.4,1.2c0,1,0,2.1,0,2.9h0c0.7-1.3,1.6-2.6,2.3-3.9h0.3C99.3,113.8,99.4,115.2,99.5,116.6L99.5,116.6z"/>
	<path class="st4" d="M102.9,113.4c0.6-0.7,1.4-1.2,1.7-1.2c0.3,0,0.3,0.6,0.1,1.4l-0.1,0.6h0c0.6-1.2,1.3-2,1.8-2
		c0.2,0,0.4,0.1,0.5,0.3c0.1,0.2,0.1,0.4,0,0.5c-0.1,0.1-0.2,0.3-0.3,0.4c-0.1,0.1-0.2,0.1-0.3,0c-0.1-0.1-0.3-0.2-0.4-0.2
		c-0.1,0-0.3,0.1-0.6,0.5c-0.3,0.4-0.6,1-0.9,1.5c-0.2,0.8-0.3,1.6-0.5,2.4c-0.3,0-0.6,0.1-0.9,0.2l-0.1-0.1
		c0.3-1.3,0.7-2.8,0.9-4.1c0.1-0.4,0.1-0.5,0-0.5c-0.1,0-0.5,0.2-0.9,0.6L102.9,113.4z"/>
	<path class="st4" d="M109.8,116.6c-0.4,0.5-1.4,1.2-1.8,1.2c-0.2,0-0.4-0.2-0.2-1.2l0.8-3.1c0.1-0.3,0.1-0.4,0-0.4
		c-0.1,0-0.5,0.2-0.8,0.5l-0.1-0.3c0.7-0.7,1.5-1.2,1.9-1.2c0.3,0,0.3,0.4,0.1,1l-0.8,3.4c-0.1,0.3,0,0.4,0,0.4
		c0.1,0,0.6-0.3,0.9-0.6L109.8,116.6z M110.1,110.4c0,0.4-0.3,0.7-0.6,0.7c-0.3,0-0.5-0.2-0.5-0.5c0-0.3,0.2-0.7,0.7-0.7
		C109.9,109.9,110.1,110.1,110.1,110.4z"/>
	<path class="st4" d="M113.9,112.8l-1.2,0.1l-0.7,3.4c-0.1,0.6-0.1,0.7,0.1,0.7c0.2,0,0.8-0.4,1.1-0.7l0.2,0.3
		c-0.4,0.5-1.3,1.3-2,1.3c-0.3,0-0.5-0.4-0.3-1.6l0.7-3.4h-0.9l0-0.1l0.3-0.4h0.7l0.3-1.2l0.9-0.8l0.1,0.1l-0.4,1.8h1.4L113.9,112.8
		z"/>
	<path class="st4" d="M117.6,112.8l-1.2,0.1l-0.7,3.4c-0.1,0.6-0.1,0.7,0.1,0.7c0.2,0,0.8-0.4,1.1-0.7l0.2,0.3
		c-0.4,0.5-1.3,1.3-2,1.3c-0.3,0-0.5-0.4-0.3-1.6l0.7-3.4h-0.9l0-0.1l0.3-0.4h0.7l0.3-1.2l0.9-0.8l0.1,0.1l-0.4,1.8h1.4L117.6,112.8
		z"/>
	<path class="st4" d="M121.9,116.5c-1.1,1.2-2,1.4-2.6,1.4c-0.6,0-1.3-0.3-1.3-1.8c0-1.2,0.5-2.4,1.5-3.2c0.5-0.4,1.2-0.7,1.7-0.7
		c0.6,0,1.1,0.5,1.1,1c0,1.2-2.1,1.9-3.2,2.2c0,0.1,0,0.3,0,0.4c0,0.7,0.2,1.4,1,1.4c0.5,0,1.2-0.3,1.8-0.9L121.9,116.5z
		 M120.2,112.9c-0.3,0.2-0.9,0.7-1.2,2.1c1.8-0.5,2.3-1,2.3-1.6c0-0.4-0.3-0.7-0.6-0.7C120.5,112.7,120.3,112.8,120.2,112.9z"/>
	<path class="st4" d="M128.4,116.7c-0.7,0.8-1.4,1.2-1.7,1.2c-0.3,0-0.4-0.3-0.2-1.3c0.2-0.9,0.4-1.8,0.7-2.7
		c0.2-0.7,0.1-0.9-0.1-0.9c-0.5,0-2,1.5-2.6,2.6c-0.1,0.6-0.3,1.3-0.5,2.1c-0.3,0.1-0.6,0.2-0.9,0.2l-0.1-0.1c0.3-1.3,0.7-2.8,1-4.2
		c0.1-0.4,0.1-0.5,0-0.5c-0.1,0-0.5,0.3-0.8,0.6l-0.2-0.3c0.7-0.7,1.4-1.2,1.7-1.2c0.3,0,0.3,0.4,0.1,1.4l-0.3,1.1h0
		c0.8-1.1,1.7-1.9,2.3-2.2c0.3-0.2,0.6-0.3,0.8-0.3c0.3,0,0.6,0.2,0.3,1.8c-0.2,0.8-0.4,1.7-0.6,2.5c-0.1,0.3-0.1,0.4,0,0.4
		c0.1,0,0.4-0.2,0.8-0.6L128.4,116.7z"/>
	<path class="st4" d="M133,109.4c1-0.1,1.6-0.4,1.8-0.4c0.1,0,0.1,0.1,0.1,0.4c-0.4,1.7-0.7,3.1-1.1,4.7h0c1.1-1.3,2.1-1.8,2.7-1.8
		c0.5,0,0.9,0.5,0.9,1.3c0,1.3-0.8,2.9-1.9,3.6c-0.7,0.5-1.4,0.7-1.9,0.7c-0.4,0-0.8-0.2-1-0.5c-0.2-0.3-0.2-0.7-0.1-1.5
		c0.3-1.7,0.8-3.5,1.2-5.5c0.1-0.6,0.1-0.6-0.4-0.6l-0.4,0L133,109.4z M134.9,117.1c0.7-0.4,1.5-1.8,1.5-3.3c0-0.6-0.2-0.9-0.4-0.9
		c-0.4,0-1.4,0.8-2.2,1.9c-0.1,0.2-0.1,0.5-0.2,1c-0.2,1.2,0.3,1.6,0.8,1.6C134.4,117.3,134.7,117.2,134.9,117.1z"/>
	<path class="st4" d="M140.4,116.8c0.5-0.8,1.7-2.5,1.6-3.4c0-0.2-0.1-0.4-0.1-0.6c0-0.1,0-0.2,0-0.3c0.1-0.2,0.3-0.3,0.5-0.3
		c0.3,0,0.5,0.3,0.5,0.7c0,0.3-0.1,0.8-0.4,1.3c-0.5,0.9-1.6,2.5-2.2,3.5c-0.7,1-1.5,2.1-2.2,2.9l-1.3,0.3l-0.1-0.3
		c1.3-0.9,2.3-1.9,2.9-2.7c0-1-0.2-2.9-0.4-4c-0.1-0.6-0.2-0.8-0.3-0.8c-0.1,0-0.4,0.3-0.7,0.7l-0.2-0.3c0.4-0.6,1-1.3,1.4-1.3
		c0.3,0,0.5,0.5,0.6,1.4C140.2,114.6,140.3,115.7,140.4,116.8L140.4,116.8z"/>
	<path class="st4" d="M151.4,116.6c-0.7,0.8-1.5,1.3-1.8,1.3c-0.2,0-0.4-0.2-0.2-1.1l0.2-1.2h0c-0.5,0.7-1.1,1.3-1.6,1.7
		c-0.4,0.3-0.8,0.6-1.1,0.6c-0.3,0-0.7-0.4-0.7-1.4c0-1.2,0.6-2.6,1.5-3.3c0.6-0.5,1.5-0.9,2.3-0.9c0.3,0,0.5,0,0.8,0.1
		c0.2,0,0.3,0.1,0.5,0.1l0,0c-0.2,0.8-0.6,2.4-0.8,4c-0.1,0.4,0,0.5,0,0.5c0.1,0,0.5-0.3,0.9-0.6L151.4,116.6z M149.8,114.7
		c0.1-0.5,0.3-1.4,0.4-1.8c-0.2-0.1-0.5-0.2-0.8-0.2c-0.3,0-0.7,0.1-0.9,0.3c-0.8,0.6-1.3,2.1-1.3,3.3c0,0.6,0.2,0.8,0.3,0.8
		C148,117.1,149.4,115.5,149.8,114.7z"/>
	<path class="st4" d="M158.9,109.8c1.7,0,2.6,0.7,2.6,2.1c0,1.8-1.6,2.6-2.9,2.7c-0.2,0-0.3,0-0.5,0l-0.8-0.3l-0.4,1.9
		c-0.2,1-0.1,1.1,1,1.2l-0.1,0.3h-3.2l0.1-0.3c0.9-0.1,1-0.2,1.2-1.2l1-5c0.2-1,0.1-1-0.8-1.1l0.1-0.3H158.9z M157.4,113.9
		c0.2,0.1,0.5,0.2,0.9,0.2c0.9,0,2.1-0.6,2.1-2.2c0-1-0.6-1.6-1.6-1.6c-0.2,0-0.4,0-0.5,0.1c-0.1,0.1-0.2,0.2-0.3,0.6L157.4,113.9z"
		/>
	<path class="st4" d="M161.8,113.4c0.6-0.7,1.4-1.2,1.7-1.2c0.3,0,0.3,0.6,0.1,1.4l-0.1,0.6h0c0.6-1.2,1.3-2,1.8-2
		c0.2,0,0.4,0.1,0.5,0.3c0.1,0.2,0.1,0.4,0,0.5c-0.1,0.1-0.2,0.3-0.3,0.4c-0.1,0.1-0.2,0.1-0.3,0c-0.1-0.1-0.3-0.2-0.4-0.2
		c-0.1,0-0.3,0.1-0.6,0.5c-0.3,0.4-0.6,1-0.9,1.5c-0.2,0.8-0.3,1.6-0.5,2.4c-0.3,0-0.6,0.1-0.9,0.2l-0.1-0.1
		c0.3-1.3,0.7-2.8,0.9-4.1c0.1-0.4,0.1-0.5,0-0.5c-0.1,0-0.5,0.2-0.9,0.6L161.8,113.4z"/>
	<path class="st4" d="M166.1,116c0-1.6,0.8-2.8,1.9-3.3c0.4-0.2,0.9-0.4,1.3-0.4c1,0,1.6,0.7,1.6,1.9c0,1.1-0.5,2.3-1.3,3
		c-0.5,0.4-1.2,0.8-1.9,0.8C166.5,117.9,166.1,117,166.1,116z M168.5,117.3c0.7-0.3,1.3-1.6,1.3-3.1c0-1-0.4-1.5-1-1.5
		c-0.2,0-0.3,0-0.5,0.1c-0.5,0.2-1.3,1.2-1.3,3.1c0,0.9,0.4,1.5,1,1.5C168.3,117.4,168.4,117.4,168.5,117.3z"/>
	<path class="st4" d="M178.8,117.7h-2.9l0.1-0.3c0.8-0.1,0.9-0.2,0.8-0.7c-0.1-0.5-0.2-1.1-0.3-1.8h-2.6c-0.2,0.4-0.6,1.1-0.9,1.7
		c-0.4,0.7-0.3,0.8,0.7,0.9l-0.1,0.3H171l0.1-0.3c0.7-0.1,0.9-0.2,1.4-1.2l3.7-6.5l0.4-0.1l0.3,2.2c0.2,1.6,0.5,3.1,0.8,4.6
		c0.1,0.9,0.2,1,1.1,1.1L178.8,117.7z M175.9,111.1L175.9,111.1c-0.6,1.1-1.2,2.1-1.7,3.2h2.2L175.9,111.1z"/>
	<path class="st4" d="M179.4,117c0-0.2,0.1-0.4,0.4-0.5c0.1-0.1,0.2,0,0.3,0c0.3,0.5,0.8,0.7,1.2,0.7c0.5,0,0.8-0.3,0.8-0.7
		c0-0.3-0.1-0.6-0.7-1c-0.6-0.4-1.1-0.9-1.1-1.5c0-0.4,0.1-0.8,0.6-1.2c0.4-0.3,1-0.6,1.4-0.6c0.5,0,1,0.4,1,0.7
		c0,0.2-0.1,0.4-0.3,0.5c-0.1,0.1-0.2,0-0.3,0c-0.2-0.3-0.5-0.6-1-0.6c-0.4,0-0.7,0.3-0.7,0.7c0,0.4,0.4,0.7,0.8,1.1
		c0.7,0.6,1,0.9,1,1.4c0,0.9-1.2,1.9-2.2,1.9C180.1,117.9,179.4,117.4,179.4,117z"/>
	<path class="st4" d="M183.4,117c0-0.2,0.1-0.4,0.4-0.5c0.1-0.1,0.2,0,0.3,0c0.3,0.5,0.8,0.7,1.2,0.7c0.5,0,0.8-0.3,0.8-0.7
		c0-0.3-0.1-0.6-0.7-1c-0.6-0.4-1.1-0.9-1.1-1.5c0-0.4,0.1-0.8,0.6-1.2c0.4-0.3,1-0.6,1.4-0.6c0.5,0,1,0.4,1,0.7
		c0,0.2-0.1,0.4-0.3,0.5c-0.1,0.1-0.2,0-0.3,0c-0.2-0.3-0.5-0.6-1-0.6c-0.4,0-0.7,0.3-0.7,0.7c0,0.4,0.4,0.7,0.8,1.1
		c0.7,0.6,1,0.9,1,1.4c0,0.9-1.2,1.9-2.2,1.9C184.1,117.9,183.4,117.4,183.4,117z"/>
	<path class="st4" d="M193.5,116.6c-0.6,0.7-1.4,1.2-1.8,1.2c-0.3,0-0.4-0.2-0.2-1.3c0.1-0.4,0.1-0.7,0.2-1.1h0
		c-0.6,0.8-1.3,1.5-2,2c-0.3,0.2-0.7,0.4-1,0.4c-0.3,0-0.7-0.2-0.4-1.6c0.2-0.9,0.4-1.9,0.7-2.8c0.1-0.3,0.1-0.4,0-0.4
		c-0.1,0-0.4,0.2-0.9,0.6l-0.1-0.3c0.7-0.7,1.5-1.2,1.8-1.2c0.3,0,0.3,0.2,0.1,1.1c-0.2,1-0.4,2-0.7,2.9c-0.1,0.6,0,0.8,0.1,0.8
		c0.7,0,2.1-1.6,2.5-2.5c0.1-0.6,0.3-1.2,0.4-2l0.8-0.3h0.1c-0.3,1.3-0.6,2.7-1,4.3c-0.1,0.4,0,0.5,0,0.5c0.1,0,0.6-0.3,0.9-0.6
		L193.5,116.6z"/>
	<path class="st4" d="M194.2,113.4c0.6-0.7,1.4-1.2,1.7-1.2c0.3,0,0.3,0.6,0.1,1.4l-0.1,0.6h0c0.6-1.2,1.3-2,1.8-2
		c0.2,0,0.4,0.1,0.5,0.3c0.1,0.2,0.1,0.4,0,0.5c-0.1,0.1-0.2,0.3-0.3,0.4c-0.1,0.1-0.2,0.1-0.3,0c-0.1-0.1-0.3-0.2-0.4-0.2
		c-0.1,0-0.3,0.1-0.6,0.5c-0.3,0.4-0.6,1-0.9,1.5c-0.2,0.8-0.3,1.6-0.5,2.4c-0.3,0-0.6,0.1-0.9,0.2l-0.1-0.1
		c0.3-1.3,0.7-2.8,0.9-4.1c0.1-0.4,0.1-0.5,0-0.5c-0.1,0-0.5,0.2-0.9,0.6L194.2,113.4z"/>
	<path class="st4" d="M203.6,116.6c-0.7,0.8-1.5,1.3-1.8,1.3c-0.2,0-0.4-0.2-0.2-1.1l0.2-1.2h0c-0.5,0.7-1.1,1.3-1.6,1.7
		c-0.4,0.3-0.8,0.6-1.1,0.6c-0.3,0-0.7-0.4-0.7-1.4c0-1.2,0.6-2.6,1.5-3.3c0.6-0.5,1.5-0.9,2.3-0.9c0.3,0,0.5,0,0.8,0.1
		c0.2,0,0.3,0.1,0.5,0.1l0,0c-0.2,0.8-0.6,2.4-0.8,4c-0.1,0.4,0,0.5,0,0.5c0.1,0,0.5-0.3,0.9-0.6L203.6,116.6z M202,114.7
		c0.1-0.5,0.3-1.4,0.4-1.8c-0.2-0.1-0.5-0.2-0.8-0.2c-0.3,0-0.7,0.1-0.9,0.3c-0.8,0.6-1.3,2.1-1.3,3.3c0,0.6,0.2,0.8,0.3,0.8
		C200.2,117.1,201.6,115.5,202,114.7z"/>
	<path class="st4" d="M209.8,116.7c-0.7,0.8-1.4,1.2-1.7,1.2c-0.3,0-0.4-0.3-0.2-1.3c0.2-0.9,0.4-1.8,0.7-2.7
		c0.2-0.7,0.1-0.9-0.1-0.9c-0.5,0-2,1.5-2.6,2.6c-0.1,0.6-0.3,1.3-0.5,2.1c-0.3,0.1-0.6,0.2-0.9,0.2l-0.1-0.1c0.3-1.3,0.7-2.8,1-4.2
		c0.1-0.4,0.1-0.5,0-0.5c-0.1,0-0.5,0.3-0.8,0.6l-0.2-0.3c0.7-0.7,1.4-1.2,1.7-1.2c0.3,0,0.3,0.4,0.1,1.4l-0.3,1.1h0
		c0.8-1.1,1.7-1.9,2.3-2.2c0.3-0.2,0.6-0.3,0.8-0.3c0.3,0,0.6,0.2,0.3,1.8c-0.2,0.8-0.4,1.7-0.6,2.5c-0.1,0.3-0.1,0.4,0,0.4
		c0.1,0,0.4-0.2,0.8-0.6L209.8,116.7z"/>
	<path class="st4" d="M214.4,116.5c-0.8,0.9-1.7,1.4-2.5,1.4c-0.8,0-1.3-0.6-1.3-1.8c0-1,0.5-2.2,1.3-2.9c0.5-0.4,1.4-0.9,2-0.9
		c0.5,0,0.9,0.3,0.9,0.6c0,0.2-0.1,0.4-0.4,0.6c-0.1,0.1-0.2,0-0.3-0.1c-0.3-0.4-0.5-0.5-0.9-0.5c-0.4,0-0.8,0.4-1,0.8
		c-0.3,0.6-0.5,1.4-0.5,2.2c0,0.9,0.3,1.3,0.9,1.3c0.6,0,1.4-0.6,1.7-0.9L214.4,116.5z"/>
	<path class="st4" d="M219.2,116.5c-1.1,1.2-2,1.4-2.6,1.4c-0.6,0-1.3-0.3-1.3-1.8c0-1.2,0.5-2.4,1.5-3.2c0.5-0.4,1.2-0.7,1.7-0.7
		c0.6,0,1.1,0.5,1.1,1c0,1.2-2.1,1.9-3.2,2.2c0,0.1,0,0.3,0,0.4c0,0.7,0.2,1.4,1,1.4c0.5,0,1.2-0.3,1.8-0.9L219.2,116.5z
		 M217.5,112.9c-0.3,0.2-0.9,0.7-1.2,2.1c1.8-0.5,2.3-1,2.3-1.6c0-0.4-0.3-0.7-0.6-0.7C217.8,112.7,217.6,112.8,217.5,112.9z"/>
	<path class="st4" d="M229.9,115.8c-0.2,0.5-0.7,1.5-1,1.9c-0.4,0.1-1.2,0.3-2.1,0.3c-2,0-3.6-1.2-3.6-3.5c0-2.9,2.3-4.8,5.1-4.8
		c1,0,1.8,0.3,2.1,0.4c0,0.6,0,1.3-0.1,1.9l-0.4,0c-0.1-1.5-0.7-1.9-1.9-1.9c-2.2,0-3.6,2.1-3.6,4.3c0,1.8,0.9,3.1,2.5,3.1
		c1.2,0,1.9-0.8,2.6-1.9L229.9,115.8z"/>
	<path class="st4" d="M230.8,116c0-1.6,0.8-2.8,1.9-3.3c0.4-0.2,0.9-0.4,1.3-0.4c1,0,1.6,0.7,1.6,1.9c0,1.1-0.5,2.3-1.3,3
		c-0.5,0.4-1.2,0.8-1.9,0.8C231.3,117.9,230.8,117,230.8,116z M233.3,117.3c0.7-0.3,1.3-1.6,1.3-3.1c0-1-0.4-1.5-1-1.5
		c-0.2,0-0.3,0-0.5,0.1c-0.5,0.2-1.3,1.2-1.3,3.1c0,0.9,0.4,1.5,1,1.5C233,117.4,233.1,117.4,233.3,117.3z"/>
	<path class="st4" d="M245,116.7c-0.6,0.7-1.4,1.2-1.7,1.2s-0.4-0.4-0.2-1.3l0.7-2.8c0.1-0.6,0.1-0.8-0.1-0.8
		c-0.6,0-2.1,1.7-2.5,2.6c-0.1,0.6-0.3,1.4-0.5,2.1c-0.3,0-0.6,0.1-0.9,0.2l-0.1-0.1c0.3-1.2,0.6-2.5,0.9-3.7
		c0.2-0.8,0.2-1.1-0.1-1.1c-0.6,0-2.1,1.8-2.5,2.6c-0.2,0.6-0.3,1.4-0.5,2.1c-0.3,0-0.6,0.1-0.9,0.2l-0.1-0.1c0.4-1.4,0.7-2.8,1-4.2
		c0.1-0.4,0.1-0.5,0-0.5c-0.1,0-0.6,0.3-0.8,0.6l-0.1-0.3c0.7-0.7,1.4-1.2,1.7-1.2c0.3,0,0.4,0.5,0.1,1.5l-0.2,0.9h0
		c0.8-1.2,1.7-1.8,2.2-2.1c0.3-0.2,0.5-0.2,0.8-0.2c0.3,0,0.6,0.3,0.3,1.9l-0.1,0.5h0c0.8-1.2,1.7-1.8,2.2-2.1
		c0.3-0.2,0.5-0.2,0.7-0.2c0.2,0,0.6,0.1,0.3,1.8l-0.6,2.6c-0.1,0.3,0,0.4,0,0.4c0.1,0,0.5-0.2,0.8-0.6L245,116.7z"/>
	<path class="st4" d="M248,112.4c0.3-0.1,0.8-0.1,1.1-0.1c1.3,0,1.8,0.6,1.8,1.7c0,0.8-0.3,1.7-1,2.5c-0.6,0.7-1.5,1.2-2.3,1.4
		c-0.2,0-0.5,0-0.7-0.1l-0.3,1.7c-0.1,0.7-0.1,0.8,0.5,0.9l0.3,0l0,0.3l-2.8,0.1l0-0.3c0.8-0.1,0.9-0.2,1.1-1
		c0.5-2.1,0.9-4.3,1.4-6.4c-0.4,0.1-0.7,0.3-1,0.4l-0.1-0.3c0.3-0.2,0.8-0.5,1.2-0.6l0.1-0.6c0.2-0.3,0.6-0.6,0.9-0.7l0.1,0.1
		L248,112.4z M247.1,116.9c0.1,0.2,0.5,0.4,0.8,0.4c0.9,0,2.1-1.7,2.1-3.2c0-1.1-0.6-1.4-1.3-1.4c-0.2,0-0.5,0-0.7,0.1L247.1,116.9z
		"/>
	<path class="st4" d="M256.9,116.6c-0.7,0.8-1.5,1.3-1.8,1.3c-0.2,0-0.4-0.2-0.2-1.1l0.2-1.2h0c-0.5,0.7-1.1,1.3-1.6,1.7
		c-0.4,0.3-0.8,0.6-1.1,0.6c-0.3,0-0.7-0.4-0.7-1.4c0-1.2,0.6-2.6,1.5-3.3c0.6-0.5,1.5-0.9,2.3-0.9c0.3,0,0.5,0,0.8,0.1
		c0.2,0,0.3,0.1,0.5,0.1l0,0c-0.2,0.8-0.6,2.4-0.8,4c-0.1,0.4,0,0.5,0,0.5c0.1,0,0.5-0.3,0.9-0.6L256.9,116.6z M255.3,114.7
		c0.1-0.5,0.3-1.4,0.4-1.8c-0.2-0.1-0.5-0.2-0.8-0.2c-0.3,0-0.7,0.1-0.9,0.3c-0.8,0.6-1.3,2.1-1.3,3.3c0,0.6,0.2,0.8,0.3,0.8
		C253.5,117.1,254.9,115.5,255.3,114.7z"/>
	<path class="st4" d="M263.1,116.7c-0.7,0.8-1.4,1.2-1.7,1.2c-0.3,0-0.4-0.3-0.2-1.3c0.2-0.9,0.4-1.8,0.7-2.7
		c0.2-0.7,0.1-0.9-0.1-0.9c-0.5,0-2,1.5-2.6,2.6c-0.1,0.6-0.3,1.3-0.5,2.1c-0.3,0.1-0.6,0.2-0.9,0.2l-0.1-0.1c0.3-1.3,0.7-2.8,1-4.2
		c0.1-0.4,0.1-0.5,0-0.5c-0.1,0-0.5,0.3-0.8,0.6l-0.2-0.3c0.7-0.7,1.4-1.2,1.7-1.2c0.3,0,0.3,0.4,0.1,1.4l-0.3,1.1h0
		c0.8-1.1,1.7-1.9,2.3-2.2c0.3-0.2,0.6-0.3,0.8-0.3c0.3,0,0.6,0.2,0.3,1.8c-0.2,0.8-0.4,1.7-0.6,2.5c-0.1,0.3-0.1,0.4,0,0.4
		c0.1,0,0.4-0.2,0.8-0.6L263.1,116.7z"/>
	<path class="st4" d="M266.2,116.8c0.5-0.8,1.7-2.5,1.6-3.4c0-0.2-0.1-0.4-0.1-0.6c0-0.1,0-0.2,0-0.3c0.1-0.2,0.3-0.3,0.5-0.3
		c0.3,0,0.5,0.3,0.5,0.7c0,0.3-0.1,0.8-0.4,1.3c-0.5,0.9-1.6,2.5-2.2,3.5c-0.7,1-1.5,2.1-2.2,2.9l-1.3,0.3l-0.1-0.3
		c1.3-0.9,2.3-1.9,2.9-2.7c0-1-0.2-2.9-0.4-4c-0.1-0.6-0.2-0.8-0.3-0.8c-0.1,0-0.4,0.3-0.7,0.7l-0.2-0.3c0.4-0.6,1-1.3,1.4-1.3
		c0.3,0,0.5,0.5,0.6,1.4C266,114.6,266.1,115.7,266.2,116.8L266.2,116.8z"/>
</g>
<rect class="st5" width="272" height="123.3"/>
</svg>
