<svg xmlns="http://www.w3.org/2000/svg" viewBox="0 0 151.5 69.55"><title>PICA-Logo</title><path d="M91.53,41.11a1.49,1.49,0,0,0,.87-.23c.09-.05.12-.08.17-.08s.12.12.06.3a6.5,6.5,0,0,0-.28,1.46c0,.11-.12.24-.22.24s-.14-.09-.18-.41c-.08-.67-.24-.73-1-.77-.21,0-1.63,0-1.78,0s-.12.14-.12.16v3.13c0,1.49,0,2.7,0,3.17s.13.73.92.91c.17,0,.35.14.35.23s-.23.16-.36.16-.89-.07-1.46-.07-1.29.09-1.45.09-.39-.07-.39-.15.13-.19.25-.22c.89-.2.92-.42,1-1.38,0-.75.09-3.36.09-4.35V41.81c0-.1-.06-.16-.1-.16-.26,0-1.38-.07-1.58-.07a1.13,1.13,0,0,0-1,.3,2.52,2.52,0,0,0-.42.66c-.12.27-.19.26-.24.26s-.13-.17-.13-.3a12.66,12.66,0,0,0,.24-1.68.25.25,0,0,1,.19-.21c.07,0,.07.09.21.21a.77.77,0,0,0,.43.24c.33,0,1.35.08,3,.08l2.93,0" style="fill:#808184"/><path d="M91.92,44.63a7.48,7.48,0,0,0,1-.41c.15-.11.22-.16.26-.16s.11.12.11.16c0,.23,0,.46,0,.7,0,0,.07.06.09,0a2.53,2.53,0,0,1,1.46-.79c.52,0,.64.32.64.43a.52.52,0,0,1-.08.18,3.36,3.36,0,0,1-.52.59.31.31,0,0,1-.18,0,1.2,1.2,0,0,0-.7-.28.77.77,0,0,0-.57.18.46.46,0,0,0-.12.28c0,.26.06,2.57.07,2.76,0,.37.1.61.34.65l.58.16c.21.06.23.15.23.2s-.11.12-.3.12-.77-.07-1.51-.07c-.38,0-.54,0-.85,0-.14,0-.26,0-.26-.15s.15-.13.25-.17c.5-.16.54-.29.55-1.06V45.57a.4.4,0,0,0-.14-.38c-.31-.25-.43-.3-.43-.35a.23.23,0,0,1,.16-.21" style="fill:#808184"/><path d="M99.58,44.68a1.41,1.41,0,0,1,.44,1.07.26.26,0,0,1-.24.22H96.87s-.09.06-.1.1a1.57,1.57,0,0,0-.07.45A2.63,2.63,0,0,0,97.19,48a1.81,1.81,0,0,0,1.43.7,1.29,1.29,0,0,0,1.16-.46c0-.07.12-.15.17-.15s.1.09.1.15a.67.67,0,0,1-.09.31,2.18,2.18,0,0,1-1.85,1,2.31,2.31,0,0,1-2.3-2.54,2.61,2.61,0,0,1,2.5-2.74,1.85,1.85,0,0,1,1.27.49m-2.69.79c0,.06,0,.14.06.14h1.64c.31,0,.44-.06.44-.32a.87.87,0,0,0-.85-.77,1.39,1.39,0,0,0-1.29.95" style="fill:#808184"/><path d="M104.14,44.78a1.61,1.61,0,0,1,.25,1.06c0,.5,0,2.11,0,2.25,0,.59.41.64.51.64a1.41,1.41,0,0,0,.49-.19s0,0,.08,0a.21.21,0,0,1,0,.12,1.29,1.29,0,0,1-1.15.8.85.85,0,0,1-.81-.64s0-.07-.08,0a4.53,4.53,0,0,1-1.15.58,2.37,2.37,0,0,1-.51.08c-.45,0-.88-.55-.88-1.19a1.1,1.1,0,0,1,.24-.65,1.23,1.23,0,0,1,.51-.32c.19-.08,1.21-.36,1.5-.45s.37-.15.37-.23,0-.89,0-1.05a1,1,0,0,0-1-.85.86.86,0,0,0-.53.14c-.07,0-.11.27-.09.52a.31.31,0,0,1-.07.14A4.42,4.42,0,0,1,101,46c-.08,0-.16-.11-.16-.17,0-.37.36-.73,1-1.13a2.84,2.84,0,0,1,1.19-.48,1.29,1.29,0,0,1,1.15.6m-.85,3.81a.73.73,0,0,0,.16-.32c0-.31,0-.74,0-1a.12.12,0,0,0-.1-.1,3.92,3.92,0,0,0-1.31.38.5.5,0,0,0-.26.49.81.81,0,0,0,.81.77,1.58,1.58,0,0,0,.68-.22" style="fill:#808184"/><path d="M109,44.31s.14.06.14.1a4.21,4.21,0,0,1,0,.48c0,.12-.25.14-.33.14h-1.4a.13.13,0,0,0-.11.09c0,.26,0,2.14,0,2.75a.8.8,0,0,0,.22.63,1.05,1.05,0,0,0,.78.24,1.43,1.43,0,0,0,.62-.19c.12-.06.15-.08.2-.08s.07,0,.07.14a.51.51,0,0,1-.17.32,1.91,1.91,0,0,1-1.37.57,1.34,1.34,0,0,1-1.13-.61,1.49,1.49,0,0,1-.16-.84c0-.47,0-2.39,0-2.84,0-.09-.23-.18-.49-.25-.1,0-.18-.1-.18-.14a.23.23,0,0,1,.08-.14,9.37,9.37,0,0,0,1-.88c.16-.18.24-.29.3-.29s.18.12.18.14v.6s.05.11.1.11l1.57,0" style="fill:#808184"/><path d="M113.63,44.68a1.41,1.41,0,0,1,.45,1.07.26.26,0,0,1-.24.22h-2.92s-.09.06-.1.1a1.58,1.58,0,0,0-.06.45,2.62,2.62,0,0,0,.48,1.45,1.82,1.82,0,0,0,1.43.7,1.3,1.3,0,0,0,1.17-.46c0-.07.11-.15.16-.15s.1.09.1.15a.82.82,0,0,1-.08.31,2.2,2.2,0,0,1-1.86,1,2.31,2.31,0,0,1-2.3-2.54,2.62,2.62,0,0,1,2.51-2.74,1.85,1.85,0,0,1,1.26.49m-2.68.79c0,.06,0,.14,0,.14h1.65c.31,0,.43-.06.43-.32a.86.86,0,0,0-.84-.77,1.38,1.38,0,0,0-1.29.95" style="fill:#808184"/><path d="M118.82,44.23c.05,0,.09-.08.1-.14a20.63,20.63,0,0,0,0-2.61c0-.06,0-.22-.6-.52-.12-.07-.13-.09-.13-.12a.38.38,0,0,1,.22-.21,8,8,0,0,0,1.3-.36.45.45,0,0,1,.17,0s.11.09.1.2a50.31,50.31,0,0,0-.11,5c0,2.58,0,2.67,0,2.92,0,.47.12.52.2.52s.56-.09.69-.1.07.06.07.07a.48.48,0,0,1-.22.32,9.36,9.36,0,0,0-1.14.26,1.94,1.94,0,0,1-.47.13s-.14-.1-.14-.17,0-.34,0-.52a.09.09,0,0,0-.08-.08,2.45,2.45,0,0,1-1.66.64,2.26,2.26,0,0,1-1.6-.7A2.72,2.72,0,0,1,115,47a2.66,2.66,0,0,1,1.35-2.36,3.81,3.81,0,0,1,1.69-.48,4.26,4.26,0,0,1,.82,0m-2.29.82a2.54,2.54,0,0,0-.53,1.61,2.09,2.09,0,0,0,1.81,2.2,1.5,1.5,0,0,0,.93-.31,2.1,2.1,0,0,0,.21-.84c0-.82,0-1.52,0-2.13a1.07,1.07,0,0,0-.28-.48,1.72,1.72,0,0,0-1.1-.5,1.46,1.46,0,0,0-1,.45" style="fill:#808184"/><path d="M127.38,41.12c.77,0,1.94,0,2.05,0a.13.13,0,0,1,.15.12,10.84,10.84,0,0,0,0,1.25c0,.17-.07.35-.18.35s-.21-.14-.28-.39c-.21-.63-.35-.75-.77-.81a16.8,16.8,0,0,0-2,0,.24.24,0,0,0-.2.17c0,.31-.06,2-.06,2.82,0,.35.07.48.13.48.5,0,1.54,0,1.84,0s.51-.15.69-.58c.08-.18.13-.31.25-.31s.11.13.11.28-.06.58-.06.81c0,.61,0,.73,0,1s-.06.29-.19.29-.14-.09-.19-.27c-.13-.48-.28-.55-.53-.61a6.18,6.18,0,0,0-.85-.07,10.86,10.86,0,0,0-1.13,0s-.09.1-.1.16c0,.24,0,2,0,2.4s0,.65.87.81c.19,0,.31.12.31.24s-.12.15-.36.15-.73,0-1.21,0-1.26.08-1.52.08-.36-.05-.36-.13.14-.2.34-.26c.69-.16.72-.45.73-.62,0-.4.1-1.34.1-3.87,0-1.21,0-2,0-2.29s-.25-.65-.81-.79c-.25-.07-.32-.13-.32-.22s.16-.15.36-.15c.56,0,1,0,1.42,0Z" style="fill:#808184"/><path d="M133.53,44.78a1.61,1.61,0,0,1,.25,1.06c0,.5-.05,2.11-.05,2.25,0,.59.41.64.51.64a1.48,1.48,0,0,0,.49-.19s.05,0,.08,0a.21.21,0,0,1,0,.12,1.29,1.29,0,0,1-1.15.8.85.85,0,0,1-.81-.64s-.06-.07-.08,0a4.53,4.53,0,0,1-1.15.58,2.37,2.37,0,0,1-.51.08c-.45,0-.88-.55-.88-1.19a1.1,1.1,0,0,1,.24-.65,1.23,1.23,0,0,1,.51-.32c.19-.08,1.21-.36,1.5-.45s.37-.15.37-.23,0-.89,0-1.05a1,1,0,0,0-1-.85.85.85,0,0,0-.52.14c-.08,0-.12.27-.09.52a.25.25,0,0,1-.08.14,3.89,3.89,0,0,1-.83.43c-.07,0-.15-.11-.15-.17,0-.37.36-.73,1-1.13a2.79,2.79,0,0,1,1.19-.48,1.29,1.29,0,0,1,1.15.6m-.85,3.81a.73.73,0,0,0,.16-.32c0-.31,0-.74,0-1a.12.12,0,0,0-.1-.1,4,4,0,0,0-1.32.38.51.51,0,0,0-.25.49.8.8,0,0,0,.8.77,1.58,1.58,0,0,0,.69-.22" style="fill:#808184"/><path d="M135.72,44.56a12.79,12.79,0,0,0,1.27-.43s.11.12.11.14-.07,1.8-.07,2.53,0,1.25,0,1.7.3.43.62.53.28.13.28.22-.15.13-.3.13-.72,0-1,0-.87,0-1.09,0-.33,0-.33-.14.09-.14.3-.2.49-.23.52-.36a12.09,12.09,0,0,0,.05-1.32s0-1.84,0-2-.16-.19-.53-.46c-.08-.05-.1-.09-.1-.14s.11-.19.25-.22m1.47-2.35a.67.67,0,0,1-.61.63.71.71,0,0,1-.41-.16.66.66,0,0,1-.19-.47.89.89,0,0,1,.15-.46.8.8,0,0,1,.5-.17c.35,0,.56.4.56.63" style="fill:#808184"/><path d="M138.92,44.63a7.15,7.15,0,0,0,.94-.41c.16-.11.22-.16.26-.16s.11.12.11.16c0,.23,0,.46,0,.7,0,0,.06.06.09,0a2.53,2.53,0,0,1,1.46-.79c.52,0,.64.32.64.43a.52.52,0,0,1-.08.18,3,3,0,0,1-.53.59.28.28,0,0,1-.17,0,1.23,1.23,0,0,0-.71-.28.75.75,0,0,0-.56.18.49.49,0,0,0-.13.28c0,.26.06,2.57.08,2.76,0,.37.1.61.33.65l.59.16c.2.06.23.15.23.2s-.12.12-.31.12-.77-.07-1.51-.07c-.38,0-.53,0-.84,0-.14,0-.27,0-.27-.15s.16-.13.26-.17c.5-.16.54-.29.55-1.06V45.57a.4.4,0,0,0-.14-.38c-.31-.25-.44-.3-.44-.35a.24.24,0,0,1,.17-.21" style="fill:#808184"/><path d="M143.12,40.73a7,7,0,0,0,1.32-.5s.11.08.11.13c0,.32-.11,1.76-.11,3.47,0,1.87,0,4.31,0,4.66s.1.4.65.56c.19.05.29.11.29.19s-.18.14-.33.14c-.31,0-.86,0-1.09,0s-.85,0-1.12,0-.36,0-.36-.14.14-.15.28-.18c.59-.13.62-.36.65-1,0-.48.09-1.86.09-3.88,0-1,0-2.29,0-2.67,0-.11,0-.18-.31-.36s-.26-.19-.26-.24,0-.14.18-.18" style="fill:#808184"/><path d="M145.73,44.32c.32,0,.63,0,1,0s.74,0,.89,0,.28,0,.28.14-.09.17-.29.22c-.36.1-.4.17-.27.5.19.61,1,2.61,1.11,2.76s.06,0,.1-.05c.16-.35.95-2.4,1-2.61s0-.51-.48-.62c-.16,0-.27-.13-.27-.18s.17-.16.32-.16l.75,0c.18,0,.48,0,.81,0,.16,0,.25,0,.25.11s-.12.17-.28.22-.43.24-.62.67c-.43,1-1.12,2.65-1.41,3.4-.45,1.16-.92,2.48-1.33,3.56a.66.66,0,0,1-.66.36.58.58,0,0,1-.58-.63.59.59,0,0,1,.56-.56h.46c.12,0,.14-.09.19-.21a15.5,15.5,0,0,0,.62-1.65.85.85,0,0,0,0-.46c0-.09-.14-.38-.2-.53-.26-.75-1-2.64-1.45-3.45a.81.81,0,0,0-.6-.5c-.18-.06-.26-.11-.26-.19s0-.15.31-.15" style="fill:#808184"/><path d="M7.73,1.28C18.14,3.42,21.06,9,21.06,9L32,32.71S29.76,28.08,20.84,28Z" style="fill:#54b848"/><path d="M32.48,34.66a5.74,5.74,0,0,0-.61-2.14l.08.19S29.76,28.08,20.84,28L15.52,17.17A48,48,0,0,1,0,23.08L9.19,49.29c11-1.57,24-7,23.29-14.63" style="fill:#00703c"/><path d="M46.4,22c0,2.17,0,8.45.09,9.1a1.43,1.43,0,0,0,1.62,1.48h3.15c.34,0,.39.13.39.32V34c0,.23,0,.37-.44.37-.69,0-2.21-.14-6.83-.14-4.32,0-6.23.14-6.77.14-.35,0-.4-.14-.4-.33V32.93c0-.23,0-.32.3-.32h2.11c1.67,0,2-.23,2.16-1.48,0-.46.2-7.67.2-13V12.79c0-3,0-8.08-.1-8.54-.1-.92-.59-1-1.92-1h-2.8c-.24,0-.29-.09-.29-.37V1.75c0-.23.05-.32.29-.32.54,0,2.31.14,7,.14.88,0,3.78-.14,5.4-.14,5.55,0,8.15.51,11,2.31a8.07,8.07,0,0,1,3.73,6.7c0,5.82-4.67,9.42-12.47,9.42a50.13,50.13,0,0,1-5.35-.23Zm0-4.06a19,19,0,0,0,4.51.41,9.18,9.18,0,0,0,6.93-3.14,7.2,7.2,0,0,0,1.27-4.66c0-6-6-7.67-8.88-7.67a16.07,16.07,0,0,0-3.83.32Z" style="fill:#58595b"/><path d="M72.51,14.92c0-1.11-.14-9.42-.19-10.12-.1-1.11-.59-1.57-2.46-1.57H67c-.24,0-.39-.09-.39-.27V1.71c0-.19.15-.28.35-.28.58,0,3.09.14,7.66.14,4.37,0,5.94-.14,6.62-.14.25,0,.35.14.35.32V2.91c0,.23-.15.32-.4.32H78.9c-1,0-1.72.37-1.72,1.3C77.18,5,77,15.19,77,15.75v3.56c0,.46.15,11.12.15,11.63,0,1.44.73,1.67,2.31,1.67h2c.25,0,.39.09.39.32v1.2c0,.19-.14.28-.44.28-.59,0-2.55-.14-6.82-.14-4.67,0-6.78.14-7.32.14-.25,0-.39-.09-.39-.28V32.88c0-.18.14-.27.39-.27h2.75c1,0,2-.14,2.21-1.34.1-.7.24-10.67.24-13.12Z" style="fill:#58595b"/><path d="M89.16,30.71c-3.54-3.14-5.26-8.5-5.26-12.93a17,17,0,0,1,5-12.24A17.68,17.68,0,0,1,101.19.88a21.33,21.33,0,0,1,9.91,2.54c.64.37.89.32,1,0l.39-1.34c.1-.28.2-.28.64-.28s.54.09.54.74c0,.88,1,7.67,1.23,9,0,.23,0,.42-.2.46l-.74.19c-.24,0-.34,0-.49-.37a17.82,17.82,0,0,0-3.83-5.73,11.67,11.67,0,0,0-8.54-3.56c-8.79,0-12.33,7.35-12.28,14.09a17.84,17.84,0,0,0,4.72,11.87c3.34,3.51,6.13,3.88,9.42,3.88a15.28,15.28,0,0,0,12.13-5.87c.15-.23.25-.27.39-.13l.64.46c.15.09.25.18.1.41A17.83,17.83,0,0,1,101.58,35c-5.79,0-9.48-1.71-12.42-4.25" style="fill:#58595b"/><path d="M125.77,21.43c-.49,1.15-3.19,8.17-3.44,9.14,0,.33-.14.79-.14,1,0,.65.59,1,1.67,1h2.3c.35,0,.5.09.5.32V34c0,.33-.15.42-.4.42-.69,0-2.7-.14-5.59-.14-3.59,0-4.67.14-5.36.14-.24,0-.34-.09-.34-.37V32.93c0-.23.2-.32.39-.32h1.72c1.47,0,2.16-.65,2.85-2.13.34-.74,3.93-9.28,5.35-13.07.34-.92,4.32-10.85,4.76-12.1a1.73,1.73,0,0,0,.05-1.57,1.19,1.19,0,0,1-.34-.6c0-.14.1-.32.44-.42a10.08,10.08,0,0,0,4.08-2.3c.24-.24.39-.42.63-.42s.4.28.54.78c.94,2.91,4.77,13.26,5.7,16.22,1.13,3.6,4.32,12.19,5,13.53a3.7,3.7,0,0,0,3.34,2.08h1.62c.29,0,.39.13.39.32v1.15c0,.24-.15.33-.49.33-.88,0-1.92-.14-5.89-.14s-5.8.14-6.93.14a.37.37,0,0,1-.39-.42V32.93c0-.28.15-.32.44-.32h1.23c1.38,0,1.82-.47,1.47-1.76-.39-1.66-2.4-7.57-3.09-9.42Zm11.49-1.66c-.44-1.39-4.42-12.94-4.66-13.63-.15-.32-.25-.64-.4-.64s-.39.32-.54.69c-.24.6-4.91,12.42-5.25,13.58Z" style="fill:#58595b"/><path d="M41.43,63.52c-.45,0-.53.12-.6.37s-.15.59-.28,1.24l-.1.52a3.27,3.27,0,0,1-.81,1.79,1.74,1.74,0,0,1-1.17.45,1.54,1.54,0,0,1-1-.37,1.71,1.71,0,0,1-.31-1.66l.33-1.73c.1-.53.07-.56-.48-.61l0-.18H38.7l0,.18c-.52,0-.56.07-.66.61l-.32,1.68c-.24,1.25.27,1.71,1,1.71s1.29-.59,1.55-1.92l.09-.47a10.86,10.86,0,0,0,.19-1.24c0-.28-.11-.34-.61-.37l0-.18h1.57Z" style="fill:#53575a"/><path d="M44.15,67.2a1.86,1.86,0,0,1-1,.67c-.17,0-.23-.19-.11-.72s.25-1,.37-1.52.06-.49,0-.49c-.3,0-1.1.85-1.44,1.43-.08.34-.18.75-.27,1.16a2.86,2.86,0,0,0-.49.14l0-.06c.18-.74.39-1.56.55-2.32.06-.22,0-.27,0-.27a1.28,1.28,0,0,0-.45.3l-.09-.16a1.89,1.89,0,0,1,1-.65c.16,0,.18.23,0,.76l-.14.6h0a4.75,4.75,0,0,1,1.26-1.21,1,1,0,0,1,.46-.15c.17,0,.36.1.15,1-.11.46-.22.94-.33,1.42,0,.19,0,.25,0,.25a1.14,1.14,0,0,0,.45-.32Z" style="fill:#53575a"/><path d="M47.67,67.17a1.82,1.82,0,0,1-1,.7c-.13,0-.23-.11-.12-.64l.12-.58h0a4.62,4.62,0,0,1-.9.89,1.16,1.16,0,0,1-.67.32c-.22,0-.44-.28-.44-.82a2.48,2.48,0,0,1,.79-1.81,2.31,2.31,0,0,1,1.21-.53,1.2,1.2,0,0,1,.41.07l.22-1.13c.06-.3,0-.33-.26-.33h-.22l0-.17a8.86,8.86,0,0,0,1-.24c.06,0,.08.05,0,.19-.32,1.37-.61,2.7-.85,4,0,.16,0,.22,0,.22a1.18,1.18,0,0,0,.48-.33Zm-.92-1,.21-1a1,1,0,0,0-.55-.18.76.76,0,0,0-.48.15,2.44,2.44,0,0,0-.73,1.77c0,.34.1.5.22.5.35,0,1.1-.85,1.33-1.26" style="fill:#53575a"/><path d="M50.31,67.09a2,2,0,0,1-1.45.78c-.31,0-.75-.19-.75-1a2.28,2.28,0,0,1,.82-1.78,1.77,1.77,0,0,1,1-.38.56.56,0,0,1,.6.55c0,.68-1.15,1-1.81,1.21a1.7,1.7,0,0,0,0,.22c0,.37.11.77.53.77a1.6,1.6,0,0,0,1-.52Zm-1-2a1.56,1.56,0,0,0-.64,1.19c1-.26,1.26-.58,1.26-.89a.34.34,0,0,0-.34-.38.57.57,0,0,0-.28.08" style="fill:#53575a"/><path d="M50.88,65.38a2,2,0,0,1,1-.67c.17,0,.18.31.08.79l-.07.35h0c.35-.67.75-1.14,1-1.14a.36.36,0,0,1,.29.17.29.29,0,0,1,0,.3.53.53,0,0,1-.17.19c-.07,0-.12,0-.15,0a.35.35,0,0,0-.24-.12c-.08,0-.19.07-.35.29a4.52,4.52,0,0,0-.48.85c-.11.46-.2.89-.28,1.34a2.14,2.14,0,0,0-.48.13L51,67.81c.18-.73.37-1.57.5-2.31,0-.22,0-.29,0-.29a1.46,1.46,0,0,0-.49.33Z" style="fill:#53575a"/><path d="M56.33,67.16a5,5,0,0,0,1-1.77.65.65,0,0,0-.07-.31.17.17,0,0,1,0-.17.34.34,0,0,1,.28-.2c.17,0,.3.15.3.39a1.56,1.56,0,0,1-.28.72c-.24.38-1.07,1.52-1.45,2.05h-.19c-.06-.73-.12-1.45-.19-2.14h0c-.43.73-.93,1.53-1.3,2.14H54.2c0-.67,0-1.55-.07-2.21,0-.33,0-.45-.11-.45s-.15.08-.4.35l-.12-.14c.29-.38.64-.71.88-.71s.23.2.24.68,0,1.16,0,1.61h0c.41-.7.87-1.45,1.27-2.19h.17c.08.77.14,1.56.22,2.35Z" style="fill:#53575a"/><path d="M58.2,65.38a2,2,0,0,1,1-.67c.17,0,.18.31.08.79l-.07.35h0c.35-.67.75-1.14,1-1.14a.36.36,0,0,1,.29.17.32.32,0,0,1,0,.3.66.66,0,0,1-.18.19c-.06,0-.12,0-.15,0a.35.35,0,0,0-.24-.12c-.08,0-.19.07-.35.29a4.52,4.52,0,0,0-.48.85c-.11.46-.19.89-.28,1.34a2.14,2.14,0,0,0-.48.13l-.06-.06c.18-.73.37-1.57.5-2.31,0-.22,0-.29,0-.29a1.46,1.46,0,0,0-.49.33Z" style="fill:#53575a"/><path d="M62.05,67.18a2.06,2.06,0,0,1-1,.69c-.13,0-.22-.11-.09-.67l.43-1.76c0-.15,0-.22,0-.22a1.34,1.34,0,0,0-.46.3l-.09-.16a2.3,2.3,0,0,1,1.05-.65c.15,0,.14.22.06.54l-.47,1.89c0,.17,0,.22,0,.22A1.38,1.38,0,0,0,62,67Zm.18-3.48a.38.38,0,0,1-.36.4.29.29,0,0,1-.29-.3.41.41,0,0,1,.38-.41c.18,0,.26.15.27.31" style="fill:#53575a"/><path d="M64.35,65.05l-.68,0L63.27,67c-.07.33,0,.41,0,.41a1.54,1.54,0,0,0,.61-.4l.1.14c-.23.28-.74.74-1.1.74-.16,0-.3-.2-.15-.91l.41-1.87h-.51l0-.07.17-.2h.41l.16-.65.52-.43.06,0-.24,1h.8Z" style="fill:#53575a"/><path d="M66.45,65.05l-.68,0L65.37,67c-.07.33,0,.41,0,.41A1.56,1.56,0,0,0,66,67l.09.14a1.94,1.94,0,0,1-1.1.74c-.16,0-.3-.2-.14-.91l.4-1.87h-.51l0-.07.17-.2h.41l.16-.65.52-.43.06,0-.24,1h.8Z" style="fill:#53575a"/><path d="M68.85,67.09a2,2,0,0,1-1.45.78c-.31,0-.75-.19-.75-1a2.28,2.28,0,0,1,.82-1.78,1.77,1.77,0,0,1,1-.38.56.56,0,0,1,.6.55c0,.68-1.15,1-1.81,1.21a1.7,1.7,0,0,0,0,.22c0,.37.11.77.53.77a1.6,1.6,0,0,0,1-.52Zm-1-2a1.56,1.56,0,0,0-.64,1.19c1-.26,1.27-.58,1.27-.89a.34.34,0,0,0-.35-.38.57.57,0,0,0-.28.08" style="fill:#53575a"/><path d="M72.48,67.2a1.9,1.9,0,0,1-1,.67c-.17,0-.23-.19-.11-.72s.25-1,.37-1.52.06-.49,0-.49c-.3,0-1.1.85-1.44,1.43-.08.34-.19.75-.27,1.16a2.62,2.62,0,0,0-.49.14l0-.06c.18-.74.39-1.56.55-2.32.06-.22,0-.27,0-.27a1.2,1.2,0,0,0-.45.3l-.09-.16a1.89,1.89,0,0,1,1-.65c.15,0,.18.23.05.76l-.14.6h0a4.61,4.61,0,0,1,1.26-1.21,1,1,0,0,1,.46-.15c.17,0,.36.1.15,1-.11.46-.22.94-.33,1.42,0,.19,0,.25,0,.25a1.14,1.14,0,0,0,.45-.32Z" style="fill:#53575a"/><path d="M75,63.14a9.14,9.14,0,0,0,1-.23c.07,0,.07.07,0,.21-.24.94-.42,1.74-.61,2.62h0a2.42,2.42,0,0,1,1.49-1c.3,0,.48.3.48.75a2.62,2.62,0,0,1-1,2,1.92,1.92,0,0,1-1,.38.67.67,0,0,1-.55-.3,1.11,1.11,0,0,1,0-.85c.19-.94.43-2,.65-3.08.07-.31,0-.33-.22-.33H75Zm1,4.31a2.33,2.33,0,0,0,.83-1.87c0-.35-.11-.49-.24-.49a2.41,2.41,0,0,0-1.24,1.06,3.71,3.71,0,0,0-.13.53c-.12.67.15.87.43.87a.74.74,0,0,0,.35-.1" style="fill:#53575a"/><path d="M79.19,67.27a4.91,4.91,0,0,0,.92-1.88.65.65,0,0,0-.08-.32.23.23,0,0,1,0-.18.33.33,0,0,1,.28-.18c.15,0,.27.15.27.38a1.4,1.4,0,0,1-.24.72c-.29.52-.87,1.43-1.24,1.94a16.81,16.81,0,0,1-1.23,1.61l-.71.19-.06-.16a6.46,6.46,0,0,0,1.61-1.53c0-.54-.12-1.61-.21-2.23,0-.35-.09-.43-.14-.43s-.23.16-.4.4l-.12-.16c.22-.34.56-.73.81-.73s.29.25.35.8.12,1.14.16,1.76Z" style="fill:#53575a"/><path d="M85.32,67.15a1.89,1.89,0,0,1-1,.72c-.13,0-.22-.11-.12-.61l.13-.65h0a5.1,5.1,0,0,1-.88,1,1.21,1.21,0,0,1-.64.31c-.18,0-.4-.23-.4-.78a2.5,2.5,0,0,1,.82-1.85,2.2,2.2,0,0,1,1.28-.53,2,2,0,0,1,.42.05,1.51,1.51,0,0,0,.26,0l0,0c-.11.42-.31,1.35-.47,2.22,0,.24,0,.3,0,.3a1.57,1.57,0,0,0,.49-.36Zm-.89-1.06c.08-.28.18-.77.23-1a1.16,1.16,0,0,0-.46-.1.86.86,0,0,0-.49.15A2.44,2.44,0,0,0,83,67c0,.31.09.45.19.45.26,0,1-.87,1.27-1.34" style="fill:#53575a"/><path d="M89.53,63.34c1,0,1.43.4,1.43,1.15A1.59,1.59,0,0,1,89.33,66h-.26l-.46-.14-.21,1.08c-.11.57-.06.62.56.67l0,.18H87.11l0-.18c.53,0,.58-.09.7-.67l.55-2.78c.11-.53.07-.57-.48-.63l0-.18Zm-.87,2.29a1.48,1.48,0,0,0,.5.09,1.18,1.18,0,0,0,1.19-1.25.83.83,0,0,0-.91-.92.67.67,0,0,0-.3.06c-.07,0-.12.11-.16.32Z" style="fill:#53575a"/><path d="M91.17,65.38a2,2,0,0,1,1-.67c.17,0,.18.31.07.79l-.06.35h0c.35-.67.75-1.14,1-1.14a.36.36,0,0,1,.3.17.29.29,0,0,1,0,.3.66.66,0,0,1-.18.19c-.06,0-.11,0-.15,0a.31.31,0,0,0-.23-.12c-.08,0-.19.07-.35.29a5.15,5.15,0,0,0-.49.85c-.11.46-.19.89-.27,1.34a2.22,2.22,0,0,0-.49.13l0-.06c.18-.73.37-1.57.5-2.31,0-.22,0-.29,0-.29a1.29,1.29,0,0,0-.49.33Z" style="fill:#53575a"/><path d="M93.53,66.8a2.08,2.08,0,0,1,1-1.87,1.73,1.73,0,0,1,.74-.22c.57,0,.91.39.91,1.07a2.26,2.26,0,0,1-.73,1.66,1.77,1.77,0,0,1-1.06.43c-.65,0-.9-.52-.9-1.07m1.37.75a2,2,0,0,0,.74-1.76c0-.55-.24-.82-.55-.82a.62.62,0,0,0-.26.06,1.89,1.89,0,0,0-.73,1.73c0,.51.21.83.58.83a.54.54,0,0,0,.22,0" style="fill:#53575a"/><path d="M100.64,67.78H99l0-.18c.47,0,.5-.12.46-.42l-.18-1H97.92c-.11.22-.33.61-.48.93s-.15.46.38.5l0,.18H96.31l0-.18c.41,0,.48-.09.8-.66l2.07-3.65.21,0,.19,1.21c.14.88.29,1.74.44,2.55.08.49.13.55.61.6ZM99,64.11h0c-.35.63-.66,1.19-1,1.77h1.24Z" style="fill:#53575a"/><path d="M101,67.37a.32.32,0,0,1,.2-.28c.08,0,.14,0,.17,0a.85.85,0,0,0,.66.41.42.42,0,0,0,.45-.41c0-.17-.07-.32-.4-.57s-.59-.49-.59-.84a.87.87,0,0,1,.35-.66,1.37,1.37,0,0,1,.77-.33c.3,0,.53.2.53.38a.33.33,0,0,1-.17.28c-.07,0-.11,0-.15,0a.69.69,0,0,0-.54-.31.37.37,0,0,0-.37.38c0,.25.2.42.45.61.41.31.57.51.57.8,0,.52-.68,1-1.24,1-.32,0-.69-.26-.69-.5" style="fill:#53575a"/><path d="M103.23,67.37a.33.33,0,0,1,.2-.28c.08,0,.14,0,.17,0a.85.85,0,0,0,.66.41.42.42,0,0,0,.45-.41c0-.17-.07-.32-.4-.57s-.59-.49-.59-.84a.87.87,0,0,1,.35-.66,1.37,1.37,0,0,1,.77-.33c.3,0,.53.2.53.38a.33.33,0,0,1-.17.28c-.07,0-.11,0-.15,0a.69.69,0,0,0-.54-.31.37.37,0,0,0-.37.38c0,.25.2.42.45.61.41.31.57.51.57.8,0,.52-.68,1-1.24,1-.32,0-.69-.26-.69-.5" style="fill:#53575a"/><path d="M108.85,67.17a1.88,1.88,0,0,1-1,.7c-.15,0-.24-.13-.11-.73.06-.24.08-.38.13-.6h0a5.51,5.51,0,0,1-1.1,1.11,1,1,0,0,1-.56.22c-.18,0-.4-.13-.22-.87.12-.53.24-1.06.37-1.58,0-.17,0-.23,0-.23a2.38,2.38,0,0,0-.47.33l-.08-.17a2.11,2.11,0,0,1,1-.64c.15,0,.18.14.07.6s-.24,1.09-.37,1.64c-.08.34,0,.45.08.45.38,0,1.15-.92,1.42-1.42.07-.31.15-.67.24-1.09l.47-.18h.08c-.18.73-.36,1.49-.53,2.38,0,.22,0,.27,0,.27a1.29,1.29,0,0,0,.49-.36Z" style="fill:#53575a"/><path d="M109.29,65.38a2,2,0,0,1,1-.67c.17,0,.17.31.07.79l-.07.35h0c.35-.67.76-1.14,1-1.14a.38.38,0,0,1,.3.17.35.35,0,0,1,0,.3.66.66,0,0,1-.18.19c-.06,0-.12,0-.15,0a.35.35,0,0,0-.23-.12c-.09,0-.19.07-.35.29a4.53,4.53,0,0,0-.49.85c-.11.46-.19.89-.27,1.34a2.22,2.22,0,0,0-.49.13l-.05-.06c.18-.73.37-1.57.5-2.31,0-.22,0-.29,0-.29a1.36,1.36,0,0,0-.48.33Z" style="fill:#53575a"/><path d="M114.51,67.15a1.86,1.86,0,0,1-1,.72c-.13,0-.21-.11-.12-.61l.14-.65h0a4.78,4.78,0,0,1-.88,1,1.18,1.18,0,0,1-.64.31c-.18,0-.39-.23-.39-.78a2.5,2.5,0,0,1,.82-1.85,2.14,2.14,0,0,1,1.27-.53,2.1,2.1,0,0,1,.43.05,1.27,1.27,0,0,0,.26,0l0,0c-.11.42-.32,1.35-.47,2.22-.05.24,0,.3,0,.3a1.57,1.57,0,0,0,.49-.36Zm-.89-1.06c.08-.28.18-.77.23-1a1.12,1.12,0,0,0-.46-.1.86.86,0,0,0-.49.15,2.44,2.44,0,0,0-.74,1.83c0,.31.09.45.19.45.27,0,1-.87,1.27-1.34" style="fill:#53575a"/><path d="M118,67.2a1.9,1.9,0,0,1-1,.67c-.17,0-.23-.19-.11-.72s.25-1,.37-1.52.06-.49-.05-.49c-.31,0-1.1.85-1.44,1.43-.08.34-.19.75-.27,1.16a2.62,2.62,0,0,0-.49.14l0-.06c.18-.74.39-1.56.55-2.32.06-.22,0-.27,0-.27a1.27,1.27,0,0,0-.44.3l-.09-.16a1.86,1.86,0,0,1,1-.65c.15,0,.18.23,0,.76l-.14.6h0a4.61,4.61,0,0,1,1.26-1.21,1,1,0,0,1,.46-.15c.16,0,.36.1.15,1-.11.46-.22.94-.34,1.42,0,.19,0,.25,0,.25a1.21,1.21,0,0,0,.45-.32Z" style="fill:#53575a"/><path d="M120.58,67.11a2.07,2.07,0,0,1-1.37.76c-.44,0-.74-.35-.74-1a2.35,2.35,0,0,1,.71-1.64,2,2,0,0,1,1.09-.51c.3,0,.52.17.53.34a.37.37,0,0,1-.23.32c-.06,0-.1,0-.15,0a.61.61,0,0,0-.52-.3.72.72,0,0,0-.56.45,2.73,2.73,0,0,0-.31,1.24c0,.49.2.74.49.74a1.6,1.6,0,0,0,1-.5Z" style="fill:#53575a"/><path d="M123.24,67.09a2,2,0,0,1-1.44.78c-.32,0-.76-.19-.76-1a2.28,2.28,0,0,1,.82-1.78,1.77,1.77,0,0,1,1-.38.56.56,0,0,1,.6.55c0,.68-1.15,1-1.81,1.21a1.7,1.7,0,0,0,0,.22c0,.37.12.77.53.77a1.6,1.6,0,0,0,1-.52Zm-1-2a1.59,1.59,0,0,0-.64,1.19c1-.26,1.27-.58,1.27-.89a.34.34,0,0,0-.34-.38.57.57,0,0,0-.29.08" style="fill:#53575a"/><path d="M129.21,66.69a6.69,6.69,0,0,1-.54,1,5.07,5.07,0,0,1-1.18.17,1.85,1.85,0,0,1-2-2,2.67,2.67,0,0,1,2.84-2.68,3.09,3.09,0,0,1,1.17.23c0,.35,0,.72,0,1l-.21,0c0-.81-.39-1-1.06-1a2.23,2.23,0,0,0-2,2.42c0,1,.48,1.76,1.4,1.76.68,0,1.09-.46,1.47-1.06Z" style="fill:#53575a"/><path d="M129.73,66.8a2.1,2.1,0,0,1,1-1.87,1.77,1.77,0,0,1,.74-.22c.57,0,.92.39.92,1.07a2.23,2.23,0,0,1-.74,1.66,1.72,1.72,0,0,1-1.05.43c-.65,0-.91-.52-.91-1.07m1.37.75a2,2,0,0,0,.75-1.76c0-.55-.24-.82-.55-.82A.72.72,0,0,0,131,65a1.91,1.91,0,0,0-.72,1.73c0,.51.21.83.57.83a.51.51,0,0,0,.22,0" style="fill:#53575a"/><path d="M137.69,67.21a2,2,0,0,1-1,.66c-.17,0-.23-.21-.11-.71l.37-1.58c.08-.34,0-.45-.06-.45-.33,0-1.16,1-1.4,1.44-.08.32-.19.78-.27,1.17a1.93,1.93,0,0,0-.5.13l0-.05c.17-.69.35-1.39.49-2.06.1-.46.09-.63-.05-.63-.33,0-1.17,1-1.39,1.44s-.19.76-.28,1.17a2,2,0,0,0-.49.13l-.05-.05c.21-.77.4-1.56.57-2.33.06-.25,0-.29,0-.29a1.76,1.76,0,0,0-.47.33l-.08-.16a1.94,1.94,0,0,1,1-.66c.17,0,.19.25,0,.84l-.12.49h0a4,4,0,0,1,1.22-1.19.87.87,0,0,1,.43-.14c.18,0,.35.17.16,1l-.06.28h0a4.06,4.06,0,0,1,1.26-1.19.78.78,0,0,1,.42-.13c.13,0,.36.08.14,1l-.34,1.43c0,.18,0,.22,0,.22a1.25,1.25,0,0,0,.46-.3Z" style="fill:#53575a"/><path d="M139.36,64.79a3,3,0,0,1,.64-.08c.71,0,1,.34,1,.94a2.2,2.2,0,0,1-.59,1.42,2.64,2.64,0,0,1-1.27.8,1.21,1.21,0,0,1-.4-.07l-.2,1c-.08.39,0,.46.3.49H139l0,.18-1.58.08,0-.17c.43-.09.51-.14.6-.57.25-1.19.51-2.39.77-3.58a3.72,3.72,0,0,0-.56.25l0-.17a2.87,2.87,0,0,1,.65-.34l.08-.31a2.1,2.1,0,0,1,.5-.4l.07,0Zm-.52,2.54a.58.58,0,0,0,.42.24c.49,0,1.15-.93,1.15-1.81,0-.61-.32-.76-.72-.76a1.89,1.89,0,0,0-.39,0Z" style="fill:#53575a"/><path d="M144.34,67.15a1.89,1.89,0,0,1-1,.72c-.13,0-.22-.11-.13-.61l.14-.65h0a4.81,4.81,0,0,1-.89,1,1.15,1.15,0,0,1-.63.31c-.18,0-.4-.23-.4-.78a2.5,2.5,0,0,1,.82-1.85,2.14,2.14,0,0,1,1.27-.53,2,2,0,0,1,.43.05,1.27,1.27,0,0,0,.26,0l0,0c-.11.42-.32,1.35-.47,2.22-.05.24,0,.3,0,.3a1.46,1.46,0,0,0,.49-.36Zm-.89-1.06c.07-.28.17-.77.22-1a1.08,1.08,0,0,0-.46-.1.83.83,0,0,0-.48.15A2.41,2.41,0,0,0,142,67c0,.31.09.45.18.45.27,0,1-.87,1.28-1.34" style="fill:#53575a"/><path d="M147.79,67.2a1.9,1.9,0,0,1-1,.67c-.17,0-.23-.19-.11-.72s.25-1,.37-1.52.06-.49-.05-.49c-.3,0-1.1.85-1.44,1.43-.08.34-.18.75-.27,1.16a2.62,2.62,0,0,0-.49.14l0-.06c.18-.74.39-1.56.55-2.32.06-.22,0-.27,0-.27a1.28,1.28,0,0,0-.45.3l-.09-.16a1.89,1.89,0,0,1,1-.65c.16,0,.18.23,0,.76l-.14.6h0A4.75,4.75,0,0,1,147,64.86a1,1,0,0,1,.46-.15c.17,0,.36.1.15,1-.11.46-.22.94-.33,1.42,0,.19,0,.25,0,.25a1.14,1.14,0,0,0,.45-.32Z" style="fill:#53575a"/><path d="M149.52,67.27a4.91,4.91,0,0,0,.92-1.88.65.65,0,0,0-.08-.32.23.23,0,0,1,0-.18.34.34,0,0,1,.29-.18c.15,0,.26.15.26.38a1.4,1.4,0,0,1-.24.72c-.29.52-.87,1.43-1.24,1.94a16.81,16.81,0,0,1-1.23,1.61l-.71.19-.06-.16a6.28,6.28,0,0,0,1.61-1.53,18.17,18.17,0,0,0-.21-2.23c0-.35-.09-.43-.14-.43s-.23.16-.4.4l-.12-.16c.22-.34.56-.73.81-.73s.3.25.35.8.12,1.14.16,1.76Z" style="fill:#53575a"/></svg>