<svg xmlns="http://www.w3.org/2000/svg" viewBox="0 0 52.55 60"><title>Asset 8</title><path d="M26.21,31.29c-6.11,0-10.87-9.87-10.87-19.18,0-.57,0-1.16.08-1.87a.62.62,0,0,0-.6-.68,1.29,1.29,0,0,1-1.24-1.27l0-5.09a.63.63,0,0,0-.63-.63H9.1A1.29,1.29,0,0,1,9.1,0H45.48a1.29,1.29,0,0,1,1.28,1.29V12a1.29,1.29,0,0,1-2.57,0V3.2a.63.63,0,0,0-.63-.63H39.73a.63.63,0,0,0-.63.63l0,5.09a1.29,1.29,0,0,1-1.29,1.28h-.17a.63.63,0,0,0-.46.2.61.61,0,0,0-.16.48c.06.71.08,1.3.08,1.86C37.13,21.42,32.33,31.29,26.21,31.29ZM18.63,9.57a.65.65,0,0,0-.63.57c-.06.64-.09,1.3-.09,2,0,7.61,3.79,16.6,8.3,16.6s8.35-9,8.35-16.6c0-.67,0-1.34-.09-2a.65.65,0,0,0-.63-.57Zm-1.87-7a.63.63,0,0,0-.63.63l0,3.17a.63.63,0,0,0,.63.63H35.92a.63.63,0,0,0,.63-.63l0-3.17a.63.63,0,0,0-.63-.63Z" style="fill:#00703c"/><path d="M1.45,60A1.3,1.3,0,0,1,.16,58.81C0,57.18-.89,42.74,3.52,38a4.76,4.76,0,0,1,3.55-1.62H8.41c2.68,0,5.06-.25,7.18-3.29a1.29,1.29,0,1,1,2.11,1.47C15,38.42,11.7,39,8.52,39H7.07a2.17,2.17,0,0,0-1.67.8C3,42.38,2.37,50.59,2.63,56.83a.63.63,0,0,0,.62.6H9a.63.63,0,0,0,.63-.63V49.14a1.29,1.29,0,0,1,2.57,0V56.8a.63.63,0,0,0,.63.63h26.8a.63.63,0,0,0,.63-.63V49.14a1.29,1.29,0,0,1,2.57,0V56.8a.63.63,0,0,0,.63.63h5.85a.64.64,0,0,0,.63-.6c.25-6.24-.33-14.46-2.78-17.09a2.15,2.15,0,0,0-1.66-.8H44c-3.18,0-6.5-.53-9.18-4.39a1.28,1.28,0,0,1,1-2,1.31,1.31,0,0,1,1.06.55c2.11,3,4.51,3.29,7.19,3.29h1.33A4.76,4.76,0,0,1,49,38c4.41,4.75,3.47,19.19,3.35,20.82A1.29,1.29,0,0,1,51.1,60Z" style="fill:#00703c"/><path d="M45.48,15.85a1.28,1.28,0,0,0-1.29,1.28v1.92a1.29,1.29,0,0,0,2.57,0V17.13A1.28,1.28,0,0,0,45.48,15.85Z" style="fill:#00703c"/><path d="M23.19,54.86a1.29,1.29,0,0,1-1.29-1.29V50.38a.63.63,0,0,0-.63-.63H18.08a1.29,1.29,0,0,1-1.29-1.28v-6.3a1.28,1.28,0,0,1,1.29-1.28h3.19a.63.63,0,0,0,.63-.63v-3.2a1.28,1.28,0,0,1,1.29-1.28h6.29a1.28,1.28,0,0,1,1.29,1.28v3.2a.63.63,0,0,0,.62.63h3.2a1.28,1.28,0,0,1,1.28,1.28v6.3a1.28,1.28,0,0,1-1.28,1.28h-3.2a.63.63,0,0,0-.62.63v3.19a1.29,1.29,0,0,1-1.29,1.29ZM20,43.46a.63.63,0,0,0-.63.63v2.46a.63.63,0,0,0,.63.63h3.2a1.29,1.29,0,0,1,1.28,1.29v3.19a.63.63,0,0,0,.63.62h2.47a.62.62,0,0,0,.62-.62V48.47a1.29,1.29,0,0,1,1.29-1.29h3.19a.63.63,0,0,0,.63-.63V44.09a.63.63,0,0,0-.63-.63H29.48a1.29,1.29,0,0,1-1.29-1.29V39a.63.63,0,0,0-.62-.63H25.1a.63.63,0,0,0-.63.63v3.19a1.29,1.29,0,0,1-1.28,1.29Z" style="fill:#00703c"/></svg>