<svg xmlns="http://www.w3.org/2000/svg" viewBox="0 0 60 60"><title>Asset 7</title><path d="M33.24,60a1.26,1.26,0,0,1-1-.48,1.29,1.29,0,0,1,.19-1.81c1.43-1.16,2.1-2.06,2.1-2.82v-.06c-.06-.69-.8-1.55-4.19-3.51a.61.61,0,0,0-.32-.08.6.6,0,0,0-.31.08c-3.39,2-4.11,2.83-4.17,3.52v0c0,.76.67,1.66,2.11,2.82a1.31,1.31,0,0,1,.47.87,1.23,1.23,0,0,1-.28.94,1.26,1.26,0,0,1-1,.48,1.28,1.28,0,0,1-.81-.29C24.61,58.56,23,57,23,54.89c0-1.58,1.1-3,3.57-4.65a.62.62,0,0,0,0-1.06c-3.27-1.87-5.44-3.57-5.44-5.78,0-1.64,1.41-3.1,4.57-4.72a.63.63,0,0,0,.35-.57.64.64,0,0,0-.37-.56c-3.88-1.76-6.47-3.4-6.47-5.64a2.93,2.93,0,0,1,.43-1.47,7.55,7.55,0,0,1,3-2.49c.72-.39,1.5-.76,2.54-1.21a.62.62,0,0,0,.38-.57.64.64,0,0,0-.37-.58c-1-.44-1.75-.8-2.44-1.18a7.57,7.57,0,0,1-3-2.48,4.15,4.15,0,0,1-.34-3.23,5.38,5.38,0,0,1,2.5-3.24,1.27,1.27,0,0,1,.6-.15,1.3,1.3,0,0,1,1.14.69A1.29,1.29,0,0,1,23,17.74a2.82,2.82,0,0,0-1.22,1.65,1.61,1.61,0,0,0,.07,1.21,5.59,5.59,0,0,0,2.05,1.55,38.52,38.52,0,0,0,3.93,1.79.67.67,0,0,0,.24,0,.6.6,0,0,0,.62-.62V14.41a.62.62,0,0,0-.47-.6,7,7,0,1,1,3.52,0,.62.62,0,0,0-.47.6v9a.62.62,0,0,0,.27.52.58.58,0,0,0,.35.11.67.67,0,0,0,.24,0,39,39,0,0,0,4-1.82,5.48,5.48,0,0,0,2.07-1.55,1.66,1.66,0,0,0,.07-1.21,2.82,2.82,0,0,0-1.22-1.65,1.25,1.25,0,0,1-.63-.76,1.28,1.28,0,0,1,1.23-1.66,1.26,1.26,0,0,1,.6.14,5.4,5.4,0,0,1,2.49,3.24,4.11,4.11,0,0,1-.33,3.23,7.57,7.57,0,0,1-3,2.48c-.69.37-1.44.74-2.44,1.18a.63.63,0,0,0,0,1.15c1,.45,1.82.82,2.53,1.21a7.56,7.56,0,0,1,3,2.49,3,3,0,0,1,.42,1.47c0,2.25-2.6,3.88-6.5,5.65a.61.61,0,0,0-.37.56.61.61,0,0,0,.34.57c3.14,1.62,4.54,3.07,4.54,4.71,0,2.21-2.16,3.9-5.4,5.77a.62.62,0,0,0-.32.52.64.64,0,0,0,.29.55c2.49,1.63,3.6,3.07,3.6,4.65,0,2.08-1.64,3.67-3.06,4.82A1.3,1.3,0,0,1,33.24,60ZM31.91,40.4a.58.58,0,0,0-.33.1.62.62,0,0,0-.29.53v5.38a.63.63,0,0,0,.31.54.6.6,0,0,0,.31.08.61.61,0,0,0,.32-.08c3.37-2,4.09-2.82,4.14-3.51a.58.58,0,0,0,0-.29c-.21-.49-.85-1.15-4.14-2.69A.6.6,0,0,0,31.91,40.4Zm-3.82,0a.6.6,0,0,0-.27.06c-3.3,1.56-4,2.3-4.16,2.81a.56.56,0,0,0,0,.31c.07.64.79,1.42,4.15,3.35a.72.72,0,0,0,.32.08.71.71,0,0,0,.31-.08.65.65,0,0,0,.31-.55V41a.64.64,0,0,0-.29-.53A.67.67,0,0,0,28.09,40.41Zm3.82-12.09a.6.6,0,0,0-.62.62v6.24a.6.6,0,0,0,.28.52.59.59,0,0,0,.34.1.58.58,0,0,0,.26,0c3.66-1.6,5.46-2.63,6-3.44a.63.63,0,0,0,0-.75,6.31,6.31,0,0,0-1.91-1.35,37.49,37.49,0,0,0-4.1-1.85A.67.67,0,0,0,31.91,28.32Zm-3.82,0a.67.67,0,0,0-.24,0,39.11,39.11,0,0,0-4,1.82,6.41,6.41,0,0,0-1.91,1.35.62.62,0,0,0,0,.74c.55.81,2.32,1.84,5.94,3.43a.58.58,0,0,0,.26.05.59.59,0,0,0,.34-.1.6.6,0,0,0,.28-.52V29a.62.62,0,0,0-.27-.52A.66.66,0,0,0,28.09,28.35ZM30,2.57A4.46,4.46,0,1,0,34.46,7,4.46,4.46,0,0,0,30,2.57Z" style="fill:#00703c"/><path d="M45.31,33.2a1.29,1.29,0,0,1,0-2.57h2.56a.63.63,0,0,0,.58-.39L50,26.41a.63.63,0,0,0-.58-.87H47.23a1.29,1.29,0,1,1,0-2.57h3.83a.63.63,0,0,0,.58-.39l1.59-3.82a.62.62,0,0,0-.06-.59.6.6,0,0,0-.52-.28H47.23a1.29,1.29,0,1,1,0-2.58h7a.64.64,0,0,0,.58-.38l1.59-3.83a.62.62,0,0,0-.06-.59.6.6,0,0,0-.52-.28H45.31a1.29,1.29,0,0,1,0-2.57h13.4A1.29,1.29,0,0,1,59.9,9.44l-9.57,23a1.29,1.29,0,0,1-1.19.79Z" style="fill:#00703c"/><path d="M10.86,33.2a1.29,1.29,0,0,1-1.19-.79L.1,9.44A1.29,1.29,0,0,1,1.29,7.66h13.4a1.29,1.29,0,0,1,0,2.57H4.16a.63.63,0,0,0-.53.28.65.65,0,0,0,0,.59l1.59,3.83a.64.64,0,0,0,.58.38h7a1.29,1.29,0,0,1,0,2.58H7.35a.6.6,0,0,0-.52.28.62.62,0,0,0-.06.59l1.59,3.82a.63.63,0,0,0,.58.39h3.83a1.29,1.29,0,1,1,0,2.57H10.54a.63.63,0,0,0-.58.87l1.59,3.83a.63.63,0,0,0,.58.39h2.56a1.29,1.29,0,0,1,0,2.57Z" style="fill:#00703c"/></svg>