<svg xmlns="http://www.w3.org/2000/svg" viewBox="0 0 68.43 60"><title>Asset 4</title><path d="M17.54,60H1.37A1.37,1.37,0,0,1,0,58.63V19.39A1.37,1.37,0,0,1,1.37,18H17.54a1.37,1.37,0,0,1,1.37,1.37V58.63A1.37,1.37,0,0,1,17.54,60ZM2.74,57.26H16.18V20.76H2.74Z" style="fill:#00703c"/><path d="M67.06,60H50.89a1.37,1.37,0,0,1-1.37-1.37V19.39A1.37,1.37,0,0,1,50.89,18H67.06a1.37,1.37,0,0,1,1.37,1.37V58.63A1.37,1.37,0,0,1,67.06,60ZM52.25,57.26H65.69V20.76H52.25Z" style="fill:#00703c"/><path d="M50.89,60H17.54a1.36,1.36,0,0,1-1.36-1.37v-26a1.36,1.36,0,0,1,1.36-1.37H50.89a1.36,1.36,0,0,1,1.36,1.37v26A1.36,1.36,0,0,1,50.89,60Zm-32-2.74H49.52V34H18.91Z" style="fill:#00703c"/><path d="M42.69,60H25.74a1.37,1.37,0,0,1-1.37-1.37v-17a1.37,1.37,0,0,1,1.37-1.37h17a1.37,1.37,0,0,1,1.37,1.37v17A1.37,1.37,0,0,1,42.69,60ZM27.1,57.26H41.33V43H27.1Z" style="fill:#00703c"/><path d="M34.21,60a1.36,1.36,0,0,1-1.36-1.37v-17a1.37,1.37,0,1,1,2.73,0v17A1.37,1.37,0,0,1,34.21,60Z" style="fill:#00703c"/><path d="M42.69,48.63H25.74a1.37,1.37,0,1,1,0-2.74h17a1.37,1.37,0,1,1,0,2.74Z" style="fill:#00703c"/><path d="M61.42,27.61h-4.9a1.37,1.37,0,0,1,0-2.74h4.9a1.37,1.37,0,0,1,0,2.74Z" style="fill:#00703c"/><path d="M61.42,34h-4.9a1.37,1.37,0,0,1,0-2.74h4.9a1.37,1.37,0,0,1,0,2.74Z" style="fill:#00703c"/><path d="M61.42,40.38h-4.9a1.37,1.37,0,0,1,0-2.74h4.9a1.37,1.37,0,0,1,0,2.74Z" style="fill:#00703c"/><path d="M61.42,46.76h-4.9a1.37,1.37,0,1,1,0-2.73h4.9a1.37,1.37,0,1,1,0,2.73Z" style="fill:#00703c"/><path d="M61.42,53.15h-4.9a1.37,1.37,0,0,1,0-2.74h4.9a1.37,1.37,0,0,1,0,2.74Z" style="fill:#00703c"/><path d="M11.91,27.61H7a1.37,1.37,0,1,1,0-2.74h4.9a1.37,1.37,0,1,1,0,2.74Z" style="fill:#00703c"/><path d="M11.91,34H7a1.37,1.37,0,0,1,0-2.74h4.9a1.37,1.37,0,0,1,0,2.74Z" style="fill:#00703c"/><path d="M11.91,40.38H7a1.37,1.37,0,1,1,0-2.74h4.9a1.37,1.37,0,1,1,0,2.74Z" style="fill:#00703c"/><path d="M11.91,46.76H7A1.37,1.37,0,1,1,7,44h4.9a1.37,1.37,0,1,1,0,2.73Z" style="fill:#00703c"/><path d="M11.91,53.15H7a1.37,1.37,0,1,1,0-2.74h4.9a1.37,1.37,0,1,1,0,2.74Z" style="fill:#00703c"/><path d="M44.18,27.24h-6.9a1.36,1.36,0,0,1-1.37-1.36V18H32.52v7.89a1.36,1.36,0,0,1-1.37,1.36h-6.9a1.37,1.37,0,0,1-1.37-1.36V1.37A1.37,1.37,0,0,1,24.25,0h6.9a1.37,1.37,0,0,1,1.37,1.37V9.26h3.39V1.37A1.37,1.37,0,0,1,37.28,0h6.9a1.37,1.37,0,0,1,1.37,1.37V25.88A1.37,1.37,0,0,1,44.18,27.24Zm-5.53-2.73h4.16V2.74H38.65v7.88A1.37,1.37,0,0,1,37.28,12H31.15a1.36,1.36,0,0,1-1.36-1.37V2.74H25.62V24.51h4.17V16.62a1.36,1.36,0,0,1,1.36-1.37h6.13a1.37,1.37,0,0,1,1.37,1.37Z" style="fill:#00703c"/></svg>