<svg xmlns="http://www.w3.org/2000/svg" viewBox="0 0 60 60"><title>Asset 9</title><path d="M23.62,53.45,37.16,50a.45.45,0,0,0,.31-.34c.05-.3.13-.79.19-1.19a.42.42,0,0,0-.51-.48L23.23,51.54a.42.42,0,0,0-.31.48l.18,1.09h0A.42.42,0,0,0,23.62,53.45Z" style="fill:#00703c"/><path d="M37,52.83l.19-1.16a.42.42,0,0,0-.52-.48L23.89,54.45a.42.42,0,0,0-.28.56,10.62,10.62,0,0,0,.46,1,.42.42,0,0,0,.48.21l12.09-3.09A.42.42,0,0,0,37,52.83Z" style="fill:#00703c"/><path d="M26.28,58.55l9.5-2.43a.4.4,0,0,0,.27-.22q.21-.45.39-.93a.42.42,0,0,0-.5-.55L25.43,57.11a.42.42,0,0,0-.22.68,7.27,7.27,0,0,0,.69.68A.41.41,0,0,0,26.28,58.55Z" style="fill:#00703c"/><path d="M28.63,59.84a6.33,6.33,0,0,0,5.62-1.44.42.42,0,0,0-.38-.72L28.62,59A.42.42,0,0,0,28.63,59.84Z" style="fill:#00703c"/><path d="M31.55,31.56l-.84-2.37a.45.45,0,0,0-.84,0L29,31.56a.44.44,0,0,1-.8.07l-2.85-5a.44.44,0,0,1,.17-.61l.42-.24a.44.44,0,0,1,.61.16l1.35,2.36a.45.45,0,0,0,.81-.08l.72-2.06a.88.88,0,0,1,1.66,0l.73,2.06a.44.44,0,0,0,.8.08L34,26a.44.44,0,0,1,.61-.16l.43.24a.45.45,0,0,1,.16.61l-2.85,5A.44.44,0,0,1,31.55,31.56Z" style="fill:#00703c"/><path d="M30.29,13.5A15.76,15.76,0,0,0,14.22,29.25a16.69,16.69,0,0,0,4,10.85,18.34,18.34,0,0,1,4,7.73l.24,1.53a1.17,1.17,0,0,0,1.43.94l5-1.28a.53.53,0,0,0,.4-.52l0-7.34a17.12,17.12,0,0,0-1.34-6.58L25.4,28.51a.64.64,0,0,0-.82-.33h0a.62.62,0,0,0-.33.82l2.45,5.84A17.07,17.07,0,0,1,28,41.41l0,5.49a.26.26,0,0,1-.19.24l-3.5.9-.1-.62,0-.07a20.44,20.44,0,0,0-4.43-8.61,14.58,14.58,0,0,1-3.52-9.49A13.67,13.67,0,0,1,30,15.58h.26A13.69,13.69,0,0,1,43.7,29.28a14.67,14.67,0,0,1-3.51,9.46,20.3,20.3,0,0,0-3.7,6.2l-3.63.93a.25.25,0,0,1-.3-.24V41.41a17.31,17.31,0,0,1,1.34-6.58l2.53-6a.44.44,0,0,0-.41-.62h0a1.12,1.12,0,0,0-.94.62l-2.42,5.78a17.08,17.08,0,0,0-1.34,6.58l0,6.55a.54.54,0,0,0,.67.52l5.49-1.4a1.16,1.16,0,0,0,.81-.74,18.31,18.31,0,0,1,3.48-6,16.7,16.7,0,0,0,4-10.82A15.79,15.79,0,0,0,30.29,13.5Z" style="fill:#00703c"/><path d="M30,9.86h0a1,1,0,0,1-1-1V1a1,1,0,0,1,1-1h0a1,1,0,0,1,1,1v7.8A1,1,0,0,1,30,9.86Z" style="fill:#00703c"/><path d="M43.76,15.59h0a1,1,0,0,1,0-1.46L49.4,8.72a1,1,0,0,1,1.45,0h0a1,1,0,0,1,0,1.46l-5.61,5.41A1,1,0,0,1,43.76,15.59Z" style="fill:#00703c"/><path d="M50.15,29.16h0a1,1,0,0,1,1.05-1l7.79.14a1,1,0,0,1,1,1.05h0a1,1,0,0,1-1,1l-7.79-.14A1,1,0,0,1,50.15,29.16Z" style="fill:#00703c"/><path d="M16.24,15.59h0a1,1,0,0,0,0-1.46L10.61,8.72a1,1,0,0,0-1.46,0h0a1,1,0,0,0,0,1.46l5.6,5.41A1,1,0,0,0,16.24,15.59Z" style="fill:#00703c"/><path d="M43.76,42.92h0a1,1,0,0,0,0,1.45l5.61,5.42a1,1,0,0,0,1.45,0h0a1,1,0,0,0,0-1.46l-5.61-5.41A1,1,0,0,0,43.76,42.92Z" style="fill:#00703c"/><path d="M16.24,42.92h0a1,1,0,0,1,0,1.45l-5.61,5.42a1,1,0,0,1-1.46,0h0a1,1,0,0,1,0-1.46l5.6-5.41A1,1,0,0,1,16.24,42.92Z" style="fill:#00703c"/><path d="M9.85,29.16h0a1,1,0,0,0-1-1L1,28.29a1,1,0,0,0-1,1.05H0a1,1,0,0,0,1.05,1l7.79-.14A1,1,0,0,0,9.85,29.16Z" style="fill:#00703c"/></svg>