<svg xmlns="http://www.w3.org/2000/svg" viewBox="0 0 50.37 63"><title>Asset 10</title><path d="M18.87,45.71h8.68a4,4,0,0,0,3.95-4h0a3.94,3.94,0,0,0-3.95-3.94H22.82a4,4,0,0,1-3.95-4h0a4,4,0,0,1,3.95-3.95h7.1" style="fill:none;stroke:#00703c;stroke-linecap:round;stroke-linejoin:round;stroke-width:3px"/><line x1="25.18" y1="25.18" x2="25.18" y2="29.92" style="fill:none;stroke:#00703c;stroke-linecap:round;stroke-linejoin:round;stroke-width:3px"/><line x1="25.18" y1="45.71" x2="25.18" y2="48.87" style="fill:none;stroke:#00703c;stroke-linecap:round;stroke-linejoin:round;stroke-width:3px"/><path d="M39.35,61.5H11A9.36,9.36,0,0,1,1.5,52.3v-.45a46.58,46.58,0,0,1,9.55-28.2l8.42-11.1h9.8L37,21.27a46.7,46.7,0,0,1,11.88,31h0A9.36,9.36,0,0,1,39.35,61.5Z" style="fill:none;stroke:#00703c;stroke-linecap:round;stroke-linejoin:round;stroke-width:3px"/><path d="M28.82,12.6a.43.43,0,0,0,.09-.1l.51-.73A14.79,14.79,0,0,0,32,3.38h0A1.94,1.94,0,0,0,29.1,1.77L24.88,4.22a2,2,0,0,1-2,0L18.65,1.77a1.94,1.94,0,0,0-2.94,1.61v.06a14.76,14.76,0,0,0,3,8.9l.13.17" style="fill:none;stroke:#00703c;stroke-linecap:round;stroke-linejoin:round;stroke-width:3px"/></svg>