<svg xmlns="http://www.w3.org/2000/svg" viewBox="0 0 91.63 60"><title>Asset 5</title><path d="M75.79,25.68a9.63,9.63,0,0,1-9.62-9.63V10.18a.89.89,0,0,1,.89-.89H84.52a.89.89,0,0,1,.89.89v5.87a9.61,9.61,0,0,1-9.62,9.63ZM68,11.07v5a7.86,7.86,0,0,0,2.89,6.09,7.88,7.88,0,0,0,9.9,0,7.82,7.82,0,0,0,2.89-6.09v-5Z" style="fill:#00703c"/><path d="M84.52,11.07H67.06a.89.89,0,0,1-.89-.89V2.45a.89.89,0,0,1,.89-.89H84.52a.89.89,0,0,1,.89.89v7.73A.89.89,0,0,1,84.52,11.07ZM68,9.29H83.63V3.34H68Z" style="fill:#00703c"/><path d="M90.74,46.15H60.85a.89.89,0,0,1-.89-.89V34.77A13.19,13.19,0,0,1,69.57,22.1L70,22a.86.86,0,0,1,.8.17,7.88,7.88,0,0,0,9.9,0,.87.87,0,0,1,.8-.17l.48.13a13.19,13.19,0,0,1,9.61,12.67V45.26A.89.89,0,0,1,90.74,46.15Zm-29-1.78h28.1v-9.6a11.39,11.39,0,0,0-8.3-11h0a9.64,9.64,0,0,1-11.41,0h0a11.39,11.39,0,0,0-8.31,11Z" style="fill:#00703c"/><path d="M83.74,32.85a.9.9,0,0,1-.9-.9V23.69a.9.9,0,0,1,1.79,0V32A.89.89,0,0,1,83.74,32.85Z" style="fill:#00703c"/><path d="M68,32.85a.89.89,0,0,1-.89-.9V23.69a.9.9,0,0,1,1.79,0V32A.9.9,0,0,1,68,32.85Z" style="fill:#00703c"/><path d="M83.74,36.91a2.87,2.87,0,1,1,2.86-2.86A2.86,2.86,0,0,1,83.74,36.91Zm0-3.95a1.09,1.09,0,1,0,1.08,1.09A1.09,1.09,0,0,0,83.74,33Z" style="fill:#00703c"/><path d="M71.29,39.1a.89.89,0,0,1-.89-.89V35.37a2.45,2.45,0,0,0-4.89,0v2.84a.89.89,0,0,1-1.78,0V35.37a4.23,4.23,0,0,1,8.45,0v2.84A.89.89,0,0,1,71.29,39.1Z" style="fill:#00703c"/><path d="M15.29,28.84a.9.9,0,0,1-.87-.66A16.57,16.57,0,0,1,14,23.91a.89.89,0,0,1,1.78,0,14.75,14.75,0,0,0,.42,3.81.89.89,0,0,1-.64,1.09A.83.83,0,0,1,15.29,28.84Z" style="fill:#00703c"/><path d="M23,28.84l-.23,0a.89.89,0,0,1-.63-1.09,14.79,14.79,0,0,0,.41-3.81.9.9,0,0,1,1.79,0,16.11,16.11,0,0,1-.48,4.27A.88.88,0,0,1,23,28.84Z" style="fill:#00703c"/><path d="M19.22,36h-.11a.89.89,0,0,1-.77-.44L18,35c-.36-.61-.71-1.17-1-1.69a18.86,18.86,0,0,1-2.54-5.14.9.9,0,0,1,.63-1.09.89.89,0,0,1,1.1.63,17.14,17.14,0,0,0,2.33,4.66c.21.36.44.73.68,1.12l.69-1.12a17.14,17.14,0,0,0,2.33-4.66.89.89,0,1,1,1.72.46,18.53,18.53,0,0,1-2.53,5.14c-.32.52-.67,1.08-1,1.7L20,35.6A.89.89,0,0,1,19.22,36Z" style="fill:#00703c"/><path d="M36.54,46.15H1.78A1.78,1.78,0,0,1,0,44.37V37.71a5,5,0,0,1,2.78-4.52l11.88-6a.86.86,0,0,1,.41-.1h.22a.9.9,0,0,1,.86.66,17.14,17.14,0,0,0,2.33,4.66c.21.36.44.73.68,1.12l.69-1.12a17.14,17.14,0,0,0,2.33-4.66.9.9,0,0,1,.86-.66h.22a.79.79,0,0,1,.4.1l11.88,6a5,5,0,0,1,2.78,4.52v6.66A1.78,1.78,0,0,1,36.54,46.15Zm-21.82-17L3.58,34.78a3.28,3.28,0,0,0-1.8,2.93v6.66H36.54V37.71a3.28,3.28,0,0,0-1.8-2.93L23.61,29.13a23.74,23.74,0,0,1-2.24,4.19c-.32.52-.67,1.08-1,1.7L20,35.6a.89.89,0,0,1-.77.44h-.11a.89.89,0,0,1-.77-.44L18,35c-.36-.61-.71-1.17-1-1.69A23.74,23.74,0,0,1,14.72,29.13Z" style="fill:#00703c"/><path d="M31.4,32.79a.9.9,0,0,1-.9-.9V13.13a11.34,11.34,0,1,0-22.68,0V31.89a.9.9,0,1,1-1.79,0V13.13a13.13,13.13,0,0,1,26.26,0V31.89A.89.89,0,0,1,31.4,32.79Z" style="fill:#00703c"/><path d="M19.2,28a.86.86,0,0,1-.55-.19l-2.49-2A15,15,0,0,1,10.41,14a9.22,9.22,0,0,1,4.11-7.67.89.89,0,0,1,1.36.59c.06.31,1.49,7.65,11.14,7.65a.86.86,0,0,1,.66.29.88.88,0,0,1,.23.69l0,.17a15.2,15.2,0,0,1-5.65,10.15l-2.49,2A.88.88,0,0,1,19.2,28ZM14.52,8.6A7.47,7.47,0,0,0,12.19,14a13.26,13.26,0,0,0,5.08,10.47L19.2,26l1.93-1.52A13.43,13.43,0,0,0,26,16.34C18.19,15.94,15.42,11,14.52,8.6Z" style="fill:#00703c"/><path d="M27,41.24a.89.89,0,0,1-.89-.9V36.61a.89.89,0,1,1,1.78,0v3.73A.89.89,0,0,1,27,41.24Z" style="fill:#00703c"/><path d="M28.89,39.37H25.15a.9.9,0,0,1,0-1.79h3.74a.9.9,0,0,1,0,1.79Z" style="fill:#00703c"/><path d="M48.76,39.79C42.81,39.79,38,34.32,38,27.6s4.83-12.2,10.78-12.2,10.78,5.47,10.78,12.2S54.7,39.79,48.76,39.79Zm0-22.6c-5,0-9,4.67-9,10.41s4,10.4,9,10.4,9-4.66,9-10.4S53.72,17.19,48.76,17.19Z" style="fill:#00703c"/><path d="M44.88,42.69A.88.88,0,0,1,44,42a16.16,16.16,0,0,1-.48-4.27.9.9,0,0,1,1.79,0,14.79,14.79,0,0,0,.41,3.81.9.9,0,0,1-.63,1.09Z" style="fill:#00703c"/><path d="M52.64,42.69a.85.85,0,0,1-.23,0,.9.9,0,0,1-.64-1.09,14.32,14.32,0,0,0,.42-3.81.89.89,0,0,1,1.78,0A16.62,16.62,0,0,1,53.5,42,.89.89,0,0,1,52.64,42.69Z" style="fill:#00703c"/><path d="M48.82,49.89H48.7a.89.89,0,0,1-.77-.44l-.34-.59-1-1.69A19,19,0,0,1,44,42a.89.89,0,1,1,1.72-.46,17.43,17.43,0,0,0,2.33,4.66c.22.35.45.72.69,1.12l.68-1.12a17.2,17.2,0,0,0,2.34-4.66.88.88,0,0,1,1.09-.63A.89.89,0,0,1,53.5,42,19,19,0,0,1,51,47.17l-1,1.7-.33.58A.91.91,0,0,1,48.82,49.89Z" style="fill:#00703c"/><path d="M66.13,60H31.38a1.79,1.79,0,0,1-1.79-1.78V51.56A5.05,5.05,0,0,1,32.37,47l11.89-6a.9.9,0,0,1,.4-.09h.22a.89.89,0,0,1,.86.66,17.43,17.43,0,0,0,2.33,4.66c.22.35.45.72.69,1.12l.68-1.12a17.2,17.2,0,0,0,2.34-4.66.88.88,0,0,1,.86-.66h.21a1,1,0,0,1,.41.09l11.88,6a5,5,0,0,1,2.77,4.52v6.66A1.78,1.78,0,0,1,66.13,60ZM44.32,43,33.18,48.63a3.27,3.27,0,0,0-1.8,2.93v6.66H66.13V51.56a3.26,3.26,0,0,0-1.8-2.93L53.2,43A22.84,22.84,0,0,1,51,47.17l-1,1.7-.33.58a.91.91,0,0,1-.77.44H48.7a.89.89,0,0,1-.77-.44l-.34-.59-1-1.69A22.75,22.75,0,0,1,44.32,43Z" style="fill:#00703c"/><path d="M53.63,25.93a13.58,13.58,0,0,1-5.2-1l0,0a11.26,11.26,0,0,0-8.66,0,.88.88,0,0,1-1.18-.43A.89.89,0,0,1,39,23.25a13,13,0,0,1,10.12,0l0,0a11.27,11.27,0,0,0,8.66,0,.89.89,0,0,1,.75,1.62A11.51,11.51,0,0,1,53.63,25.93Z" style="fill:#00703c"/><path d="M57.18,49.2a.89.89,0,0,1-.89-.89V44.87a.89.89,0,1,1,1.78,0v3.44A.89.89,0,0,1,57.18,49.2Z" style="fill:#00703c"/><path d="M39.87,49.2a.89.89,0,0,1-.89-.89V44.87a.89.89,0,1,1,1.78,0v3.44A.89.89,0,0,1,39.87,49.2Z" style="fill:#00703c"/><path d="M57.18,53.66a3.06,3.06,0,1,1,3.06-3.06A3.06,3.06,0,0,1,57.18,53.66Zm0-4.33a1.28,1.28,0,1,0,1.28,1.27A1.27,1.27,0,0,0,57.18,49.33Z" style="fill:#00703c"/><path d="M43.53,56.07a.89.89,0,0,1-.89-.89V52.06a2.77,2.77,0,0,0-5.54,0v3.12a.89.89,0,0,1-1.78,0V52.06a4.55,4.55,0,1,1,9.1,0v3.12A.89.89,0,0,1,43.53,56.07Z" style="fill:#00703c"/></svg>