<svg xmlns="http://www.w3.org/2000/svg" viewBox="0 0 33.52 60"><title>Asset 11</title><path d="M5.7,17.07H0Q.08,9.18,4.71,4.59T17.11,0q7.65,0,12,3.87a12.3,12.3,0,0,1,4.38,9.61,10.88,10.88,0,0,1-1.2,5.06,12.35,12.35,0,0,1-3.61,4.17A37.57,37.57,0,0,1,20.23,27c-5.07,2-8.15,3.54-9.21,4.53a4.82,4.82,0,0,0-1.64,3.68,5.18,5.18,0,0,0,2.2,4.06A8.76,8.76,0,0,0,17.3,41a8.26,8.26,0,0,0,5.94-2c1.38-1.31,2.23-3.42,2.54-6.31h5.7q-.27,6.52-4,10.14T17.3,46.48Q11,46.48,7.23,43.2a10.31,10.31,0,0,1-3.75-8.08,9.88,9.88,0,0,1,1-4.44,9.59,9.59,0,0,1,2.93-3.49,37,37,0,0,1,7.13-3.56Q23,20.2,25.39,18.48a5.75,5.75,0,0,0,2.34-4.93,7.17,7.17,0,0,0-2.86-5.74,11.75,11.75,0,0,0-7.66-2.34q-5.85,0-9.09,3.87C6.61,11.13,5.81,13.71,5.7,17.07ZM17.07,50.31a4.81,4.81,0,0,1,4.81,4.85,4.68,4.68,0,0,1-1.41,3.41,4.76,4.76,0,0,1-6.8,0,4.84,4.84,0,0,1,3.4-8.26Z" style="fill:#00703c"/></svg>