<svg xmlns="http://www.w3.org/2000/svg" viewBox="0 0 192.72 39.33"><title>ProAssurance</title><path d="M191.47,20.8a1.27,1.27,0,0,1,.62.16,1.25,1.25,0,0,1,.47.47,1.3,1.3,0,0,1,0,1.25,1.16,1.16,0,0,1-.47.46,1.14,1.14,0,0,1-.62.17,1.26,1.26,0,0,1-1.09-.63,1.23,1.23,0,0,1,0-1.25,1.25,1.25,0,0,1,.47-.47A1.27,1.27,0,0,1,191.47,20.8Zm0,.21a1,1,0,0,0-.51.13,1,1,0,0,0-.4.39,1.05,1.05,0,0,0,0,1A1,1,0,0,0,191,23a1,1,0,0,0,1,0,1,1,0,0,0,.39-.38,1.05,1.05,0,0,0,0-1,1,1,0,0,0-.4-.39A1,1,0,0,0,191.47,21Zm-.55,1.74V21.4h.46a1,1,0,0,1,.35,0,.31.31,0,0,1,.17.13.35.35,0,0,1-.05.45.39.39,0,0,1-.28.13.35.35,0,0,1,.12.07,1.55,1.55,0,0,1,.2.27l.16.26h-.26l-.12-.21a1.31,1.31,0,0,0-.23-.32.29.29,0,0,0-.17,0h-.13v.57Zm.22-.76h.26a.41.41,0,0,0,.26-.06.16.16,0,0,0,.07-.15.17.17,0,0,0-.13-.17.54.54,0,0,0-.22,0h-.24Z" style="fill:#343433"/><path d="M5.88,0C13.81,1.63,16,5.85,16,5.85l8.29,18.08s-1.66-3.53-8.46-3.58Z" style="fill:#50ad48"/><path d="M24.73,25.41a4.62,4.62,0,0,0-.47-1.63l.06.15s-1.66-3.53-8.46-3.58l-4-8.25A36.63,36.63,0,0,1,0,16.6L7,36.55c8.36-1.19,18.31-5.3,17.74-11.14" style="fill:#035029"/><path d="M36.45,16.16c0,1,0,4.05,0,4.36a.69.69,0,0,0,.8.71h1.56c.17,0,.19.06.19.15v.53c0,.11,0,.18-.22.18S37.74,22,35.45,22s-3.09.07-3.36.07-.2-.07-.2-.16v-.55c0-.11,0-.15.15-.15h1.05c.82,0,1-.12,1.07-.71,0-.22.09-3.68.09-6.25V11.73c0-1.46,0-3.87,0-4.1-.05-.44-.3-.48-1-.48H31.87c-.12,0-.15-.05-.15-.18V6.44c0-.11,0-.16.15-.16s1.14.07,3.46.07c.43,0,1.87-.07,2.67-.07,2.75,0,4,.25,5.43,1.11a3.84,3.84,0,0,1,1.85,3.21c0,2.79-2.31,4.52-6.18,4.52A24.6,24.6,0,0,1,36.45,15Zm0-1.95a9.65,9.65,0,0,0,2.24.2,4.6,4.6,0,0,0,3.43-1.51,3.38,3.38,0,0,0,.63-2.23c0-2.9-3-3.68-4.4-3.68a7.87,7.87,0,0,0-1.9.16Z" style="fill:#343433"/><path d="M48.29,14.47c0-1.23,0-2.29,0-2.78s-.24-.82-.69-.82h-.73c-.09,0-.11,0-.11-.12v-.42c0-.08,0-.11.11-.11s.73,0,2.26,0c1,0,2.72,0,3,0a5.32,5.32,0,0,1,3.42,1,2.7,2.7,0,0,1,1,1.89c0,2.08-1.05,2.86-3.38,3.32v0a1.85,1.85,0,0,1,.84.63c.22.21,1.51,1.91,1.66,2.12a13,13,0,0,0,1.61,1.91,2.25,2.25,0,0,0,1.31.28c.13,0,.15.07.15.14v.36c0,.1,0,.15-.15.15S58,22,57.15,22c-.53,0-1.21,0-1.48.05a7.87,7.87,0,0,1-.77-.94c-.15-.2-1.13-1.78-1.22-1.91s-1-1.32-1.17-1.55a2.36,2.36,0,0,0-2-1,2.91,2.91,0,0,0-.61.05v.93c0,1,0,2.84,0,3.09s.18.64.46.64h1.15c.13,0,.14,0,.14.14v.36c0,.12,0,.15-.2.15S50.86,22,49.13,22s-2.08.05-2.28.05-.15-.05-.15-.13v-.38c0-.09,0-.14.09-.14h.75c.4,0,.71-.11.71-.56,0-1.64,0-3.2,0-4.78Zm1.64,1.64a4.15,4.15,0,0,0,.83.07c3.32,0,4-2.08,4-2.77a2.47,2.47,0,0,0-.91-1.9,4.77,4.77,0,0,0-3-.76,1.26,1.26,0,0,0-.62.13.6.6,0,0,0-.22.53Z" style="fill:#343433"/><path d="M60.55,21.19a5.67,5.67,0,0,1-2.69-4.93,6.07,6.07,0,0,1,1.7-4.13,6.24,6.24,0,0,1,5-2.11,6.52,6.52,0,0,1,4.09,1.31,6.19,6.19,0,0,1,2.5,5,5.7,5.7,0,0,1-1.37,3.64,6.43,6.43,0,0,1-5.26,2.34A8.51,8.51,0,0,1,60.55,21.19Zm8.76-4.76c0-3.64-2.85-5.78-4.87-5.78a3.74,3.74,0,0,0-2.89,1,5.66,5.66,0,0,0-1.83,4.1c0,4.37,3.35,5.91,4.9,5.91C68.64,21.64,69.31,17.9,69.31,16.43Z" style="fill:#343433"/><path d="M76.13,15.87c-.25.55-1.59,3.92-1.71,4.38,0,.16-.07.38-.07.49,0,.31.29.49.83.49h1.14c.17,0,.24,0,.24.15v.51c0,.15-.07.2-.19.2C76,22.09,75,22,73.59,22c-1.77,0-2.31.07-2.65.07-.12,0-.17-.05-.17-.18v-.53c0-.11.1-.15.19-.15h.86c.73,0,1.07-.32,1.41-1,.17-.36,2-4.45,2.65-6.27.17-.44,2.14-5.2,2.36-5.8a.8.8,0,0,0,0-.75.55.55,0,0,1-.17-.29c0-.06.05-.15.22-.2a5,5,0,0,0,2-1.1c.12-.11.19-.2.31-.2s.2.13.27.37c.46,1.4,2.36,6.36,2.83,7.77.56,1.73,2.14,5.85,2.48,6.49a1.85,1.85,0,0,0,1.66,1h.8c.15,0,.19.06.19.15v.55c0,.11-.07.16-.24.16-.44,0-1-.07-2.92-.07s-2.87.07-3.43.07a.18.18,0,0,1-.2-.2v-.51c0-.13.07-.15.22-.15h.61c.68,0,.9-.23.73-.85-.2-.79-1.19-3.63-1.53-4.51Zm5.69-.8c-.22-.66-2.19-6.2-2.31-6.53-.07-.15-.12-.31-.19-.31s-.2.16-.27.33-2.44,6-2.61,6.51Z" style="fill:#343433"/><path d="M91.32,21.41a.85.85,0,0,0-.42-.2c-.11,0-.18.11-.29.28a.33.33,0,0,1-.33.2c-.11,0-.2-.08-.17-.27.08-.41.26-2.52.31-3,0-.1.06-.1.13-.1l.28,0c.07,0,.1,0,.1.13a3.06,3.06,0,0,0,.66,1.92,3.16,3.16,0,0,0,2.56,1.23,2.26,2.26,0,0,0,2.48-2.11c0-1.71-1.35-2.34-2.81-2.8a7.27,7.27,0,0,1-2.67-1.35,3,3,0,0,1,.22-4.54,3.85,3.85,0,0,1,2.56-.8,5.75,5.75,0,0,1,2.15.41c.17.09.26.07.35,0l.24-.2a.36.36,0,0,1,.24-.1c.09,0,.14.13.14.28,0,.58.24,2.28.26,2.64,0,.08,0,.12-.09.13l-.22.05a.08.08,0,0,1-.11-.05,4,4,0,0,0-1.13-1.84,2.71,2.71,0,0,0-2-.71,2,2,0,0,0-2.21,1.94A1.92,1.92,0,0,0,92.12,14a6,6,0,0,0,2.08,1,6,6,0,0,1,2.94,1.38A3,3,0,0,1,98,18.63a3.51,3.51,0,0,1-3.73,3.64A4.81,4.81,0,0,1,91.32,21.41Z" style="fill:#343433"/><path d="M101.33,21.41a.85.85,0,0,0-.42-.2c-.11,0-.19.11-.3.28s-.2.2-.32.2-.21-.08-.17-.27c.07-.41.26-2.52.31-3,0-.1.06-.1.13-.1l.27,0c.08,0,.11,0,.11.13a3.06,3.06,0,0,0,.66,1.92,3.15,3.15,0,0,0,2.56,1.23,2.26,2.26,0,0,0,2.48-2.11c0-1.71-1.35-2.34-2.81-2.8a7.27,7.27,0,0,1-2.67-1.35,3.06,3.06,0,0,1-.91-2.42,3,3,0,0,1,1.13-2.12,3.85,3.85,0,0,1,2.56-.8,5.75,5.75,0,0,1,2.15.41c.17.09.26.07.35,0l.24-.2a.34.34,0,0,1,.23-.1c.1,0,.15.13.15.28,0,.58.24,2.28.26,2.64,0,.08,0,.12-.09.13l-.22.05c-.06,0-.1,0-.11-.05a4,4,0,0,0-1.14-1.84,2.68,2.68,0,0,0-2-.71,2,2,0,0,0-2.21,1.94,1.9,1.9,0,0,0,.57,1.44,6,6,0,0,0,2.08,1,6,6,0,0,1,2.94,1.38,3,3,0,0,1,.81,2.25,3.51,3.51,0,0,1-3.73,3.64A4.81,4.81,0,0,1,101.33,21.41Z" style="fill:#343433"/><path d="M113.2,21.92A3.15,3.15,0,0,1,111,19.7a15.9,15.9,0,0,1-.29-4V11.71c0-.58-.13-.84-.69-.84h-.86c-.11,0-.13,0-.13-.15v-.37c0-.1,0-.13.16-.13s1.08,0,2.51,0,2.3,0,2.5,0,.16,0,.16.1v.43c0,.08,0,.12-.14.12h-.92a.79.79,0,0,0-.87.68c0,.14,0,1.31,0,2.15v1.1c0,.88.07,3,.09,3.52a3.75,3.75,0,0,0,.59,2.11,3.55,3.55,0,0,0,2.9,1.19,4.12,4.12,0,0,0,2.74-.91,3.89,3.89,0,0,0,1-2.92V14.24c0-1.27,0-2.23-.09-2.64a.78.78,0,0,0-.82-.73H118c-.11,0-.13,0-.13-.14v-.4c0-.08,0-.11.13-.11s1,0,2.25,0,1.84,0,2,0,.18.06.18.11v.37c0,.1,0,.17-.11.17h-.75a.7.7,0,0,0-.78.66c0,.16,0,2.52,0,2.76s0,3.13-.09,3.78a4.13,4.13,0,0,1-1.53,3.2,5.21,5.21,0,0,1-3.44,1A7.16,7.16,0,0,1,113.2,21.92Z" style="fill:#343433"/><path d="M125.07,14.47c0-1.23,0-2.29,0-2.78s-.24-.82-.69-.82h-.74c-.09,0-.11,0-.11-.12v-.42c0-.08,0-.11.11-.11s.74,0,2.27,0c1,0,2.72,0,3,0a5.29,5.29,0,0,1,3.41,1,2.66,2.66,0,0,1,1,1.89c0,2.08-1,2.86-3.38,3.32v0a1.8,1.8,0,0,1,.84.63c.22.21,1.52,1.91,1.67,2.12a13.49,13.49,0,0,0,1.6,1.91,2.3,2.3,0,0,0,1.32.28c.13,0,.14.07.14.14v.36c0,.1,0,.15-.14.15s-.62-.05-1.43-.05c-.53,0-1.2,0-1.48.05a7.8,7.8,0,0,1-.76-.94c-.15-.2-1.13-1.78-1.23-1.91s-.95-1.32-1.16-1.55a2.38,2.38,0,0,0-2-1,2.87,2.87,0,0,0-.6.05v.93c0,1,0,2.84,0,3.09s.18.64.45.64h1.15c.13,0,.15,0,.15.14v.36c0,.12,0,.15-.2.15s-.66-.05-2.39-.05-2.08.05-2.29.05-.14-.05-.14-.13v-.38c0-.09,0-.14.09-.14h.75c.4,0,.71-.11.71-.56,0-1.64,0-3.2,0-4.78Zm1.64,1.64a4,4,0,0,0,.82.07c3.33,0,4-2.08,4-2.77a2.44,2.44,0,0,0-.92-1.9,4.72,4.72,0,0,0-3-.76,1.23,1.23,0,0,0-.62.13.6.6,0,0,0-.22.53Z" style="fill:#343433"/><path d="M139.26,17.41c-.19.41-1.19,2.94-1.28,3.28a3.49,3.49,0,0,0-.06.37c0,.23.22.36.62.36h.86c.13,0,.18,0,.18.12v.38c0,.12-.05.15-.14.15-.26,0-1-.05-2.08-.05-1.34,0-1.74.05-2,.05-.09,0-.13,0-.13-.13v-.4a.13.13,0,0,1,.14-.12H136a1,1,0,0,0,1.06-.76c.13-.27,1.46-3.34,2-4.7.13-.33,1.61-3.9,1.78-4.35.05-.16.14-.38,0-.56s-.12-.15-.12-.22,0-.11.16-.15a3.9,3.9,0,0,0,1.52-.83c.09-.08.14-.15.23-.15s.15.1.2.29c.35,1,1.78,4.76,2.12,5.82.42,1.3,1.61,4.39,1.86,4.87a1.39,1.39,0,0,0,1.25.74h.6c.11,0,.15,0,.15.12V22c0,.08-.06.11-.19.11-.33,0-.71-.05-2.19-.05s-2.15.05-2.57.05a.14.14,0,0,1-.15-.15v-.38c0-.1.06-.12.17-.12h.45c.51,0,.68-.16.55-.63s-.9-2.72-1.15-3.38Zm4.27-.6c-.16-.5-1.64-4.65-1.73-4.9s-.1-.23-.15-.23-.15.11-.2.25-1.83,4.46-2,4.88Z" style="fill:#343433"/><path d="M151.29,12.43c0-1-.55-1.53-1.2-1.55h-.75a.11.11,0,0,1-.11-.12v-.43c0-.07,0-.1.11-.1h.51c.27,0,.67,0,1.29,0s1,0,1.23,0a.67.67,0,0,1,.53.22L156.73,15c.2.23,3.29,3.66,3.73,4.2h.07v-2c0-1.48,0-2.29-.05-3.12a18,18,0,0,0-.22-2.56,1,1,0,0,0-1-.64h-.58c-.07,0-.11,0-.11-.12v-.43c0-.07,0-.1.11-.1.25,0,.84,0,2,0s1.53,0,1.77,0,.15,0,.15.11v.42a.11.11,0,0,1-.11.12H162c-.49,0-.67.28-.71.91-.07,1.11-.07,2.75-.07,3.83v6.21c0,.23,0,.4-.09.4a.64.64,0,0,1-.44-.26s-1.1-1.27-2.23-2.56c-1.28-1.45-2.61-3-2.72-3.07s-3.56-4-3.67-4.14H152v3.69c0,1.54.14,4.25.18,4.58.07.65.18,1,.68,1h.55c.12,0,.14,0,.14.15v.37c0,.1,0,.13-.14.13s-1.28-.05-1.78-.05-1.64.05-1.82.05-.09,0-.09-.11v-.44c0-.05,0-.1.11-.1h.62c.52,0,.73-.19.82-1,0-.31.07-2.21.07-5.16Z" style="fill:#343433"/><path d="M166.17,20.74a6.35,6.35,0,0,1-1.95-4.64,6,6,0,0,1,1.86-4.41A6.73,6.73,0,0,1,170.65,10a8.17,8.17,0,0,1,3.69.91c.24.13.33.12.36,0l.15-.48c0-.1.07-.1.24-.1s.2,0,.2.27.36,2.75.45,3.22c0,.08,0,.15-.07.16l-.27.07c-.09,0-.13,0-.19-.13a6.15,6.15,0,0,0-1.42-2.06,4.4,4.4,0,0,0-3.18-1.28c-3.27,0-4.58,2.64-4.56,5.06a6.3,6.3,0,0,0,1.75,4.27,4.25,4.25,0,0,0,3.51,1.39,5.75,5.75,0,0,0,4.51-2.1c.05-.09.09-.1.14,0l.24.16c.06,0,.09.07,0,.15a7.12,7.12,0,0,1-10.07,1.26Z" style="fill:#343433"/><path d="M181.31,15.66c.15,0,2.1-.06,2.32-.1.53-.08.68-.21.84-.73a3.35,3.35,0,0,0,.15-.81c0-.08,0-.12.13-.12l.45,0c.1,0,.13.07.11.13-.05.28-.05,1.65-.05,1.9,0,.58.07,1.37.11,1.72a.11.11,0,0,1-.11.13l-.4.05c-.09,0-.13,0-.15-.14s-.15-.6-.2-.78a.83.83,0,0,0-.79-.65c-.85-.09-2.11-.09-2.41-.09v1c0,.9,0,2.51,0,2.84a1.18,1.18,0,0,0,1,1.3,9.22,9.22,0,0,0,1.35.11c.31,0,1.23,0,1.61,0a3.65,3.65,0,0,0,1.59-.58,15.48,15.48,0,0,0,1.5-1.74c.05-.08.11-.15.22-.1l.29.15c.09.05.09.1,0,.23l-1,2.44a.4.4,0,0,1-.4.25c-.1,0-.5,0-1.59,0l-5.72,0-1.55,0-.79,0c-.11,0-.16,0-.16-.11v-.45c0-.07.05-.09.18-.09h.73c.84,0,.91-.11.91-.73V15.13c0-1.38,0-3.45,0-3.62-.07-.53-.26-.64-.93-.64H178c-.09,0-.15,0-.15-.12V10.3c0-.05,0-.08.13-.08.4,0,1,0,2.25,0h.8l5.43,0c.29,0,.63,0,.73,0s.12,0,.14.08c.08.23.88,2.51.93,2.67s0,.12-.05.15l-.28.14s-.12,0-.14,0a14.05,14.05,0,0,0-1.83-1.9,2.93,2.93,0,0,0-1.39-.44l-3.25-.07Z" style="fill:#343433"/><path d="M137.91,29.52a1.3,1.3,0,0,0,.74-.19c.08,0,.11-.07.15-.07s.1.1,0,.25a5.78,5.78,0,0,0-.24,1.24c0,.1-.1.21-.19.21s-.12-.08-.15-.35c-.07-.56-.21-.62-.88-.65-.19,0-1.39,0-1.52,0s-.1.12-.1.14v2.67c0,1.26,0,2.29,0,2.69s.11.62.78.77c.15,0,.3.12.3.2s-.2.13-.31.13-.76,0-1.24,0-1.09.07-1.24.07-.32-.06-.32-.13.11-.16.21-.18c.76-.18.78-.36.81-1.18,0-.64.08-2.86.08-3.7V30.12c0-.08-.06-.14-.09-.14-.22,0-1.17-.05-1.35-.05-.41,0-.64.06-.8.25a1.83,1.83,0,0,0-.36.56c-.1.23-.16.22-.21.22s-.11-.14-.11-.25a10.84,10.84,0,0,0,.21-1.44.22.22,0,0,1,.16-.17c.06,0,.06.08.18.17a.63.63,0,0,0,.37.21c.28,0,1.15.07,2.54.07Z" style="fill:#676767"/><path d="M138.25,32.51a4.15,4.15,0,0,0,.8-.35.81.81,0,0,1,.22-.12s.1.09.1.12c0,.2,0,.4,0,.6a.05.05,0,0,0,.07.05,2.21,2.21,0,0,1,1.24-.68c.45,0,.55.28.55.37a.85.85,0,0,1-.07.16,3.54,3.54,0,0,1-.44.5.34.34,0,0,1-.16,0,1,1,0,0,0-.59-.24.64.64,0,0,0-.48.16.37.37,0,0,0-.11.24c0,.21,0,2.18.06,2.34,0,.32.09.53.29.56l.5.13c.17,0,.19.13.19.17s-.1.1-.26.1-.65,0-1.28,0c-.33,0-.46,0-.72,0s-.23,0-.23-.13.13-.11.22-.14c.42-.14.46-.25.47-.91V33.32a.36.36,0,0,0-.12-.33c-.26-.2-.37-.25-.37-.29A.22.22,0,0,1,138.25,32.51Z" style="fill:#676767"/><path d="M144.76,32.56a1.21,1.21,0,0,1,.38.91.21.21,0,0,1-.2.19c-.12,0-2,0-2.48,0,0,0-.08.06-.09.09a1.52,1.52,0,0,0-.05.38,2.19,2.19,0,0,0,.41,1.24A1.53,1.53,0,0,0,144,36a1.11,1.11,0,0,0,1-.39c0-.07.09-.13.14-.13s.08.07.08.13a.66.66,0,0,1-.07.26,1.87,1.87,0,0,1-1.58.81,2,2,0,0,1-1.95-2.16,2.23,2.23,0,0,1,2.13-2.33A1.57,1.57,0,0,1,144.76,32.56Zm-2.28.67c0,.06,0,.12,0,.12h1.41c.26,0,.37-.05.37-.27a.73.73,0,0,0-.72-.65A1.17,1.17,0,0,0,142.48,33.23Z" style="fill:#676767"/><path d="M148.65,32.64a1.41,1.41,0,0,1,.21.91c0,.42,0,1.79,0,1.91,0,.5.35.54.43.54a1.12,1.12,0,0,0,.42-.16s0,0,.06,0a.16.16,0,0,1,0,.11,1.11,1.11,0,0,1-1,.68.73.73,0,0,1-.7-.55s0,0-.06,0a4.38,4.38,0,0,1-1,.5,2.07,2.07,0,0,1-.44.06c-.38,0-.75-.46-.75-1a.94.94,0,0,1,.21-.55,1,1,0,0,1,.43-.27c.17-.07,1-.31,1.28-.38s.31-.13.31-.2,0-.76,0-.89a.84.84,0,0,0-.85-.73.8.8,0,0,0-.44.12c-.07,0-.1.23-.08.45a.34.34,0,0,1-.06.12,4.19,4.19,0,0,1-.71.35.16.16,0,0,1-.13-.14c0-.31.3-.62.82-1a2.29,2.29,0,0,1,1-.42A1.13,1.13,0,0,1,148.65,32.64Zm-.72,3.24a.66.66,0,0,0,.13-.27c0-.26,0-.63,0-.85a.1.1,0,0,0-.09-.08,3.38,3.38,0,0,0-1.12.32.43.43,0,0,0-.21.42.67.67,0,0,0,.68.65A1.44,1.44,0,0,0,147.93,35.88Z" style="fill:#676767"/><path d="M152.8,32.24s.12.06.12.09a4.11,4.11,0,0,1,0,.41c0,.1-.2.12-.28.12h-1.19a.11.11,0,0,0-.09.08c0,.22,0,1.81,0,2.34a.67.67,0,0,0,.19.53.92.92,0,0,0,.66.2,1.22,1.22,0,0,0,.54-.16c.09-.05.11-.06.16-.06s.06,0,.06.12a.46.46,0,0,1-.15.27,1.63,1.63,0,0,1-1.16.48,1.17,1.17,0,0,1-1-.51,1.31,1.31,0,0,1-.14-.72c0-.4,0-2,0-2.42,0-.07-.19-.15-.41-.21s-.15-.09-.15-.12a.17.17,0,0,1,.06-.12,8.27,8.27,0,0,0,.87-.75c.13-.16.21-.24.25-.24a.23.23,0,0,1,.16.12v.51s0,.09.08.09Z" style="fill:#676767"/><path d="M156.73,32.56a1.25,1.25,0,0,1,.38.91.22.22,0,0,1-.21.19c-.12,0-2,0-2.48,0,0,0-.08.06-.09.09a1.52,1.52,0,0,0-.05.38,2.19,2.19,0,0,0,.41,1.24,1.54,1.54,0,0,0,1.22.6,1.11,1.11,0,0,0,1-.39c0-.07.1-.13.14-.13s.09.07.09.13a.66.66,0,0,1-.08.26,1.86,1.86,0,0,1-1.57.81,2,2,0,0,1-2-2.16,2.23,2.23,0,0,1,2.13-2.33A1.61,1.61,0,0,1,156.73,32.56Zm-2.29.67c0,.06,0,.12.05.12h1.4c.26,0,.37-.05.37-.27a.73.73,0,0,0-.72-.65A1.18,1.18,0,0,0,154.44,33.23Z" style="fill:#676767"/><path d="M161.14,32.18s.08-.07.09-.12a20.5,20.5,0,0,0,0-2.22c0-.06,0-.19-.51-.45-.1-.05-.11-.07-.11-.09a.33.33,0,0,1,.18-.19,7.38,7.38,0,0,0,1.11-.3.33.33,0,0,1,.14,0s.1.08.09.18a41.26,41.26,0,0,0-.1,4.29c0,2.2,0,2.27,0,2.48,0,.4.1.45.17.45s.48-.08.58-.09a.07.07,0,0,1,.07.07.45.45,0,0,1-.19.27,8.41,8.41,0,0,0-1,.21,1.43,1.43,0,0,1-.39.11.16.16,0,0,1-.12-.14c0-.1,0-.29,0-.44a.07.07,0,0,0-.07-.07,2.08,2.08,0,0,1-1.41.54,1.9,1.9,0,0,1-1.36-.59,2.34,2.34,0,0,1,.63-3.49,3.09,3.09,0,0,1,1.44-.42A3.8,3.8,0,0,1,161.14,32.18Zm-1.94.69a2.14,2.14,0,0,0-.46,1.37,1.78,1.78,0,0,0,1.54,1.87,1.34,1.34,0,0,0,.8-.26,1.93,1.93,0,0,0,.17-.72q0-1,0-1.8a.9.9,0,0,0-.24-.41,1.47,1.47,0,0,0-.94-.43A1.23,1.23,0,0,0,159.2,32.87Z" style="fill:#676767"/><path d="M168.43,29.53c.65,0,1.65,0,1.74,0a.13.13,0,0,1,.13.11c0,.32,0,.7,0,1.07,0,.14-.05.29-.15.29s-.18-.12-.24-.34c-.17-.53-.29-.63-.65-.68a10.75,10.75,0,0,0-1.69,0,.2.2,0,0,0-.17.14c0,.26-.05,1.68-.05,2.4,0,.29.06.4.11.4.43,0,1.31,0,1.57,0s.43-.13.59-.5c.06-.15.1-.26.2-.26s.1.11.1.24,0,.49,0,.69c0,.52,0,.61,0,.85s-.06.25-.17.25-.12-.07-.16-.22c-.11-.42-.24-.47-.44-.53a6.79,6.79,0,0,0-.73-.05c-.21,0-.73,0-1,0,0,0-.08.09-.09.13,0,.21,0,1.73,0,2s0,.55.74.68c.16,0,.26.11.26.21s-.1.13-.31.13-.62,0-1,0-1.07.06-1.29.06-.31,0-.31-.11.12-.17.3-.21c.58-.15.6-.4.61-.54,0-.34.09-1.14.09-3.29,0-1,0-1.67,0-1.95s-.21-.55-.68-.67c-.22-.06-.28-.11-.28-.19s.13-.13.31-.13c.48,0,.87,0,1.2,0Z" style="fill:#676767"/><path d="M173.66,32.64a1.4,1.4,0,0,1,.22.91c0,.42,0,1.79,0,1.91,0,.5.35.54.44.54a1.15,1.15,0,0,0,.41-.16s0,0,.07,0a.2.2,0,0,1,0,.11,1.11,1.11,0,0,1-1,.68.73.73,0,0,1-.7-.55s0,0-.06,0a4.17,4.17,0,0,1-1,.5,2.07,2.07,0,0,1-.43.06c-.38,0-.75-.46-.75-1a.93.93,0,0,1,.2-.55,1,1,0,0,1,.44-.27c.16-.07,1-.31,1.27-.38s.31-.13.31-.2,0-.76,0-.89a.84.84,0,0,0-.84-.73.81.81,0,0,0-.45.12c-.06,0-.1.23-.07.45,0,0,0,.09-.07.12a4.19,4.19,0,0,1-.71.35.16.16,0,0,1-.13-.14c0-.31.31-.62.82-1a2.29,2.29,0,0,1,1-.42A1.12,1.12,0,0,1,173.66,32.64Zm-.72,3.24c.07,0,.13-.25.13-.27,0-.26,0-.63,0-.85a.1.1,0,0,0-.08-.08,3.25,3.25,0,0,0-1.12.32.44.44,0,0,0-.22.42.68.68,0,0,0,.68.65A1.39,1.39,0,0,0,172.94,35.88Z" style="fill:#676767"/><path d="M175.53,32.46c.4-.09.91-.33,1.08-.37s.09.11.09.12-.06,1.53-.06,2.15,0,1.07,0,1.45.25.37.52.46.24.1.24.18-.13.11-.25.11l-.85,0c-.36,0-.74,0-.92,0s-.28,0-.28-.12.07-.12.26-.17.41-.2.43-.31a11,11,0,0,0,.05-1.12s0-1.56,0-1.69-.13-.17-.44-.4c-.07,0-.09-.07-.09-.12S175.41,32.48,175.53,32.46Zm1.25-2a.58.58,0,0,1-.52.53.61.61,0,0,1-.35-.13.56.56,0,0,1-.16-.4.72.72,0,0,1,.13-.39.63.63,0,0,1,.42-.14A.54.54,0,0,1,176.78,30.46Z" style="fill:#676767"/><path d="M178.25,32.51a4.47,4.47,0,0,0,.8-.35.81.81,0,0,1,.22-.12s.1.09.1.12c0,.2,0,.4,0,.6a.05.05,0,0,0,.07.05,2.21,2.21,0,0,1,1.24-.68c.45,0,.55.28.55.37a.85.85,0,0,1-.07.16,3.54,3.54,0,0,1-.44.5.34.34,0,0,1-.16,0,1,1,0,0,0-.6-.24.63.63,0,0,0-.47.16.37.37,0,0,0-.11.24c0,.21,0,2.18.06,2.34,0,.32.09.53.29.56l.5.13c.17,0,.19.13.19.17s-.1.1-.26.1-.65,0-1.28,0c-.33,0-.46,0-.72,0s-.23,0-.23-.13.13-.11.22-.14c.42-.14.46-.25.47-.91V33.32a.36.36,0,0,0-.12-.33c-.26-.2-.37-.25-.37-.29A.22.22,0,0,1,178.25,32.51Z" style="fill:#676767"/><path d="M181.83,29.2a5.86,5.86,0,0,0,1.12-.43s.1.07.1.11c0,.27-.1,1.5-.1,3s0,3.66,0,4,.09.35.55.48c.17,0,.25.09.25.16s-.15.12-.28.12l-.92,0-1,0c-.22,0-.3,0-.3-.12s.12-.13.24-.15c.5-.11.52-.31.55-.85s.08-1.59.08-3.31c0-.8,0-1.94,0-2.27,0-.09,0-.15-.26-.3s-.21-.17-.21-.21S181.71,29.23,181.83,29.2Z" style="fill:#676767"/><path d="M184.05,32.25c.27,0,.53,0,.84,0s.64,0,.77,0,.23,0,.23.12-.07.15-.25.19-.33.14-.22.42c.16.53.86,2.22.94,2.35s.06,0,.09,0c.13-.3.8-2.05.86-2.22s0-.43-.42-.53c-.13,0-.22-.11-.22-.15s.14-.14.27-.14l.64,0c.15,0,.4,0,.68,0s.22,0,.22.1-.11.14-.24.19-.37.2-.53.56c-.36.82-1,2.26-1.2,2.89-.38,1-.78,2.11-1.13,3a.56.56,0,0,1-.56.3.48.48,0,0,1-.49-.53.5.5,0,0,1,.48-.48h.39c.1,0,.12-.08.16-.18a12,12,0,0,0,.52-1.41.69.69,0,0,0,0-.39c0-.07-.12-.32-.17-.44-.22-.65-.9-2.25-1.24-2.94-.09-.2-.15-.3-.51-.42-.15-.06-.22-.1-.22-.17S183.82,32.25,184.05,32.25Z" style="fill:#676767"/></svg>