<svg xmlns="http://www.w3.org/2000/svg" viewBox="0 0 208.82 207.07"><title>Wards</title><path d="M18.29,150.54A3.55,3.55,0,1,0,14.74,147,3.55,3.55,0,0,0,18.29,150.54Z"/><path d="M45,53.54c-.63-.11-1.18-.22-.81,1L51.05,69c.8,1.92-.51,2.17-3.87,1.35L16.11,62.13c-2.44-.65-5.38-2.42-7.41.15-.36.35-1.09,1.38-1.7.73-.46-.44-.31-1.13.43-2.06a39.88,39.88,0,0,0,5.32-5.81,27.19,27.19,0,0,0,2.9-4.27c.31-.49.65-.62,1-.48A1.2,1.2,0,0,1,17,52c-1,1.72-1,2.89,2.46,3.87l25.05,6.53c.28.06,1.06.28.41-.72l-4-8.16A2.22,2.22,0,0,0,39.09,52L24,47.84c-2.59-.77-2.9-.69-5.09,1.26a.65.65,0,0,1-1,.11c-.54-.42-.14-1.23.64-2.22,2.22-2.8,3.59-3.72,4.37-4.71S24.1,40.4,25.23,39c1.05-1.73,1.41-1.77,1.9-1.38.64.5.31,1.12,0,2-.73,1.43,0,2,2,2.63l6.62,2c.83.17.75-.53.39-1.3l-3.19-6.29c-1.54-3.22-3.17-1.07-3.48-.67a.81.81,0,0,1-1.16,0c-.39-.31-.39-.71,0-1.16q3.45-3.75,3.22-3.46a17.55,17.55,0,0,0,1.25-1.89c1.58-2.6,1.81-2.58,2.5-2,.93.74,0,1.43-.29,1.78-1.05,1.33-.87,2.92.13,5.31l4.4,9.82c.68,1.17.85,1.15,1.33,1.37l13.71,4c.47.21,1.16,0,.64-1L43.23,27.89c-2.47-4-3.45-4.25-5.08-2.9-.45.36-1,1-1.6.5s.31-1.6.43-1.75a28.37,28.37,0,0,0,2.9-3.16C41,19.2,42.78,14.79,44.31,16c.49.39-.11,1.35-.46,1.79-1.68,2.12-.8,4.66,1.67,9L61,54.81c2.44,4.42-1.34,2.71-3,2.27Z"/><path d="M50,71.26a13.1,13.1,0,0,1-2.87-.46L16,62.55c-.47-.12-1-.29-1.46-.46-2.08-.71-4-1.38-5.5.46l-.2.21a2.15,2.15,0,0,1-1.4.9,1,1,0,0,1-.76-.35c-.43-.41-.71-1.22.41-2.63a4.56,4.56,0,0,1,.44-.42,39.91,39.91,0,0,0,4.88-5.39,28.75,28.75,0,0,0,2.86-4.2c.55-.9,1.21-.82,1.55-.69l.12.07a1.61,1.61,0,0,1,.41,2.09c-.49.88-.63,1.41-.46,1.81s1.09,1,2.64,1.47l25,6.52,0,0-4.11-8.33A1.75,1.75,0,0,0,39,52.38L23.87,48.26c-2.46-.73-2.6-.7-4.68,1.17a1.09,1.09,0,0,1-1.54.13c-1-.82.13-2.29.57-2.84a32.82,32.82,0,0,1,3.28-3.58A12.1,12.1,0,0,0,22.59,42a14.08,14.08,0,0,0,1-1.42,20.1,20.1,0,0,1,1.32-1.89C25.6,37.52,26,37.05,26.53,37a1.11,1.11,0,0,1,.87.28c.85.68.49,1.54.17,2.3l-.07.19a1.2,1.2,0,0,0-.2,1c.19.45,1.13.8,1.93,1l6.62,2a.37.37,0,0,0,.14,0c-.05,0-.05-.23-.28-.7l-3.18-6.29c-.45-.93-.92-1.44-1.38-1.49s-.86.25-1.35.88a1.12,1.12,0,0,1-1.07.44,1.52,1.52,0,0,1-.72-.31,1.14,1.14,0,0,1-.47-.85,1.44,1.44,0,0,1,.35-.92c1.94-2.1,2.81-3.05,3.26-3.43l0,0h0a18.56,18.56,0,0,0,1.22-1.84c1.16-1.91,1.6-2.43,2.14-2.53a1.22,1.22,0,0,1,1,.38A1.29,1.29,0,0,1,36,28a1.74,1.74,0,0,1-.64,1.29l-.14.16c-.86,1.09-.81,2.46.19,4.87l4.4,9.81c.52.89.66,1,1,1.09l.14.06,13.65,4a.37.37,0,0,0,.27,0,.75.75,0,0,0-.13-.43L42.85,28.1c-1.41-2.26-2.32-3.28-3-3.39-.37-.07-.79.12-1.38.61l-.2.17c-.39.35-1.12,1-1.95.34a1.09,1.09,0,0,1-.44-.8,2.2,2.2,0,0,1,.75-1.51l.09-.1a26.26,26.26,0,0,0,2.85-3.11,15.38,15.38,0,0,0,.95-1.49c.9-1.52,1.91-3.24,3-3.45a1.34,1.34,0,0,1,1.06.28c.58.47.44,1.37-.39,2.42-1.54,1.94-.63,4.4,1.71,8.53l15.51,28c.89,1.61,1.08,2.59.6,3.18-.64.78-2.09.33-3.38-.06-.26-.08-.5-.16-.71-.21L44.94,54a2.48,2.48,0,0,0-.42-.05s0,.2.12.54l6.8,14.4c.14.33.54,1.27,0,1.9A1.81,1.81,0,0,1,50,71.26ZM11.4,60.48a11,11,0,0,1,3.42.78c.48.17.95.33,1.41.45L47.29,70c2.65.64,3.32.42,3.49.23s.07-.5-.13-1L43.83,54.76a1.58,1.58,0,0,1,0-1.46,1.24,1.24,0,0,1,1.21-.2l.08,0,13,3.54.75.22c.7.22,2.17.68,2.44.35,0,0,.29-.44-.68-2.21L45.14,27c-2.54-4.47-3.49-7.17-1.64-9.51.48-.6.62-1.11.54-1.18a.46.46,0,0,0-.36-.11c-.74.14-1.73,1.81-2.44,3a16.69,16.69,0,0,1-1,1.59,27.91,27.91,0,0,1-2.94,3.2h0l-.06.07c-.35.37-.53.66-.51.84,0,0,0,.1.11.18s.33.15.83-.3l.22-.19A2.69,2.69,0,0,1,40,23.84c1,.17,2,1.2,3.65,3.82L55.51,48.48c.43.81.19,1.25,0,1.45a1.06,1.06,0,0,1-1.2.18L40.47,46c-.52-.22-.77-.41-1.4-1.49l-4.42-9.87c-1-2.3-1.34-4.16-.07-5.75a1.2,1.2,0,0,1,.19-.21c.17-.18.42-.45.4-.64s-.13-.24-.23-.32a1,1,0,0,0-.31-.2c-.29,0-1.23,1.61-1.54,2.12-.43.7-.75,1.19-1,1.58h0l-.25.32,0,0h0l-.24-.18.2.22c-.07.07-.58.6-3.2,3.45a.49.49,0,0,0-.14.32s0,.09.13.2a.7.7,0,0,0,.3.13.23.23,0,0,0,.25-.1,2.61,2.61,0,0,1,2.14-1.23c.79.09,1.49.75,2.07,2l3.19,6.29c.36.77.4,1.31.12,1.66a.93.93,0,0,1-1,.26l-6.66-2c-1.26-.39-2.16-.81-2.48-1.55a2,2,0,0,1,.21-1.7l.07-.16c.36-.87.38-1.05.09-1.27a.65.65,0,0,0-.17-.11c-.05,0-.3.09-1.08,1.38a17.91,17.91,0,0,0-1.3,1.86c-.31.48-.6.94-1,1.49a12.77,12.77,0,0,1-1.17,1.22,31.83,31.83,0,0,0-3.21,3.49c-.68.86-.93,1.44-.71,1.61a.23.23,0,0,0,.36,0c2.36-2.11,2.82-2.22,5.56-1.41l15.09,4.1a2.61,2.61,0,0,1,2,1.71l4.06,8.23c.21.31.44.77.19,1.14s-.78.26-1,.21L19.3,56.27c-1.88-.54-2.87-1.15-3.22-2a3,3,0,0,1,.48-2.53c.23-.53.1-.79-.1-1-.1,0-.24,0-.44.32a27.09,27.09,0,0,1-2.93,4.31,40.41,40.41,0,0,1-5,5.5,4.32,4.32,0,0,0-.36.34c-.37.47-.78,1.13-.45,1.45.08.08.13.08.14.08.2,0,.58-.41.76-.61L8.4,62A3.62,3.62,0,0,1,11.4,60.48Z"/><path d="M178.18,37.55c-3.61,3.5-10.09,3.23-11.23,2.06-.35-.36-.07-1.43,1.17-1.14,2.93.31,5-.15,6.38-1.28.31-.31,1.21-.65-.71-3.26a3.09,3.09,0,0,1,5.2-3.3C180.09,31.76,181.47,34.36,178.18,37.55Z"/><path d="M170.33,40.84a5.75,5.75,0,0,1-3.7-.93,1.1,1.1,0,0,1-.1-1.28,1.45,1.45,0,0,1,1.69-.59c2.68.28,4.72-.11,6-1.19l.1-.08c.22-.19.63-.53-.87-2.58A3.56,3.56,0,0,1,174,30a3.67,3.67,0,0,1,2.12-1,3.71,3.71,0,0,1,3.16,1.3c1.63,1.67,2.26,4.54-.83,7.54h0a11.59,11.59,0,0,1-6.8,2.9C171.22,40.81,170.77,40.84,170.33,40.84Zm-2.6-2a.46.46,0,0,0-.43.18.27.27,0,0,0,0,.26c.44.45,2.22.81,4.33.6a10.68,10.68,0,0,0,6.28-2.66h0c3.22-3.12,1.64-5.45.81-6.31a2.72,2.72,0,0,0-4.05-.28,2.72,2.72,0,0,0-.45,3.09c1.61,2.18,1.45,3.06.69,3.7l-.09.08c-1.47,1.23-3.73,1.7-6.71,1.38A1.42,1.42,0,0,0,167.73,38.86Z"/><path d="M190.46,58.09c2.45-4.23,2.42-6.74.8-9.29C189,45.19,185.15,44,182,46c-3.82,2.43-2.94,6-2,12.72.75,4.81,1.41,11.84-5,15.88S161,76,156.07,68.31A22.36,22.36,0,0,1,152.92,61c-1.06-3.79.59-4.46,4.84-7.16,3.22-1.38,3-1.38,3.85-.73.24.14.5.79-1.45,2.41-4.32,3.4-4.59,8.49-1.76,12.95,2.7,4.24,7,5.53,10.73,3.17,2-1.28,4.65-3.11,3.23-12-.08-1.89-3.21-12.33,3.53-16.61,6.21-3.94,12.54-1.71,17.53,6.14C195.84,53,197.05,57,196,57.87A48.5,48.5,0,0,1,191.83,61c-1.19.83-2.21,1.1-2.68.36C188.85,60.83,189,60.14,190.46,58.09Z"/><path d="M168.78,76.88c-4.8,0-9.65-2.94-13.08-8.33l-.14-.22a22.77,22.77,0,0,1-3.06-7.22c-1.07-3.81.55-4.83,4.11-7.07l.91-.57.87-.38c2.32-1,2.5-1.08,3.38-.41l.1.08a.77.77,0,0,1,.34.61c0,.65-.53,1.46-1.77,2.48-3.92,3.1-4.55,7.84-1.67,12.38a8.68,8.68,0,0,0,4.74,3.88,6.38,6.38,0,0,0,5.38-.84c1.88-1.19,4.44-2.82,3-11.59,0-.31-.1-.8-.2-1.41-.61-3.55-2-11.86,3.93-15.64a10.62,10.62,0,0,1,9.6-1.39c3.12,1.09,6,3.67,8.53,7.67,2.28,3.59,3.92,8.07,2.47,9.29-.09.06-.15.12-.26.21-.44.36-1.46,1.22-3.92,2.9a3.41,3.41,0,0,1-2.43.84,1.31,1.31,0,0,1-.87-.61c-.46-.74-.15-1.63,1.32-3.68,2.53-4.4,2.18-6.64.8-8.83a7.69,7.69,0,0,0-4.08-3.33,5.34,5.34,0,0,0-4.57.63c-3.29,2.09-2.83,5.19-2,10.83l.21,1.46c.6,3.85,1.84,11.87-5.16,16.31A12.11,12.11,0,0,1,168.78,76.88Zm-8-23.73a7.49,7.49,0,0,0-2,.75l-.81.34-.85.54c-3.56,2.24-4.64,2.91-3.74,6.11a21.57,21.57,0,0,0,3,7l.14.22c4.74,7.47,12.31,10,18.41,6.11,5.74-3.64,5.63-9.85,4.76-15.44l-.22-1.47c-.86-5.79-1.38-9.29,2.39-11.69a6.3,6.3,0,0,1,5.3-.73,8.57,8.57,0,0,1,4.55,3.71c1.83,2.87,1.6,5.6-.79,9.74l0,0c-1.42,2-1.44,2.5-1.3,2.72a.41.41,0,0,0,.31.22,2.77,2.77,0,0,0,1.75-.7,44.09,44.09,0,0,0,3.86-2.85,3,3,0,0,1,.31-.24c.62-.53-.08-4-2.7-8.12-2.43-3.83-5.15-6.29-8.08-7.32a9.82,9.82,0,0,0-8.85,1.31c-5.46,3.47-4.11,11.38-3.53,14.75a14.37,14.37,0,0,1,.21,1.47c1.48,9.29-1.48,11.17-3.44,12.42a7.29,7.29,0,0,1-6.1.94A9.52,9.52,0,0,1,158,68.7c-3.15-5-2.44-10.14,1.85-13.53,1.52-1.25,1.45-1.74,1.45-1.74l-.1,0A.74.74,0,0,0,160.76,53.15Z"/><path d="M112,20.69a12.78,12.78,0,0,1,1.63,2.25c.62,1.19,5.25,10.06,6.25,12.06s2.25,3,3.25,1.25,17-30.75,17-30.75c2.5.25,13.75,6.5,16.75,9s8.75,6.25,9,15.25-2.69,13.79-8.37,17.81C149.81,53,137.62,49,137.62,49a101.8,101.8,0,0,0-20.9-8.19c-2.39.32-8.85-14.56-10-17s-2.5-2.47-3.06-2.59c-3.81-.81-3.1.63-3.1.63l.1,17.93c-9.25.5-14.34,3-14.34,3L76.07,31.46l-.52-.24L65.37,35.5c-.25,9,3.56,15.94,2.81,15.94l-5,3.56L60.87,10.25c-.25-2.75,2-.75,2-.75s24,23,27,25.5,3.5,1,3.5,1V.5h15.75s10.5,1,10.28,9.66-8.32,9.73-8.32,9.73S111.37,20.13,112,20.69ZM100.62,4.44V18.5s6.5,1.5,8.75-.75,3-2.56,3.25-7.31-4.75-7-5-7.25S102.87,1.69,100.62,4.44ZM73.68,29.31,64.6,20.25S63.37,19,63.87,22s1.2,10.19,1.2,10.19-.45,1.06,1.8.31A64.76,64.76,0,0,0,73.68,29.31Zm71.19-17.06-14.19,26a4.19,4.19,0,0,0,.94,4.25,15.41,15.41,0,0,0,9.5,3.75,16.61,16.61,0,0,0,15-8.75c3.5-6.5,3.75-14,1.5-17.75s-5.5-7-9.5-8.25C145.09,10.55,144.87,12.25,144.87,12.25Z"/><path d="M62.75,55.94,60.37,10.28c0-.36-.13-1.48.63-1.87s2,.52,2.2.72,24,23,27,25.49C91.88,36,92.58,36,92.75,35.93l.12-.06V0h16.25c.16,0,11,1.15,10.78,10.17a10.17,10.17,0,0,1-7.75,10l.18.16h0a12.66,12.66,0,0,1,1.72,2.37c.65,1.23,5.26,10.08,6.27,12.09.68,1.37,1.29,1.86,1.64,1.87h0c.28,0,.55-.35.72-.65,1-1.72,16.83-30.45,17-30.74l.16-.29.33,0c2.75.28,14.09,6.67,17,9.12l.87.7c3.22,2.59,8.08,6.5,8.31,14.92S164.12,43.49,157.78,48c-7.8,5.52-19.81,1.67-20.32,1.51a101.52,101.52,0,0,0-20.78-8.16h0c-1.77,0-4.53-4.49-9.73-15.8l-.7-1.53c-1-2-1.94-2.18-2.52-2.28l-.19,0c-2.2-.47-2.55-.1-2.56-.1l.05.1v.13l.1,18.41-.47,0c-9.05.49-14.1,3-14.15,3l-.34.16L75.77,31.87l-.23-.11-9.68,4.07a40.37,40.37,0,0,0,2.37,13.4c.53,1.62.69,2.1.43,2.47l-.15.2-.14,0ZM61.45,9.3s-.15.16-.08.9l2.29,43.86,4.1-2.94c-.06-.31-.27-.95-.48-1.58a40.84,40.84,0,0,1-2.41-14v-.33l10.68-4.49.88.45,10,11.05a41.68,41.68,0,0,1,13.72-2.89L100,21.91a1,1,0,0,1,.15-.94c.47-.6,1.6-.69,3.55-.27l.16,0c.66.11,2.05.35,3.25,2.83l.71,1.54C114,38.54,116,40.38,116.66,40.32l.09,0,.1,0a103,103,0,0,1,21,8.23s12,3.82,19.35-1.41c6.1-4.31,8.39-9.19,8.16-17.39-.22-8-4.87-11.69-7.94-14.16l-.88-.72c-2.83-2.36-13.27-8.17-16.16-8.83-1.73,3.14-15.9,28.81-16.84,30.45a1.88,1.88,0,0,1-1.62,1.15c-.87,0-1.71-.84-2.51-2.43-1-2-5.61-10.84-6.24-12a12.17,12.17,0,0,0-1.52-2.11c-.61-.55-.89-.78-.9-.79l-.87-.73,1.13-.15a9.22,9.22,0,0,0,7.88-9.24c.21-8.1-9.73-9.14-9.83-9.15H93.87l0,35.16a1.2,1.2,0,0,1-.81.73c-.84.24-2-.26-3.48-1.51-3-2.48-26-24.58-27-25.52-.4-.35-.93-.62-1.07-.56Zm79.67,37.45a16,16,0,0,1-9.85-3.9,4.66,4.66,0,0,1-1.06-4.78l14.19-26a1.7,1.7,0,0,1,.74-1,3.8,3.8,0,0,1,3.13,0c3.73,1.17,7.2,4.18,9.78,8.47s1.86,12-1.49,18.25A17.14,17.14,0,0,1,141.12,46.75Zm5.39-35a1.52,1.52,0,0,0-.83.2.71.71,0,0,0-.31.4l-.06.18-14.19,26a3.7,3.7,0,0,0,.85,3.66,15,15,0,0,0,9.15,3.6,16.16,16.16,0,0,0,14.56-8.49c3.65-6.77,3.5-13.94,1.51-17.25-2.45-4.09-5.73-6.94-9.22-8A5,5,0,0,0,146.51,11.71ZM65.6,33.27a1.08,1.08,0,0,1-.85-.31.85.85,0,0,1-.18-.82c-.09-.89-.73-7.3-1.19-10.06-.25-1.49-.13-2.24.39-2.51A1.06,1.06,0,0,1,65,19.9l9.55,9.54-.59.31A64.09,64.09,0,0,1,67,33,4.67,4.67,0,0,1,65.6,33.27Zm0-1A3.4,3.4,0,0,0,66.71,32a57,57,0,0,0,6.14-2.84l-8.59-8.58a5.77,5.77,0,0,0,.1,1.31c.5,3,1.2,10.15,1.21,10.22ZM105,19.49a22.37,22.37,0,0,1-4.44-.5l-.39-.09V4.26l.11-.14a5.62,5.62,0,0,1,4.22-1.92,6.69,6.69,0,0,1,3.52.63l.21.12c3.43,2,5.09,4.56,4.94,7.51-.24,4.54-1,5.29-2.85,7.1l-.55.54C108.64,19.18,106.74,19.49,105,19.49Zm-3.83-1.39c2,.39,6.33.87,7.9-.7l.55-.55c1.79-1.76,2.33-2.29,2.55-6.44.2-3.85-3.3-5.92-4.45-6.6a1.83,1.83,0,0,1-.4-.27c-.25-.12-4.1-1.21-6.15,1.08Z"/><path d="M141.39,196.13a3.55,3.55,0,1,0-3.55-3.55A3.55,3.55,0,0,0,141.39,196.13Z"/><path d="M132.22,150.24c-20.53,0-32.63-19.32-32.63-40.7,0-21,11-40.7,32.63-40.7,16.25,0,32.27,13.81,32.27,40.7C164.49,130.07,154.1,150.24,132.22,150.24Zm.12-76.15c-5.87,0-12.71,2-13.81,31.9,0,25.42,2.32,39.24,13.69,39.24,8.31,0,13.44-5,13.44-39.85C145.66,90.71,143.59,74.09,132.34,74.09Z"/><path d="M13.68,83.09a2.41,2.41,0,0,0,3.38-1.74c.6-2.47-.88-3.11-2.07-3.39a2.05,2.05,0,0,0-2.42.94l-1.51,2.2C9.28,83.73,8.13,84,6.12,83.52c-2.89-.7-4.14-2.93-3.43-5.86a4.3,4.3,0,0,1,3.44-3.58A8.71,8.71,0,0,1,9,74.43l-.41,1.69c-2.24-.63-3.76-.55-4.38,2-.42,1.71.17,3.12,2,3.55,2.32.57,2.57-.36,3.53-1.77.53-.75,1.28-2,1.91-2.7,1.08-1.27,2.39-1.34,3.9-1a4.12,4.12,0,0,1,3.14,5.27c-.68,2.78-2.54,4.14-5.37,3.28Z" style="stroke:#000;stroke-width:0.1746px"/><path d="M6.59,93.33l.47-4.13,8.07,3v0ZM1.4,85,1.18,87l4.37,1.66L5,93.54l-4.64.72L.12,96.17l16.12-2.6.26-2.29Z" style="stroke:#000;stroke-width:0.1746px"/><path d="M.09,99.07l15.72.06,0,7.38H14.21l0-5.63-5.15,0,0,5.23H7.48l0-5.24-7.41,0Z" style="stroke:#000;stroke-width:0.1746px"/><path d="M.24,109.45l15.63-1.57.79,7.82-1.57.15-.61-6.08-5.17.51L9.89,116l-1.57.15-.57-5.71L2,111l.62,6.13L1,117.3Z" style="stroke:#000;stroke-width:0.1746px"/><path d="M16.74,116.48l2.07,9.65-1.54.33-.85-4-13.83,3-.36-1.7,13.82-3-.85-4Z" style="stroke:#000;stroke-width:0.1746px"/><path d="M13.1,133.88l8.65.94.62,1.82-10.63-1.38-5.77,2-.57-1.64,5.77-2L18.74,126l.63,1.83Z" style="stroke:#000;stroke-width:0.1746px"/><path d="M30.14,159.19c1.49-1.12,2.43-2.54,1.17-4.31-1.76-2.46-5.28,0-7,1.21s-5.69,3.91-3.83,6.5c1.2,1.69,2.84,1.06,4.36.23.31-.17.61-.36.93-.54l1,1.42c-.28.15-.55.34-.83.49a6,6,0,0,1-3.25,1.19,4,4,0,0,1-3.42-1.76c-2.81-3.94.89-6.79,3.94-9,2.89-2.06,6.8-4.21,9.4-.58,1.73,2.42.82,5-1.51,6.53Z" style="stroke:#000;stroke-width:0.1746px"/><path d="M36.3,170.58c-3.34,3.08-5.42,4.38-7.39,2.27s-.52-4.1,2.79-7.21c2.55-2.4,5.06-3.82,6.89-1.86S38.87,168.21,36.3,170.58Zm-5.8-6.29c-3.16,3-5.87,6.27-2.74,9.63s6.59.9,9.8-2c2.65-2.44,5.36-5.74,2.24-9.1S33.14,161.83,30.5,164.29Z" style="stroke:#000;stroke-width:0.1746px"/><path d="M50.68,173.12,52,174.23l-10,12.15-2.21-1.8,4.56-12.51a12.1,12.1,0,0,1,1-2.21l0,0c-.49.63-1,1.28-1.5,1.9L36,181.42l-1.34-1.1,10-12.16L46.8,170l-4.69,12.78c-.16.5-.37,1-.67,1.68l0,0c.34-.45.71-.93,1.08-1.38Z" style="stroke:#000;stroke-width:0.1746px"/><path d="M57.66,182.75a2.41,2.41,0,0,0-.6-3.76c-2.15-1.34-3.22-.13-3.86.9a2.06,2.06,0,0,0,.13,2.6L55,184.61c1.94,2.52,1.85,3.69.75,5.46-1.57,2.52-4.07,3-6.63,1.42a4.29,4.29,0,0,1-2.33-4.39A8.78,8.78,0,0,1,48,184.49l1.48.92c-1.3,1.93-1.7,3.41.52,4.79,1.49.93,3,.82,4-.75,1.27-2,.46-2.55-.57-3.91a32.76,32.76,0,0,1-2-2.66c-.86-1.43-.52-2.69.3-4a4.13,4.13,0,0,1,6-1.33c2.44,1.51,3.14,3.71,1.44,6.13Z" style="stroke:#000;stroke-width:0.1746px"/><path d="M57,195.54l7-14,1.56.78-7,14Z" style="stroke:#000;stroke-width:0.1746px"/><path d="M73.13,190a2.41,2.41,0,0,0-1.28-3.58c-2.36-.92-3.19.47-3.63,1.6a2.06,2.06,0,0,0,.61,2.53l2,1.79c2.37,2.11,2.49,3.28,1.74,5.22-1.08,2.77-3.45,3.71-6.26,2.62a4.31,4.31,0,0,1-3.1-3.89,8.93,8.93,0,0,1,.73-2.79l1.62.63c-.92,2.14-1,3.66,1.4,4.61,1.64.64,3.12.25,3.79-1.47.86-2.22,0-2.59-1.29-3.74A32,32,0,0,1,67,191.24a3.49,3.49,0,0,1-.44-4,4.13,4.13,0,0,1,5.64-2.42c2.67,1,3.77,3.07,2.54,5.76Z" style="stroke:#000;stroke-width:0.1746px"/><path d="M77.39,187.15l9.55,2.47-.39,1.53-3.94-1-3.53,13.69-1.69-.43,3.54-13.7-3.93-1Z" style="stroke:#000;stroke-width:0.1746px"/><path d="M86,205.36l2.21-15.56L96,190.9l-.22,1.56-6.06-.86L89,196.74l5.68.81-.22,1.56-5.68-.81L87.91,204l6.1.87-.22,1.56Z" style="stroke:#000;stroke-width:0.1746px"/><path d="M105.81,191.24l1.74,0L107.27,207l-2.85,0-4.17-12.65a12.38,12.38,0,0,1-.55-2.37h0c0,.8,0,1.62,0,2.41l-.23,12.53-1.74,0L98,191.1l2.82.05L105,204.09c.18.49.32,1,.52,1.73h0c0-.57,0-1.17,0-1.76Z" style="stroke:#000;stroke-width:0.1746px"/><path d="M117.74,195c-.24-1.85-1-3.37-3.19-3.13-3,.33-2.57,4.61-2.34,6.67s.63,6.86,3.8,6.52c2.06-.23,2.31-2,2.33-3.7,0-.36,0-.71,0-1.07l1.72-.19c0,.31,0,.65,0,1a6.09,6.09,0,0,1-.55,3.42,4,4,0,0,1-3.2,2.12c-4.81.53-5.49-4.09-5.91-7.82-.39-3.52-.35-8,4.08-8.48,3-.33,4.75,1.71,5,4.51Z" style="stroke:#000;stroke-width:0.1746px"/><path d="M126.9,196.44l1.75-8.51,1.88-.45-2.39,10.46,1.41,5.93-1.69.4-1.42-5.93-6.81-8.26,1.87-.45Z" style="stroke:#000;stroke-width:0.1746px"/><path d="M147.65,181.78l1.56-.9c1.81-1.1,3.38-1.61,4.66.59s.27,3.35-1.78,4.57l-1.47.85ZM154.76,194l-3.35-5.76.91-.53a11.89,11.89,0,0,0,3.28-2.44c1.08-1.52.68-3.25-.2-4.76a4.4,4.4,0,0,0-2.78-2.25,5.39,5.39,0,0,0-3.69.95l-3.57,2.07,7.89,13.59Z" style="stroke:#000;stroke-width:0.1746px"/><path d="M164,188.3l-9.43-12.56,6.29-4.72.94,1.26L156.91,176,160,180.1l4.59-3.44.94,1.26L161,181.36l3.48,4.64,4.93-3.69.94,1.25Z" style="stroke:#000;stroke-width:0.1746px"/><path d="M164.9,169.53l1.77-1.7c.84-.82,2.41-2.24,4.32-.32s.39,3.61-.19,4.19l-2,1.9Zm5,5.21,2.19-2.11c1.47-1.43,2.86-.9,3.95.23a14,14,0,0,0,3.17,2.51l1.46-1.41-.25-.26c-.3.29-.87-.12-1.12-.28-.93-.73-1.81-1.49-2.67-2.29-1.63-1.34-2.44-1.46-4-.18l0,0a3.36,3.36,0,0,0-.19-4.55c-2.44-2.69-4.55-1.85-6.92.43l-2.91,2.8,10.9,11.32,1.26-1.2Z" style="stroke:#000;stroke-width:0.1746px"/><path d="M183.11,171.14l-12.14-10,4.67-5.7,1.22,1-3.58,4.36,4,3.27,3.32-4.05,1.21,1-3.32,4.05,5.73,4.7Z" style="stroke:#000;stroke-width:0.1746px"/><path d="M187.25,151.58c3.82,2.47,5.6,4.16,4,6.6s-3.84,1.52-7.68-.92c-3-1.87-5-3.95-3.51-6.21S184.32,149.68,187.25,151.58Zm-4.65,7.18c3.69,2.31,7.53,4.13,10,.27s-.76-6.62-4.42-9c-3-2-6.89-3.77-9.37.09S179.57,156.81,182.6,158.76Z" style="stroke:#000;stroke-width:0.1746px"/><path d="M185.08,143.05l1-2.23c.49-1.06,1.44-3,3.91-1.86s1.67,3.22,1.35,4l-1.16,2.49Zm6.56,3,1.28-2.75c.86-1.87,2.34-1.87,3.77-1.21a14.3,14.3,0,0,0,3.86,1.19l.85-1.85-.32-.15c-.18.38-.86.21-1.15.14-1.14-.34-2.23-.73-3.32-1.17-2-.65-2.81-.47-3.83,1.3l0,0a3.35,3.35,0,0,0-1.83-4.17c-3.24-1.62-4.9-.08-6.29,2.9l-1.7,3.67,14.26,6.61.73-1.58Z" style="stroke:#000;stroke-width:0.1746px"/><path d="M190.59,123.6l.84-2.95L206.54,125l-.48,1.67-12.45-3.55c-.65-.19-1.26-.41-1.92-.55v0c.84.43,1.36.74,1.9,1L205,130.31l-.57,2L191,131.89c-.56,0-1.1,0-2-.08v0c.64.18,1.32.33,2,.52l12.41,3.54-.47,1.67-15.11-4.31.84-3,12.63.4a14.16,14.16,0,0,1,2.33.31v0a23.32,23.32,0,0,1-2.14-1Z" style="stroke:#000;stroke-width:0.1746px"/><path d="M202.08,113.3l-.53,4.11-8-3.13v0Zm5.06,8.37.25-1.92L203.05,118l.64-4.92,4.64-.65.25-1.91-16.15,2.37-.3,2.28Z" style="stroke:#000;stroke-width:0.1746px"/><path d="M193,99.56V97.82h15.71v2.85l-12.57,4.4a12.27,12.27,0,0,1-2.37.58v0c.8,0,1.61,0,2.41,0h12.53v1.74H193v-2.83l12.87-4.46c.48-.18,1-.33,1.72-.54v0c-.57,0-1.17,0-1.76,0Z" style="stroke:#000;stroke-width:0.1746px"/><path d="M196.57,87.52c-1.84.28-3.35,1.09-3.07,3.25.39,3,4.66,2.48,6.71,2.22s6.86-.76,6.45-3.92c-.27-2.06-2-2.28-3.74-2.26-.36,0-.71,0-1.07,0l-.23-1.73c.32,0,.65,0,1,0a6,6,0,0,1,3.42.49,4,4,0,0,1,2.19,3.16c.62,4.8-4,5.57-7.71,6-3.52.45-8,.5-8.56-3.92-.38-2.95,1.62-4.77,4.42-5Z" style="stroke:#000;stroke-width:0.1746px"/><path d="M206.47,80.58l-15.24,3.85-1.92-7.62,1.53-.39,1.49,5.94,5-1.27L196,75.52l1.52-.39,1.4,5.57,5.63-1.42-1.5-6,1.52-.38Z" style="stroke:#000;stroke-width:0.1746px"/><path d="M57.77,147.57c-1.35,0-4.4.12-4.4-2.45,0-1.83,3.05-2.81,5.13-2.81,7.46,0,33-5.62,33-23.1,0-7.95-.61-16.13-31.78-19.56-2.93-.36-6.35-.36-5.13-4.88,1.47-5.63,5-19.68,8.07-28.85.36-1.47.36-3.67,4.28-4.28l32.75-4s7.7-3.42,3.42,9.65C102,71.54,101,74.84,96,74.84L72.68,76.43c-8.43,0-8.92,2.2-8.92,4.77,0,2.32-.49,2.32,15,3.91,21.39,2.44,30.68,11.73,30.68,26.89C108.86,130,88.57,147.57,57.77,147.57Z"/><path d="M165.89,137.73a5.87,5.87,0,0,1,2.81.74,5.24,5.24,0,0,1,2.14,2.11,5.76,5.76,0,0,1,0,5.7,5.28,5.28,0,0,1-2.12,2.12,5.77,5.77,0,0,1-2.84.75,5.84,5.84,0,0,1-2.85-.75,5.4,5.4,0,0,1-2.12-2.12,5.76,5.76,0,0,1,0-5.7,5.26,5.26,0,0,1,2.15-2.11A5.87,5.87,0,0,1,165.89,137.73Zm0,1a4.9,4.9,0,0,0-2.35.61,4.34,4.34,0,0,0-1.78,1.77,4.69,4.69,0,0,0-.65,2.38,4.78,4.78,0,0,0,.63,2.37,4.54,4.54,0,0,0,1.77,1.76,4.73,4.73,0,0,0,4.75,0,4.41,4.41,0,0,0,1.77-1.76,4.76,4.76,0,0,0,0-4.75,4.36,4.36,0,0,0-1.79-1.77A4.87,4.87,0,0,0,165.89,138.68Zm-2.51,7.93v-6.14h2.12a5,5,0,0,1,1.57.17,1.44,1.44,0,0,1,.78.59,1.58,1.58,0,0,1,.29.9,1.61,1.61,0,0,1-.49,1.17,1.92,1.92,0,0,1-1.28.56,1.71,1.71,0,0,1,.52.32,7.85,7.85,0,0,1,.92,1.22l.75,1.21h-1.2l-.56-1a5,5,0,0,0-1.05-1.43,1.23,1.23,0,0,0-.8-.22h-.59v2.62Zm1-3.47h1.23a2.07,2.07,0,0,0,1.21-.25.86.86,0,0,0,.16-1.17.91.91,0,0,0-.42-.32,3.34,3.34,0,0,0-1-.11h-1.15Z" style="fill:#231f20"/></svg>